<svg width="322" height="320" viewBox="0 0 322 320" fill="none" xmlns="http://www.w3.org/2000/svg">
<path fill-rule="evenodd" clip-rule="evenodd" d="M164.009 318.816C132.495 318.816 117.85 314.216 92.3938 295.814C76.292 316.516 25.3029 332.694 23.0793 305.015C23.0793 284.236 18.4788 266.677 13.2648 247.508C7.05413 223.892 0 197.592 0 159.485C0 68.4711 74.6818 0 163.165 0C251.725 0 321.116 71.8448 321.116 160.328C321.414 247.443 251.123 318.351 164.009 318.816ZM165.312 78.6689C122.221 76.4453 88.6367 106.272 81.1992 153.044C75.0652 191.765 85.9531 238.92 95.2308 241.374C99.6779 242.447 110.873 233.4 117.85 226.422C129.388 234.393 142.823 239.18 156.801 240.301C201.451 242.448 239.603 208.456 242.601 163.855C244.346 119.16 209.968 81.3033 165.312 78.7456L165.312 78.6689Z" fill="white"/>
</svg>
