<svg viewBox="0 0 19.1641 15.0965" xmlns="http://www.w3.org/2000/svg" xmlns:xlink="http://www.w3.org/1999/xlink" width="19.164062" height="15.096497" fill="none" customFrame="#000000">
	<defs>
		<clipPath id="clipPath_0">
			<rect width="11.612902" height="12.774194" x="0.000000" y="0.000000" fill="rgb(255,255,255)" transform="matrix(-4.37114e-08,1,1,4.37114e-08,2.90234,-0.000488281)" />
		</clipPath>
	</defs>
	<rect id="Frame 577" width="18.000000" height="14.516129" x="0.582031" y="0.000000" />
	<g id="ant-design:arrow-up-outlined" clip-path="url(#clipPath_0)" customFrame="url(#clipPath_0)">
		<rect id="ant-design:arrow-up-outlined" width="11.612902" height="12.774194" x="0.000000" y="0.000000" fill="rgb(255,255,255)" fill-opacity="0" transform="matrix(-4.37114e-08,1,1,4.37114e-08,2.90234,-0.000488281)" />
		<path id="Vector" d="M11.8753 6.54555L6.35476 0.183402C6.30486 0.125832 6.24317 0.0796622 6.17386 0.0480193C6.10456 0.0163764 6.02926 0 5.95307 0C5.87689 0 5.80159 0.0163764 5.73229 0.0480193C5.66298 0.0796622 5.60129 0.125832 5.55139 0.183402L0.0325349 6.54555C0.0158581 6.56472 0.00504475 6.58829 0.0013832 6.61344C-0.00227835 6.63859 0.00136611 6.66426 0.0118824 6.6874C0.0223987 6.71053 0.0393437 6.73016 0.0606989 6.74393C0.0820541 6.75771 0.10692 6.76506 0.132333 6.7651L1.47961 6.7651C1.55612 6.7651 1.62931 6.73184 1.68087 6.67362L5.32185 2.4771L5.32185 10.8502C5.32185 10.9234 5.38173 10.9833 5.45491 10.9833L6.4529 10.9833C6.52608 10.9833 6.58596 10.9234 6.58596 10.8502L6.58596 2.4771L10.2269 6.67362C10.2768 6.73184 10.35 6.7651 10.4282 6.7651L11.7755 6.7651C11.8886 6.7651 11.9501 6.63204 11.8753 6.54555Z" fill="rgb(242,213,2)" fill-rule="nonzero" transform="matrix(1,3.55271e-15,3.55271e-15,-1,3.625,11.2134)" />
	</g>
	<path id="Vector 2" d="M0.582031 11.032L0.582031 13.9352C0.582031 14.2559 0.841995 14.5159 1.16268 14.5159L18.0014 14.5159C18.3221 14.5159 18.582 14.2559 18.582 13.9352L18.582 11.032" stroke="rgb(242,213,2)" stroke-width="1.16129029" />
</svg>
