<svg viewBox="0 0 47.0024 40.9918" xmlns="http://www.w3.org/2000/svg" xmlns:xlink="http://www.w3.org/1999/xlink" width="47.002441" height="40.991821" fill="none" customFrame="#000000">
	<g id="Group">
		<path id="Vector" d="M7.88915 32.6837C7.7403 32.6837 7.62246 32.6837 7.49842 32.6837C6.56189 32.6716 5.61296 32.7079 4.68263 32.6413C2.5677 32.4959 0.793877 31.0725 0.198469 29.0677C0.0806281 28.6679 0.0124043 28.2378 0.0124043 27.826C0 20.2062 0 12.5865 0 4.96676C0 2.70749 1.81103 0.551189 4.08723 0.127198C4.49657 0.0484562 4.92452 0.00605702 5.34006 0.00605702C17.5335 0 29.7332 0 41.9266 0C44.3703 0 46.5162 1.79288 46.8946 4.15512C46.9256 4.355 46.9504 4.55488 46.9504 4.75476C46.9752 12.4654 47.0124 20.1759 47 27.8865C47 30.267 45.1021 32.2718 42.8756 32.5686C41.877 32.7019 40.8599 32.6716 39.8489 32.6776C32.7164 32.6958 25.5839 32.6958 18.4514 32.6958C18.1847 32.6958 18.0111 32.7867 17.825 32.9442C16.5412 34.0708 15.2511 35.1853 13.9673 36.3119C13.0307 37.1356 12.1004 37.9654 11.1639 38.7892C10.4506 39.4131 9.7436 40.049 9.00554 40.6487C8.20546 41.2968 6.94022 40.9879 6.63632 40.049C6.53708 39.7341 6.5929 39.3525 6.65492 39.0194C7.03325 36.9902 7.43019 34.9672 7.82093 32.9442C7.83333 32.8715 7.85814 32.7988 7.88915 32.6837ZM8.0318 39.5948C8.18686 39.4676 8.26749 39.407 8.34191 39.3404C9.10478 38.6741 9.86144 38.0018 10.6243 37.3355C12.7641 35.4639 14.91 33.6044 17.0435 31.7267C17.3723 31.436 17.701 31.2966 18.1661 31.2966C25.9995 31.3027 33.8328 31.2845 41.6661 31.2664C41.9328 31.2664 42.2057 31.2785 42.4724 31.2361C44.2648 30.9514 45.5301 29.4674 45.5301 27.6867C45.5301 20.1759 45.5301 12.6652 45.5301 5.16058C45.5301 4.94253 45.5053 4.71842 45.4743 4.50037C45.189 2.70749 43.6384 1.39312 41.7964 1.39312C29.9503 1.39312 18.1103 1.39312 6.26419 1.39917C5.65637 1.39917 5.04856 1.43551 4.44695 1.51426C2.91502 1.72625 1.53193 3.23445 1.50092 4.75476C1.46371 6.54764 1.46991 8.34658 1.46991 10.1455C1.46991 15.8815 1.47611 21.6115 1.48232 27.3475C1.48232 27.7109 1.50713 28.0743 1.56295 28.4317C1.79243 29.8854 3.28715 31.1937 4.79427 31.2542C5.89826 31.2966 7.00224 31.2906 8.11243 31.3209C8.93112 31.3451 9.52652 32.1083 9.35907 32.8836C9.26603 33.2955 9.21021 33.7073 9.12959 34.1253C8.90631 35.3064 8.68923 36.4875 8.45975 37.6686C8.32951 38.2804 8.18066 38.8922 8.0318 39.5948Z" fill="rgb(26,26,26)" fill-rule="nonzero" />
	</g>
</svg>
