<svg viewBox="0 0 62.9922 77.9973" xmlns="http://www.w3.org/2000/svg" xmlns:xlink="http://www.w3.org/1999/xlink" width="62.992188" height="77.997314" fill="none" customFrame="#000000">
	<g id="Group">
		<path id="Vector" d="M48.5938 15.9794C57.0863 16.2972 62.4718 22.7398 62.9586 29.7441C63.5178 37.8715 57.397 45.7022 48.5938 45.734C48.5938 46.4546 48.5938 47.1751 48.5938 47.8957C48.5938 48.8282 48.5938 49.7712 48.5938 50.7037C48.5938 51.4349 48.2934 51.8269 47.7238 51.8269C47.1853 51.8269 46.8124 51.3819 46.8124 50.7249C46.8124 49.2096 46.8124 47.6837 46.8124 46.1685C46.8124 45.9989 46.8124 45.8188 46.8124 45.6386C42.7837 45.0558 39.4281 43.2545 36.8907 40.0226C34.6018 37.1086 33.5869 33.7283 33.7629 29.9984C34.0426 23.9902 38.1853 17.2721 46.8124 16.1065C46.8124 15.937 46.8124 15.7674 46.8124 15.5979C46.8124 11.5713 46.8124 7.54463 46.8124 3.518C46.8124 2.47955 46.2739 1.93914 45.2486 1.93914C31.3188 1.93914 17.389 1.93914 3.45915 1.93914C2.27848 1.93914 1.83314 2.38419 1.83314 3.59218C1.83314 9.36721 1.83314 15.1422 1.83314 20.9173C1.83314 32.6051 1.83314 44.2929 1.83314 55.9913C1.83314 57.0721 2.30955 57.5702 3.37629 57.5702C5.13694 57.5702 6.89758 57.5596 8.65823 57.5808C9.55926 57.5914 10.0564 58.3861 9.59033 59.0643C9.44534 59.2762 9.12428 59.4775 8.87572 59.4775C6.83544 59.4987 4.80552 59.5411 2.76525 59.4563C1.27388 59.361 0 57.8457 0 56.3198C0 38.592 0 20.8643 0 3.12593C0 1.39872 1.36709 0.0105964 3.06559 0.0105964C17.2025 0.0105964 31.3395 0.0105964 45.4764 0C47.1438 0 48.6352 1.4623 48.6145 3.28488C48.5731 7.29031 48.6041 11.3063 48.5938 15.3118C48.5938 15.5237 48.5938 15.725 48.5938 15.9794ZM48.4488 43.7737C55.2221 43.8584 61.1151 38.4331 61.1669 30.7931C61.2083 23.7041 55.7503 18.1198 48.9977 17.9185C41.5305 17.696 35.6582 23.1743 35.5547 30.6024C35.4614 38.0728 41.4062 43.9008 48.4488 43.7737Z" fill="rgb(0,0,0)" fill-rule="nonzero" />
		<path id="Vector" d="M54.8286 60.9186C53.7722 61.3213 52.7158 61.7345 51.6698 62.1372C50.5202 62.5928 50.5202 62.5928 50.5202 63.8856C50.5202 66.3545 50.4995 68.8341 50.5305 71.3031C50.5409 72.5322 50.0541 73.4329 49.0806 74.1005C47.2474 75.3721 45.1761 76.0396 43.0633 76.6118C40.1427 77.396 37.16 77.6503 34.1565 77.449C30.5006 77.2052 26.9586 76.4211 23.6237 74.7999C23.2198 74.6091 22.847 74.3442 22.4741 74.1005C21.4695 73.4329 21.0035 72.5216 21.0242 71.2607C21.076 68.5586 21.0242 65.8565 21.0553 63.1544C21.0553 62.72 20.9103 62.5504 20.5374 62.4127C18.1347 61.512 15.7526 60.5901 13.3602 59.6788C12.8734 59.4987 12.5524 59.202 12.5627 58.651C12.5627 58.0894 12.8942 57.8139 13.3809 57.6443C20.3821 55.2495 27.3936 52.8653 34.3844 50.4282C35.4201 50.0679 36.3418 50.1103 37.3671 50.4706C44.1508 52.8653 50.9551 55.2177 57.7492 57.5807C57.9149 57.6337 58.0702 57.6867 58.2359 57.7503C58.6088 57.888 58.8263 58.1529 58.8573 58.5662C58.8988 59.0218 58.7123 59.3609 58.3188 59.5517C57.9045 59.753 57.4695 59.9225 57.0346 60.0815C56.7756 60.1768 56.6721 60.304 56.6721 60.6113C56.6928 63.2074 56.6721 65.8035 56.6928 68.3996C56.6928 68.5692 56.8171 68.7917 56.9517 68.8977C57.656 69.4911 58.0081 70.2752 58.122 71.1759C58.3602 73.0727 58.5881 74.98 58.8366 76.8768C58.9195 77.5125 58.557 77.9894 57.9252 77.9894C56.5064 78 55.0978 78 53.679 77.9894C53.0783 77.9894 52.7054 77.6079 52.7572 76.9827C52.8401 75.9973 52.9644 75.0224 53.0886 74.0475C53.2129 73.0726 53.389 72.0978 53.4615 71.1229C53.534 70.1904 53.9897 69.5123 54.6318 68.9189C54.7561 68.8023 54.9011 68.6328 54.9011 68.4738C54.9114 66.0049 54.9114 63.5253 54.9114 61.0564C54.87 61.0352 54.8493 61.0034 54.8286 60.9186ZM55.3982 58.7039C55.0771 58.6086 54.87 58.545 54.6629 58.4708C48.6145 56.3727 42.5558 54.2853 36.5179 52.1766C36.0311 52.007 35.6065 52.0176 35.1197 52.1872C30.8838 53.6389 26.6375 55.08 22.3913 56.5211C20.3096 57.2311 18.2175 57.9304 16.0322 58.6722C16.2705 58.7675 16.4051 58.8311 16.5397 58.8841C22.7641 61.2683 28.9885 63.6525 35.2129 66.0578C35.5754 66.1956 35.8757 66.2062 36.2382 66.0578C42.5766 63.6207 48.9356 61.1835 55.3982 58.7039ZM48.687 63.2816C48.511 63.3452 48.3867 63.3876 48.2624 63.4405C44.4097 64.9134 40.557 66.3863 36.7146 67.8804C36.0415 68.1453 35.4408 68.1453 34.7779 67.891C31.847 66.736 28.916 65.6128 25.9747 64.4896C24.9287 64.0869 23.8827 63.6842 22.7848 63.271C22.7848 65.9413 22.8055 68.5374 22.7745 71.1335C22.7641 71.8647 23.023 72.3521 23.5927 72.7124C23.9137 72.9137 24.2451 73.115 24.5869 73.2634C27.87 74.7257 31.3084 75.4992 34.8711 75.6582C37.6571 75.7853 40.4016 75.4145 43.0944 74.7151C44.7929 74.27 46.4396 73.6766 47.931 72.7018C48.3245 72.4475 48.687 72.1402 48.687 71.5892C48.687 68.8341 48.687 66.1002 48.687 63.2816ZM56.8688 76.082C56.7963 75.4462 56.7239 74.8316 56.6514 74.2277C56.5271 73.168 56.4132 72.0978 56.2371 71.0381C56.1957 70.8262 55.8746 70.6567 55.6778 70.4659C55.5225 70.6779 55.2843 70.858 55.2221 71.0911C55.1082 71.515 55.0875 71.96 55.0357 72.3945C54.8907 73.6131 54.7457 74.8317 54.5904 76.0714C55.3568 76.082 56.0817 76.082 56.8688 76.082Z" fill="rgb(0,0,0)" fill-rule="nonzero" />
		<path id="Vector" d="M11.8069 38.6768C13.2879 38.6768 14.7689 38.6768 16.2603 38.6768C16.9749 38.6768 17.3063 39.0053 17.3063 39.7365C17.3167 42.767 17.3167 45.8082 17.3063 48.8388C17.3063 49.5169 16.9128 49.909 16.2396 49.909C13.2258 49.9196 10.2016 49.9196 7.18779 49.909C6.52496 49.909 6.12105 49.4957 6.12105 48.8282C6.11069 45.8082 6.11069 42.7988 6.12105 39.7789C6.12105 39.0583 6.50425 38.6768 7.20851 38.6768C8.7413 38.6662 10.2741 38.6768 11.8069 38.6768ZM15.4939 47.9381C15.4939 45.4585 15.4939 43.0213 15.4939 40.5842C12.9772 40.5842 10.4916 40.5842 8.00597 40.5842C8.00597 43.0425 8.00597 45.4691 8.00597 47.9381C10.5019 47.9381 12.9772 47.9381 15.4939 47.9381Z" fill="rgb(0,0,0)" fill-rule="nonzero" />
		<path id="Vector" d="M11.6838 34.8832C10.2132 34.8832 8.75289 34.8832 7.28223 34.8832C6.43298 34.8832 6.10156 34.5336 6.10156 33.6541C6.10156 30.7294 6.10156 27.7942 6.10156 24.8696C6.10156 24.0431 6.45369 23.6723 7.26152 23.6723C10.2235 23.6617 13.1959 23.6617 16.1579 23.6723C16.9554 23.6723 17.2868 24.0325 17.2868 24.8379C17.2868 27.8048 17.2972 30.7718 17.2868 33.7282C17.2868 34.5653 16.9761 34.8832 16.1683 34.8832C14.6873 34.8832 13.1856 34.8832 11.6838 34.8832ZM15.5262 25.5796C12.9888 25.5796 10.5032 25.5796 8.01756 25.5796C8.01756 28.0804 8.01756 30.5387 8.01756 33.0077C10.5342 33.0077 13.0302 33.0077 15.5262 33.0077C15.5262 30.5175 15.5262 28.0698 15.5262 25.5796Z" fill="rgb(0,0,0)" fill-rule="nonzero" />
		<path id="Vector" d="M7.99684 10.4798C7.99684 12.9699 7.99684 15.3965 7.99684 17.8654C10.4825 17.8654 12.9784 17.8654 15.5365 17.8654C15.5365 16.8588 15.5365 15.8415 15.5365 14.8243C15.5365 14.1461 15.9508 13.7858 16.6033 13.8812C17.0383 13.9448 17.2972 14.2309 17.2972 14.6653C17.3179 16.0641 17.3179 17.4522 17.2972 18.8509C17.2868 19.3913 16.914 19.7304 16.334 19.7304C15.0084 19.741 13.6723 19.741 12.3467 19.741C10.6689 19.741 9.00145 19.741 7.32366 19.741C6.46405 19.741 6.10156 19.3595 6.10156 18.48C6.10156 15.5872 6.10156 12.6944 6.10156 9.791C6.11192 8.94328 6.46405 8.58301 7.30294 8.58301C9.61249 8.58301 11.922 8.58301 14.242 8.58301C14.9773 8.58301 15.3398 8.9009 15.3294 9.52609C15.3191 10.1301 14.9151 10.4692 14.2109 10.4692C12.1499 10.4798 10.0993 10.4798 7.99684 10.4798Z" fill="rgb(0,0,0)" fill-rule="nonzero" />
		<path id="Vector" d="M31.2659 12.0906C28.3557 12.0906 25.4351 12.0906 22.5249 12.0906C22.0485 12.0906 21.7274 11.8574 21.5824 11.423C21.4374 10.9991 21.5617 10.5965 21.9345 10.3633C22.121 10.2362 22.3799 10.1832 22.6077 10.1832C28.4282 10.1726 34.2383 10.1726 40.0485 10.1726C40.7009 10.1726 41.1152 10.5435 41.1152 11.1157C41.1152 11.6879 40.7113 12.08 40.0588 12.08C37.1279 12.0906 34.1969 12.0906 31.2659 12.0906Z" fill="rgb(0,0,0)" fill-rule="nonzero" />
		<path id="Vector" d="M28.6264 47.1326C26.6379 47.1326 24.6598 47.1326 22.6713 47.1326C22.1845 47.1326 21.7806 47.0055 21.5942 46.4969C21.3871 45.9141 21.7081 45.3313 22.3088 45.2359C22.4745 45.2041 22.6506 45.2041 22.8266 45.2041C26.6793 45.2041 30.5217 45.2041 34.3744 45.2041C34.5608 45.2041 34.7576 45.2041 34.944 45.2359C35.4204 45.2995 35.6897 45.5644 35.7311 46.0624C35.7726 46.6028 35.5343 46.9525 35.0372 47.0797C34.8508 47.122 34.6644 47.1326 34.478 47.1326C32.5309 47.1326 30.5735 47.1326 28.6264 47.1326Z" fill="rgb(0,0,0)" fill-rule="nonzero" />
		<path id="Vector" d="M28.666 15.1528C30.6856 15.1528 32.7052 15.1528 34.7247 15.1528C35.3669 15.1528 35.7293 15.4919 35.7293 16.0853C35.7293 16.6575 35.3461 17.0602 34.7455 17.0602C30.6753 17.0708 26.6051 17.0708 22.5349 17.0602C21.9445 17.0602 21.5406 16.6363 21.551 16.0747C21.551 15.5025 21.9342 15.1528 22.5763 15.1528C24.5959 15.1528 26.6361 15.1528 28.666 15.1528Z" fill="rgb(0,0,0)" fill-rule="nonzero" />
		<path id="Vector" d="M12.4086 14.6866C13.4339 13.2349 14.4385 11.8044 15.4535 10.3951C15.8781 9.80168 16.3131 9.20828 16.7688 8.63607C17.1624 8.14864 17.7216 8.07446 18.1359 8.42415C18.5502 8.77383 18.5812 9.33544 18.2291 9.83347C16.6031 12.0799 14.9875 14.3369 13.3614 16.5834C12.885 17.2509 12.274 17.2827 11.7147 16.6787C11.0105 15.9264 10.3062 15.174 9.61231 14.4217C9.1359 13.9131 9.09447 13.3409 9.49838 12.9276C9.9023 12.5038 10.4512 12.5567 10.938 13.076C11.404 13.5952 11.8908 14.125 12.4086 14.6866Z" fill="rgb(0,0,0)" fill-rule="nonzero" />
		<path id="Vector" d="M27.2187 42.2795C25.6652 42.2795 24.1117 42.2795 22.5686 42.2795C22.1025 42.2795 21.7815 42.0676 21.6054 41.6331C21.45 41.2516 21.5432 40.8808 21.8436 40.6264C22.03 40.4781 22.2993 40.3721 22.5375 40.3721C25.6756 40.3509 28.8137 40.3615 31.9518 40.3615C32.5835 40.3615 32.9564 40.7324 32.946 41.3152C32.9357 41.8768 32.5317 42.2689 31.931 42.2689C30.3568 42.2901 28.7826 42.2795 27.2187 42.2795Z" fill="rgb(0,0,0)" fill-rule="nonzero" />
		<path id="Vector" d="M26.359 32.1071C25.1162 32.1071 23.8734 32.1071 22.6306 32.1071C21.9471 32.1071 21.5328 31.7362 21.5432 31.1322C21.5535 30.5494 21.9471 30.1997 22.6203 30.1997C25.1577 30.1997 27.6951 30.1997 30.2325 30.1997C30.9367 30.1997 31.2785 30.507 31.2888 31.1322C31.2888 31.7362 30.8953 32.1071 30.2014 32.1071C28.9172 32.1177 27.6329 32.1071 26.359 32.1071Z" fill="rgb(0,0,0)" fill-rule="nonzero" />
		<path id="Vector" d="M26.4005 27.2433C25.1266 27.2433 23.8424 27.2433 22.5685 27.2433C21.9367 27.2433 21.5535 26.883 21.5432 26.3108C21.5328 25.728 21.9471 25.3359 22.5788 25.3359C25.1369 25.3359 27.6847 25.3359 30.2428 25.3359C30.8953 25.3359 31.2888 25.7068 31.2888 26.3002C31.2888 26.9042 30.916 27.2433 30.2325 27.2433C28.9482 27.2433 27.6743 27.2433 26.4005 27.2433Z" fill="rgb(0,0,0)" fill-rule="nonzero" />
		<path id="Vector" d="M46.2434 34.4488C47.859 32.3083 49.4747 30.1784 51.08 28.0592C52.1674 26.6286 53.2549 25.1875 54.3423 23.757C54.7359 23.2378 55.4298 23.1424 55.9062 23.5133C56.4033 23.9054 56.4447 24.4988 55.989 25.0922C53.0374 28.9493 50.0857 32.8063 47.134 36.6634C46.6162 37.3416 45.8912 37.3522 45.3423 36.6846C43.8406 34.8726 42.3389 33.0501 40.8268 31.2381C40.2054 30.4857 40.2572 29.744 40.9614 29.3837C41.4482 29.1294 41.9246 29.2777 42.3285 29.7652C43.5817 31.2911 44.8348 32.8169 46.088 34.3322C46.1398 34.364 46.1812 34.3958 46.2434 34.4488Z" fill="rgb(0,0,0)" fill-rule="nonzero" />
	</g>
</svg>
