<svg viewBox="0 0 70.9961 53.9746" xmlns="http://www.w3.org/2000/svg" xmlns:xlink="http://www.w3.org/1999/xlink" width="70.996094" height="53.974609" fill="none" customFrame="#000000">
	<g id="Group">
		<path id="Vector" d="M19.549 0.036996C19.1082 0.036996 18.6562 0.116508 18.238 0.241455C16.0454 0.922987 14.8586 2.57002 14.124 4.62597C12.9147 8.03363 11.694 11.4299 10.4621 14.8262C10.4056 14.9852 10.2587 15.0988 10.1569 15.2465C10.0439 15.1329 9.9196 15.0307 9.82918 14.8944C9.26408 14.0197 8.56334 13.2701 7.48964 13.2019C5.82823 13.0997 4.14421 13.0429 2.4941 13.1565C1.37519 13.236 0.651852 14.0652 0.290183 15.1556C-0.0601827 16.2006 -0.082787 17.2684 0.16586 18.3248C0.471018 19.6197 1.25086 20.4602 2.61842 20.5965C3.43218 20.676 4.26853 20.6306 5.09359 20.642C5.67 20.642 6.25771 20.642 6.98105 20.642C6.33682 21.4257 5.80562 22.0505 5.29703 22.6979C3.96338 24.3904 3.12702 26.2419 3.16093 28.4909C3.22874 32.1485 3.16093 35.7947 3.18353 39.4522C3.19483 40.6676 3.38697 41.8489 4.1103 42.8826C4.22333 43.053 4.26853 43.3029 4.26853 43.5187C4.27984 45.1657 4.26853 46.8128 4.27984 48.4598C4.29114 49.1527 4.29114 49.8569 4.42676 50.5385C4.75453 52.265 5.97516 53.5486 7.70438 53.7189C9.3771 53.8893 11.0837 53.8212 12.7677 53.8553C13.8301 53.878 14.7456 53.5145 15.5255 52.7875C16.5879 51.8107 17.006 50.5385 17.0512 49.1527C17.0965 47.8919 17.0625 46.631 17.0625 45.3475C29.4497 45.3475 41.7577 45.3475 54.1335 45.3475C54.1335 46.6424 54.0544 47.8691 54.1675 49.0959C54.2466 49.9478 54.45 50.8565 54.8456 51.6062C55.6932 53.2078 57.1964 53.8553 58.937 53.9461C60.0107 54.0029 61.0844 53.9575 62.1581 53.9575C65.0062 53.9575 67.018 51.9356 67.018 49.0845C67.018 47.233 67.0067 45.3702 67.0293 43.5187C67.0293 43.2574 67.131 42.9735 67.2553 42.7463C67.7413 41.883 68.0352 40.9743 68.0352 39.9634C68.0239 35.9878 67.99 32.0122 68.0465 28.0366C68.0691 26.2192 67.5605 24.6289 66.5094 23.1863C65.8991 22.3458 65.2436 21.5393 64.5089 20.5852C65.786 20.5852 66.9276 20.5852 68.0691 20.5852C69.2897 20.5852 70.0922 19.9491 70.6234 18.87C71.0755 17.9613 71.0189 16.9844 70.9398 16.0416C70.7929 14.3264 69.4706 13.0202 67.7865 13.077C66.6789 13.111 65.56 13.1338 64.4524 13.1451C63.4691 13.1565 62.5762 13.4291 61.7964 14.0652C61.4686 14.3378 61.1183 14.599 60.7566 14.8717C60.4853 14.0879 58.7787 9.54436 58.7109 9.38533C58.0667 7.65879 57.4225 5.90952 56.733 4.16026C55.8515 1.95664 53.7267 -0.0879514 50.5282 0.00291946C46.4255 0.116508 24.6011 0.0256372 19.549 0.036996ZM3.17223 18.5406C2.72014 18.5406 2.34717 18.2452 2.30196 17.7909C2.23415 17.2343 2.24545 16.655 2.32457 16.1098C2.40368 15.5873 2.76535 15.2351 3.34176 15.2351C4.53979 15.2351 5.74911 15.2351 6.94714 15.2806C7.69308 15.3147 7.97563 15.894 8.23558 16.5187C8.43902 17.0071 8.74418 17.4501 8.99283 17.9158C9.08324 18.0862 9.12845 18.2793 9.24147 18.5519C7.11667 18.5406 5.1388 18.5519 3.17223 18.5406ZM14.9038 46.4152C14.8699 47.5397 14.9377 48.687 14.7682 49.8001C14.5761 51.0951 13.6154 51.8107 12.3157 51.822C11.2193 51.8334 10.1343 51.8334 9.03803 51.8334C7.58006 51.822 6.54026 50.9247 6.32552 49.5048C6.29162 49.3004 6.30292 49.0845 6.30292 48.8801C6.30292 47.5624 6.30292 46.2448 6.30292 44.8818C8.56334 45.6882 10.8577 45.2225 13.1068 45.3475C13.6719 45.3815 14.237 45.3475 14.8925 45.3475C14.9151 45.7223 14.9151 46.0744 14.9038 46.4152ZM64.8593 49.5275C64.8141 50.8679 63.7517 51.8334 62.4293 51.8334C61.2087 51.8334 59.9768 51.8447 58.7561 51.8334C57.3095 51.822 56.281 50.7543 56.281 49.3117C56.281 48.085 56.2923 46.8468 56.2923 45.6201C56.2923 45.5633 56.3036 45.5065 56.3149 45.3475C57.7728 45.3475 59.1969 45.3588 60.621 45.3475C62.0337 45.3361 63.4691 45.5065 64.8593 44.9045C64.8706 46.5061 64.9045 48.0168 64.8593 49.5275ZM62.2259 17.416C62.3276 17.0866 62.5762 16.8027 62.7232 16.4846C63.13 15.6213 63.876 15.3033 64.7236 15.2692C65.8087 15.2238 66.8937 15.3033 67.99 15.3147C68.4307 15.3147 68.6003 15.5646 68.7472 15.928C69.0524 16.6777 68.8941 17.416 68.6681 18.1203C68.6116 18.2907 68.2499 18.427 68.0239 18.4497C67.4475 18.4951 66.8597 18.4611 66.272 18.4611C66.272 18.4724 66.272 18.4951 66.272 18.5065C65.1305 18.5065 63.9777 18.5179 62.8362 18.5065C62.5988 18.5065 62.1694 18.4611 62.1581 18.3929C62.1129 18.0749 62.1242 17.7227 62.2259 17.416ZM60.8357 20.233C62.3841 21.7778 63.9777 23.2772 65.1531 25.1514C65.6504 25.9579 65.8765 26.8325 65.8765 27.7753C65.8765 31.7736 65.8426 35.7606 65.8878 39.7589C65.9104 41.5877 64.2377 43.2347 62.4858 43.2234C53.5232 43.1666 44.5493 43.2006 35.5867 43.2006C26.7146 43.2006 17.8424 43.1666 8.97022 43.2234C7.15058 43.2347 5.33093 41.9057 5.31963 39.634C5.29703 35.7379 5.29703 31.8304 5.31963 27.9343C5.33093 26.5486 5.96385 25.39 6.82282 24.3677C8.09996 22.8569 9.42231 21.3803 10.7447 19.915C10.8464 19.8014 11.1176 19.8014 11.3098 19.8014C20.3289 19.8014 29.3593 19.8014 38.3784 19.8014C45.4987 19.8014 52.6191 19.8014 59.7394 19.79C60.1915 19.79 60.5193 19.915 60.8357 20.233ZM48.3242 15.5759C49.4206 15.7463 50.5169 15.9962 51.5906 16.3029C52.2122 16.4846 52.7434 16.9049 52.992 17.6205C49.1041 17.6205 45.2501 17.6205 41.3734 17.6205C41.6447 16.9049 42.2211 16.4619 42.9105 16.2006C44.6624 15.5418 46.482 15.2806 48.3242 15.5759ZM43.8486 10.4417C43.8599 8.59022 45.3518 7.14764 47.2053 7.14764C49.2058 7.14764 50.4604 8.96506 50.4151 10.4417C50.3473 12.4636 48.6068 13.7812 47.1262 13.6563C45.284 13.6563 43.8373 12.2364 43.8486 10.4417ZM50.709 2.18382C52.4834 2.18382 53.7606 2.97894 54.45 4.58054C55.3542 6.68193 56.1566 8.81739 56.9704 10.9529C57.7502 12.9975 58.4962 15.0648 59.2534 17.1094C59.3099 17.2684 59.3551 17.4274 59.4343 17.6319C58.2814 17.6319 57.1738 17.6432 56.0662 17.6091C55.9193 17.6091 55.7611 17.3593 55.6254 17.2116C55.2186 16.7459 54.7778 16.3029 54.4161 15.8031C53.7606 14.9057 52.8903 14.3037 51.8844 13.8948C51.7714 13.8494 51.6584 13.7812 51.4775 13.7017C52.4721 12.2591 52.8112 10.6916 52.393 9.01049C52.1105 7.86325 51.4775 6.9091 50.5621 6.15942C48.7537 4.67141 46.0864 4.55782 44.1199 5.89817C42.8314 6.78416 42.0516 8.01091 41.8142 9.56708C41.5882 11.0778 41.9046 12.4749 42.8088 13.7699C42.5828 13.8834 42.4358 13.9516 42.2889 14.0197C41.396 14.4514 40.6275 15.0307 40.0398 15.8599C39.6329 16.4392 39.1582 16.973 38.6948 17.5069C38.6157 17.5978 38.4349 17.6319 38.2993 17.6319C29.4497 17.6432 20.5888 17.6319 11.6827 17.6319C12.1235 16.4278 12.5643 15.2692 12.9938 14.0993C14.124 11.0664 15.2429 8.02227 16.3844 4.98946C16.8817 3.66047 17.6729 2.6041 19.1308 2.25197C19.3682 2.19518 19.6168 2.18382 19.8542 2.18382C30.1391 2.19518 40.4241 2.19518 50.709 2.18382Z" fill="rgb(26,26,26)" fill-rule="nonzero" />
		<path id="Vector" d="M35.665 28.7751C39.2591 28.7751 42.8645 28.7751 46.4585 28.7751C47.4983 28.7751 47.86 29.2068 47.747 30.2518C47.5888 31.6035 47.2836 32.9211 46.5603 34.0911C45.5431 35.7495 44.0512 36.556 42.1072 36.5446C37.8463 36.5219 33.5967 36.4878 29.3358 36.556C26.3633 36.6014 24.8263 35.0112 24.0916 32.6031C23.8317 31.7398 23.7187 30.8084 23.6282 29.8997C23.5604 29.1386 23.9786 28.7751 24.7584 28.7751C28.3864 28.7751 32.0257 28.7751 35.665 28.7751ZM45.5092 30.956C38.9426 30.956 32.41 30.956 25.7191 30.956C26.0582 31.6489 26.2955 32.3077 26.6798 32.8643C27.3466 33.8185 28.2395 34.3637 29.4827 34.3523C33.6645 34.3183 37.8463 34.341 42.0281 34.3296C42.3559 34.3296 42.7062 34.2615 43.0114 34.1479C44.4468 33.5799 45.1249 32.3986 45.5092 30.956Z" fill="rgb(26,26,26)" fill-rule="nonzero" />
		<path id="Vector" d="M14.5631 35.4086C13.4442 35.3518 12.2914 35.42 11.195 35.2155C8.70858 34.7612 6.77591 32.2963 6.86633 29.8769C6.93414 28.1049 8.65207 26.242 10.4265 26.1625C11.6584 26.1057 12.8904 26.2307 14.1223 26.3102C15.1508 26.3783 16.1793 26.4238 17.1287 26.8895C19.0048 27.8209 20.1689 29.2976 20.5306 31.3762C20.8471 33.2391 19.0952 35.3064 17.2078 35.3291C16.3262 35.3405 15.4333 35.3291 14.5518 35.3291C14.5744 35.3746 14.5631 35.3973 14.5631 35.4086ZM14.4388 33.2505C14.8117 33.2505 15.196 33.2391 15.569 33.2505C15.9419 33.2505 16.3262 33.2505 16.6992 33.2618C17.7503 33.3073 18.6432 32.4667 18.3154 31.3308C17.9537 30.0473 17.1513 29.0818 15.8854 28.8319C14.1788 28.5025 12.427 28.3889 10.6864 28.3434C9.64665 28.3207 8.86681 29.4566 9.03634 30.4448C9.29629 31.9442 10.8108 33.2391 12.3366 33.2505C13.0486 33.2618 13.738 33.2505 14.4388 33.2505Z" fill="rgb(26,26,26)" fill-rule="nonzero" />
		<path id="Vector" d="M56.9693 35.3632C56.0313 35.3632 55.0819 35.3632 54.1438 35.3632C52.2111 35.3632 50.674 33.6253 50.8775 31.6262C51.1261 29.0931 52.8667 27.1508 55.3305 26.5828C56.0539 26.4124 56.8224 26.4465 57.5683 26.3897C58.3369 26.3329 59.1054 26.3329 59.874 26.2421C61.4789 26.0603 62.8125 26.5601 63.7506 27.8891C64.7226 29.2635 64.8017 30.7515 64.0671 32.2623C63.2985 33.8525 61.9536 34.7612 60.3374 35.3064C60.1791 35.3632 59.9983 35.3405 59.8401 35.3405C58.8907 35.3632 57.93 35.3632 56.9693 35.3632ZM55.5566 33.3413C55.5566 33.2959 55.5566 33.2505 55.5566 33.205C56.7772 33.205 57.9978 33.205 59.2185 33.205C60.6086 33.1937 61.931 32.1941 62.3152 30.8538C62.6656 29.6497 61.6371 28.2753 60.4391 28.3662C59.0941 28.457 57.7492 28.5593 56.4042 28.6615C54.7767 28.7751 53.4996 29.8315 53.0701 31.3876C52.8328 32.2395 53.2509 33.0006 54.0986 33.205C54.5733 33.3073 55.0706 33.2959 55.5566 33.3413Z" fill="rgb(26,26,26)" fill-rule="nonzero" />
	</g>
</svg>
