<svg viewBox="0 0 61.0039 83.0017" xmlns="http://www.w3.org/2000/svg" xmlns:xlink="http://www.w3.org/1999/xlink" width="61.003906" height="83.001709" fill="none" customFrame="#000000">
	<g id="Group">
		<path id="Vector" d="M61.003 39.2329C61.003 38.0652 60.1643 36.997 59.0338 36.7254C58.8059 36.6711 58.5598 36.6349 58.3136 36.6349C55.7974 36.6259 53.2721 36.6349 50.6829 36.6349C50.6829 35.5758 50.6829 34.5619 50.6829 33.5571C50.6829 26.1796 50.6829 18.802 50.6829 11.4244C50.6829 9.00746 48.8687 7.22417 46.4254 7.22417C44.985 7.22417 43.5354 7.22417 42.095 7.22417C40.6636 7.22417 39.2414 7.22417 37.8192 7.22417C37.336 5.62193 36.4152 4.95206 34.7378 4.95206C33.9993 4.95206 33.2609 4.95206 32.4859 4.95206C32.5042 3.53991 32.0119 2.37217 31.0455 1.42169C30.0791 0.471202 28.8848 -0.0176193 27.5264 0.0004852C25.3567 0.0276419 22.8496 1.53937 22.6763 4.94301C21.8285 4.94301 20.9897 4.94301 20.1419 4.94301C19.522 4.94301 18.9567 5.13311 18.4371 5.48614C17.8354 5.90255 17.5527 6.5181 17.3795 7.21512C17.2063 7.21512 17.0513 7.21512 16.8963 7.21512C14.2251 7.21512 11.5448 7.26943 8.87362 7.19702C6.41211 7.13365 4.5523 9.1342 4.56141 11.4968C4.58876 27.0395 4.58876 42.5732 4.56141 58.1159C4.56141 60.2794 6.32094 62.3433 8.72775 62.289C11.9642 62.2165 15.2006 62.2709 18.4371 62.2709C18.5921 62.2709 18.7562 62.2709 19.0114 62.2709C18.8747 62.3976 18.82 62.4519 18.7653 62.4972C17.6804 63.3119 16.5864 64.1266 15.4924 64.9322C15.4012 64.9956 15.2736 65.0318 15.1642 65.0499C11.8274 65.7469 8.49072 66.4439 5.14488 67.1228C3.96883 67.3582 2.82923 67.6479 1.83551 68.3811C0.632104 69.2592 -0.0516502 70.3726 0.00305012 71.9024C0.0486337 73.0883 0.0121668 74.2832 0.0121668 75.4781C0.0121668 75.641 0.0212836 75.813 0.0486337 75.9759C0.340369 77.5239 1.74434 78.4201 3.02069 78.3838C4.70728 78.3295 6.39387 78.3748 8.07135 78.3748C8.88274 81.0724 10.6149 82.6927 13.4502 82.9733C14.918 83.1182 16.2582 82.7018 17.4616 81.8327C18.6559 80.9637 19.4034 79.805 19.7681 78.3929C26.87 78.3929 33.9264 78.3929 40.9827 78.3929C41.8579 81.534 44.2283 82.8285 46.1428 82.9552C49.5251 83.1906 51.6493 81.5159 52.6886 78.3748C53.5912 78.3748 54.4755 78.3295 55.3507 78.3838C57.1284 78.4925 58.5689 77.0441 58.5415 75.2156C58.5051 73.2693 58.5051 71.3231 58.5415 69.3769C58.578 67.6841 57.5934 66.3806 56.0527 65.928C55.0134 65.6292 53.9194 65.2943 53.0715 64.6606C51.7313 63.6649 50.5918 62.4157 49.3428 61.2479C50.2453 60.3699 50.6738 59.3379 50.6829 58.143C50.692 57.1744 50.6829 56.2149 50.6829 55.2463C50.6829 54.8752 50.6829 54.504 50.6829 54.0967C50.9017 54.0967 51.0658 54.0967 51.2299 54.0967C53.5273 54.0967 55.8156 54.0967 58.1131 54.0967C59.7814 54.0967 60.9939 52.9108 60.9939 51.2633C61.0122 47.2532 61.003 43.243 61.003 39.2329ZM19.0661 7.9393C19.0661 7.17891 19.4946 6.76251 20.2422 6.76251C21.3088 6.76251 22.3664 6.76251 23.433 6.76251C24.1168 6.76251 24.4268 6.49094 24.4906 5.80297C24.5179 5.44088 24.5088 5.07879 24.5179 4.7167C24.5635 3.12351 26.0039 1.76567 27.6176 1.79283C29.2951 1.81999 30.6808 3.18687 30.6717 4.80722C30.6717 5.12405 30.6535 5.44088 30.6717 5.75771C30.7082 6.42758 31.0637 6.76251 31.7475 6.76251C32.8141 6.76251 33.8717 6.76251 34.9383 6.76251C35.7133 6.76251 36.1053 7.15176 36.1144 7.93025C36.1235 8.74495 36.1144 9.55965 36.1144 10.3744C36.1144 11.2072 35.7041 11.6236 34.8654 11.6236C33.1059 11.6326 31.3463 11.6236 29.5777 11.6236C28.9122 11.6236 28.2375 11.6236 27.572 11.6236C25.2017 11.6236 22.8313 11.6236 20.461 11.6236C19.4126 11.6236 19.0479 11.2524 19.0479 10.2024C19.0661 9.44197 19.0661 8.69064 19.0661 7.9393ZM9.58473 60.5057C9.28388 60.5057 8.97391 60.5147 8.67305 60.5057C7.2782 60.4876 6.31182 59.5099 6.31182 58.134C6.31182 51.1185 6.31182 44.103 6.31182 37.0875C6.31182 28.5603 6.31182 20.0421 6.30271 11.5149C6.30271 10.0756 7.43318 8.98031 8.81892 9.00747C11.481 9.05273 14.134 9.01652 16.7961 9.01652C16.9602 9.01652 17.1243 9.01652 17.3613 9.01652C17.3613 9.54155 17.3522 10.0485 17.3613 10.5554C17.3795 11.9766 18.1636 12.9995 19.5037 13.3163C19.7681 13.3797 20.0416 13.3797 20.3151 13.3797C25.1926 13.3797 30.07 13.3887 34.9475 13.3797C36.7252 13.3797 37.8375 12.2572 37.8375 10.492C37.8375 10.0123 37.8375 9.5325 37.8375 9.00747C38.0289 9.00747 38.1748 9.00747 38.3206 9.00747C41.0739 9.00747 43.818 9.00747 46.5713 9.00747C47.8294 9.00747 48.8778 10.0213 48.8778 11.2615C48.8869 19.6348 48.8778 28.0081 48.8778 36.3814C48.8778 36.4358 48.8687 36.4991 48.8596 36.6168C48.6955 36.6168 48.5314 36.6168 48.3673 36.6168C44.6112 36.6168 40.8642 36.6168 37.1081 36.6168C35.5947 36.6168 34.4278 37.7031 34.4187 39.2057C34.4004 43.2521 34.4004 47.2894 34.4187 51.3357C34.4278 53.0376 35.5674 54.0876 37.2813 54.0876C40.9554 54.0876 44.6385 54.0876 48.3126 54.0876C48.4767 54.0876 48.6408 54.0876 48.8687 54.0876C48.8687 55.6084 48.896 57.0658 48.8596 58.5232C48.8413 59.0845 48.5223 59.5371 48.1576 59.8086C47.1365 59.2293 46.1884 58.65 45.2038 58.143C44.3833 57.7266 43.4807 57.5908 42.569 57.5908C37.8922 57.5908 33.2062 57.5908 28.5293 57.5999C26.3686 57.5999 24.445 58.3422 22.6763 59.5099C22.3117 59.7543 21.9835 60.0531 21.6097 60.2703C21.3909 60.397 21.0992 60.4695 20.8439 60.4695C17.0878 60.5057 13.3408 60.5057 9.58473 60.5057ZM4.11469 69.1506C4.94431 68.9333 5.78305 68.7794 6.61268 68.5984C6.73119 69.7027 5.83775 70.8252 4.67993 70.9248C3.75002 70.9972 2.811 70.9429 1.8264 70.9429C2.33693 70.0015 3.11185 69.4131 4.11469 69.1506ZM13.8878 81.2534C11.5175 81.2534 9.68501 79.4158 9.68501 77.0441C9.68501 74.7086 11.5995 72.8348 13.979 72.8348C16.3129 72.8348 18.1636 74.7267 18.1636 77.0894C18.1544 79.4158 16.2673 81.2624 13.8878 81.2534ZM34.2272 76.6277C29.4318 76.6277 24.6638 76.6277 19.9049 76.6277C19.7955 76.1298 19.7316 75.632 19.5767 75.1703C18.6923 72.5632 16.1397 70.8886 13.3317 71.133C10.7973 71.3593 8.60924 73.2422 8.07135 75.8854C7.91637 76.6458 7.91637 76.6458 7.10498 76.6458C5.76482 76.6458 4.43378 76.6458 3.09362 76.6458C2.21841 76.6458 1.75346 76.1751 1.75346 75.3061C1.75346 74.4823 1.75346 73.6495 1.75346 72.7624C2.61955 72.7624 3.44917 72.7714 4.27879 72.7624C6.22977 72.7443 7.7705 71.5675 8.2628 69.6937C8.38132 69.2501 8.39955 68.7794 8.46337 68.2453C9.48444 68.0371 10.5511 67.8108 11.6269 67.6026C12.7665 67.3763 13.8969 67.1319 15.0456 66.9418C15.5926 66.8513 16.1579 66.8694 16.714 66.8694C19.6314 66.8694 22.5487 66.8694 25.4661 66.8784C28.2011 66.8784 30.9361 66.8784 33.6711 66.8784C33.8534 66.8784 34.0267 66.8784 34.2363 66.8784C34.2272 70.1372 34.2272 73.378 34.2272 76.6277ZM34.2363 65.1676C28.8575 65.1676 23.4968 65.1676 18.0906 65.1676C19.3123 64.2442 20.4974 63.3119 21.7191 62.4519C22.804 61.6825 23.898 60.9311 25.0558 60.2794C26.2136 59.6276 27.5264 59.4013 28.8575 59.3832C30.5258 59.3651 32.1942 59.3741 33.8717 59.3741C33.9902 59.3741 34.1087 59.3832 34.2455 59.3922C34.2363 61.3113 34.2363 63.2032 34.2363 65.1676ZM46.7627 81.2534C44.4197 81.2534 42.5873 79.4067 42.5873 77.0622C42.5873 74.7177 44.4744 72.8348 46.8083 72.8348C49.1422 72.8348 51.002 74.6905 51.0294 76.9988C51.0567 79.7145 48.7319 81.3711 46.7627 81.2534ZM55.5604 67.5845C56.472 67.8923 56.7729 68.2815 56.782 69.2411C56.7911 71.2597 56.7911 73.2874 56.7911 75.3061C56.7911 76.157 56.2897 76.6368 55.4236 76.6368C54.5484 76.6368 53.6641 76.6368 52.7524 76.6368C52.5974 74.8625 51.8225 73.4232 50.4276 72.355C49.3883 71.5494 48.2032 71.0425 46.863 71.133C46.1154 71.1783 45.3405 71.2688 44.6568 71.5313C43.9821 71.7938 43.3257 72.2193 42.797 72.7081C42.2591 73.215 41.7941 73.8487 41.4659 74.5004C41.1377 75.1431 41.0192 75.8854 40.8004 76.6187C39.2779 76.6187 37.6916 76.6187 36.0688 76.6187C36.0688 73.387 36.0688 70.1554 36.0688 66.8694C37.0808 66.8694 38.0471 66.8694 39.0226 66.8694C42.1952 66.8694 45.3679 66.8694 48.5496 66.8694C50.0448 66.8694 50.3912 66.7336 51.5217 65.7469C52.7159 66.6612 54.1382 67.1047 55.5604 67.5845ZM50.063 64.3257C50.1086 64.3619 50.1359 64.4162 50.1724 64.4796C49.9171 64.8779 49.6071 65.1404 49.1148 65.1404C44.8026 65.1404 40.4904 65.1404 36.1873 65.1404C36.16 65.1404 36.1326 65.1314 36.0597 65.1223C36.0597 63.2213 36.0597 61.3204 36.0597 59.4375C38.3753 59.4375 40.6545 59.3832 42.9246 59.4556C44.3377 59.5009 45.5867 60.1526 46.6351 61.085C47.8111 62.126 48.9234 63.2394 50.063 64.3257ZM59.3165 51.2452C59.3165 52.0147 58.9791 52.3677 58.1951 52.4401C58.0766 52.4492 57.9489 52.4492 57.8304 52.4492C51.0841 52.4492 44.3468 52.4492 37.6004 52.4492C37.3725 52.4492 37.1446 52.4311 36.9258 52.3858C36.4791 52.3043 36.1964 52.0418 36.1144 51.5892C36.0779 51.381 36.0597 51.1728 36.0597 50.9646C36.0597 47.226 36.0597 43.4874 36.0597 39.7489C36.0597 38.8346 36.2785 38.4635 36.9167 38.3096C37.0899 38.2643 37.2813 38.2734 37.4546 38.2734C40.8824 38.2734 44.3194 38.2734 47.7473 38.2734C51.1752 38.2734 54.6122 38.2734 58.0401 38.2734C58.9153 38.2734 59.3073 38.6354 59.3073 39.4954C59.3256 43.406 59.3256 47.3256 59.3165 51.2452Z" fill="rgb(0,0,0)" fill-rule="nonzero" />
		<path id="Vector" d="M12.4677 39.8213C15.3395 39.8303 18.2112 39.8303 21.083 39.8122C21.9947 39.8032 22.2682 39.4954 22.2682 38.6083C22.2682 36.9064 22.2682 35.1956 22.2682 33.4938C22.2682 33.4938 22.2682 33.4938 22.2591 33.4938C22.2591 31.7738 22.2317 30.0539 22.2682 28.334C22.2864 27.3654 21.8032 27.0486 20.9827 27.0395C18.1839 27.0305 15.3942 27.0305 12.5953 27.0395C11.7748 27.0395 11.4102 27.4287 11.4102 28.2435C11.4102 30.2983 11.4102 32.3441 11.4102 34.399C11.4102 35.8292 11.4102 37.2685 11.4102 38.6988C11.4193 39.4501 11.7475 39.8213 12.4677 39.8213ZM13.1515 28.7051C15.6403 28.7051 18.1201 28.7051 20.6272 28.7051C20.6272 28.9767 20.6272 29.2482 20.6272 29.5108C20.4175 29.547 20.2078 29.6647 20.0437 29.8638C19.6426 30.3526 19.2597 30.8595 18.8859 31.3665C17.9924 32.5795 17.1172 33.7925 16.2056 35.0326C15.7497 34.5529 15.3303 34.1003 14.9019 33.6567C14.4643 33.2131 13.9902 33.1679 13.6346 33.53C13.2791 33.883 13.3156 34.3718 13.7349 34.8063C14.3549 35.449 14.9748 36.0917 15.5856 36.7345C16.0779 37.2414 16.6158 37.2142 17.0352 36.653C18.2295 35.0417 19.4329 33.4304 20.6272 31.8191C20.6272 33.9464 20.6272 36.0736 20.6272 38.21C18.1565 38.21 15.6768 38.21 13.1515 38.21C13.1515 35.0326 13.1515 31.8825 13.1515 28.7051Z" fill="rgb(0,0,0)" fill-rule="nonzero" />
		<path id="Vector" d="M12.3375 49.6612C15.3551 49.6612 18.3819 49.6612 21.3995 49.6612C24.0525 49.6612 26.7145 49.6612 29.3675 49.6612C29.7778 49.6612 30.188 49.6703 30.5983 49.6612C30.9903 49.6431 31.2638 49.4168 31.355 49.0638C31.4461 48.6927 31.3823 48.3125 31.0085 48.1133C30.7897 47.9956 30.5162 47.9594 30.2701 47.9594C24.3533 47.9504 18.4274 47.9504 12.5107 47.9594C12.3466 47.9594 12.1734 47.9775 12.0184 48.0137C11.6081 48.1043 11.4076 48.3849 11.3893 48.7832C11.3529 49.3444 11.6993 49.6612 12.3375 49.6612Z" fill="rgb(0,0,0)" fill-rule="nonzero" />
		<path id="Vector" d="M12.1818 45.1894C12.3003 45.2075 12.4279 45.2075 12.5465 45.2075C18.4176 45.2075 24.2979 45.2075 30.1691 45.2075C30.397 45.2075 30.634 45.1985 30.8437 45.1351C31.3816 44.9722 31.6004 44.248 31.1993 43.8587C30.9987 43.6687 30.6432 43.5329 30.3605 43.5329C27.352 43.5057 24.3526 43.5148 21.3441 43.5148C19.2199 43.5148 17.0957 43.5148 14.9715 43.5148C14.0781 43.5148 13.1755 43.5057 12.2821 43.5148C11.7442 43.5238 11.416 43.8135 11.3886 44.2752C11.3613 44.8002 11.6257 45.117 12.1818 45.1894Z" fill="rgb(0,0,0)" fill-rule="nonzero" />
		<path id="Vector" d="M29.8167 24.3059C29.8167 24.6227 29.9717 24.7766 30.2908 24.7766C30.4731 24.7766 30.6555 24.7766 30.8378 24.7766C31.1295 24.7766 31.2845 24.6317 31.2845 24.333C31.2845 24.0705 31.2845 23.7989 31.2845 23.5364C32.6338 23.5364 33.9193 23.5364 35.2321 23.5364C35.2321 23.7718 35.2412 23.98 35.2321 24.1882C35.2047 24.6046 35.3779 24.8128 35.8155 24.7766C35.9705 24.7675 36.1164 24.7856 36.2714 24.7675C36.5358 24.7494 36.6816 24.6227 36.6725 24.333C36.6634 23.817 36.6725 23.3101 36.6725 22.7941C36.6725 22.0881 36.6725 22.0881 35.9249 22.0428C35.9249 21.8708 35.9249 21.7169 35.9249 21.5721C35.9249 20.0603 35.9249 18.5577 35.9249 17.046C35.9249 16.53 35.8246 16.4395 35.3141 16.4395C34.1745 16.4395 33.0349 16.4395 31.8953 16.4395C31.476 16.4395 31.2936 16.6114 31.2845 17.0369C31.2754 17.8788 31.2754 18.7297 31.1842 19.5625C31.1113 20.2233 30.9199 20.8841 30.7466 21.5268C30.6828 21.7712 30.5278 21.9523 30.1996 21.9885C30.0629 21.9975 29.8532 22.2781 29.835 22.4411C29.7894 23.0657 29.8167 23.6812 29.8167 24.3059ZM32.7614 17.8335C33.2902 17.8335 33.8007 17.8335 34.3477 17.8335C34.3477 19.2366 34.3477 20.6397 34.3477 22.079C33.5637 22.079 32.807 22.079 32.0047 22.079C32.6703 20.7302 32.6247 19.2819 32.7614 17.8335Z" fill="rgb(0,0,0)" fill-rule="nonzero" />
		<path id="Vector" d="M37.3921 24.2787C37.383 24.6046 37.5471 24.7494 37.857 24.7675C38.0394 24.7766 38.2217 24.7675 38.404 24.7675C38.7049 24.7766 38.8508 24.6227 38.8416 24.324C38.8416 24.0615 38.8416 23.7899 38.8416 23.5274C40.2 23.5274 41.4946 23.5274 42.8348 23.5274C42.8348 23.7446 42.8348 23.9347 42.8348 24.1339C42.8348 24.7042 42.8986 24.7675 43.4547 24.7675C43.5641 24.7675 43.6644 24.7675 43.7738 24.7675C44.1111 24.7856 44.2752 24.6227 44.2752 24.2787C44.2661 23.7989 44.2752 23.3101 44.2752 22.8304C44.2752 22.079 44.2752 22.079 43.5094 22.0247C43.5094 21.8346 43.5094 21.6626 43.5094 21.4997C43.5094 19.9879 43.5094 18.4853 43.5094 16.9736C43.5094 16.7201 43.5003 16.4485 43.1721 16.4395C41.9413 16.4304 40.7106 16.4214 39.4798 16.4485C39.2245 16.4576 38.951 16.5662 38.9419 16.9373C38.9237 17.6344 38.9237 18.3223 38.8416 19.0103C38.7596 19.7707 38.632 20.522 38.4678 21.2734C38.3949 21.6083 38.249 21.9523 37.775 21.9794C37.5288 21.9975 37.3738 22.1967 37.3921 22.4954C37.4103 23.1019 37.4012 23.6994 37.3921 24.2787ZM40.3641 17.8426C40.902 17.8426 41.4034 17.8426 41.9504 17.8426C41.9504 19.2366 41.9504 20.6397 41.9504 22.079C41.212 22.079 40.4644 22.079 39.6439 22.079C40.2912 20.7121 40.2547 19.2819 40.3641 17.8426Z" fill="rgb(0,0,0)" fill-rule="nonzero" />
		<path id="Vector" d="M25.2656 29.3571C25.2656 29.9002 25.6394 30.1989 26.314 30.1989C28.9761 30.1989 31.6291 30.1989 34.2912 30.1989C35.7499 30.1989 37.2085 30.1989 38.6672 30.1989C39.9162 30.1989 41.1561 30.1989 42.4051 30.1989C43.0615 30.1989 43.4444 29.7554 43.3259 29.1489C43.2438 28.7144 42.8791 28.479 42.2865 28.479C36.9715 28.479 31.6564 28.479 26.3323 28.479C25.6303 28.479 25.2656 28.7868 25.2656 29.3571Z" fill="rgb(0,0,0)" fill-rule="nonzero" />
		<path id="Vector" d="M16.9154 23.4548C17.2162 23.6811 18.2556 23.4548 18.4561 23.138C19.1672 22.0336 19.8783 20.9383 20.5894 19.8339C20.7626 19.5714 20.9359 19.3089 21.1638 18.9558C21.1638 20.2413 21.1638 21.3999 21.1638 22.5677C21.1638 23.5182 21.1638 23.5091 22.1393 23.5091C22.4857 23.5091 22.6407 23.4005 22.6407 23.0475C22.6316 20.9926 22.6407 18.9468 22.6316 16.8919C22.6316 16.7743 22.586 16.6113 22.4948 16.5298C22.2396 16.2854 21.2003 16.4393 21.0088 16.738C20.6077 17.3536 20.2065 17.9782 19.8145 18.6028C19.3222 19.3632 18.8299 20.1326 18.2738 21.0016C18.2738 19.7343 18.2829 18.5938 18.2738 17.4532C18.2647 16.3035 18.4379 16.4574 17.2071 16.4393C16.9154 16.4393 16.7969 16.5661 16.7969 16.8467C16.7969 18.9468 16.7969 21.0379 16.806 23.138C16.7969 23.2466 16.8333 23.4005 16.9154 23.4548Z" fill="rgb(0,0,0)" fill-rule="nonzero" />
		<path id="Vector" d="M24.52 23.5093C25.3405 23.5003 26.161 23.5365 26.9815 23.5003C27.8658 23.455 28.6499 23.1563 29.0966 22.3235C29.8442 20.9204 28.8505 19.2457 27.2277 19.1733C26.6624 19.1461 26.0972 19.1733 25.5502 19.1733C25.5502 18.6573 25.5502 18.2681 25.5502 17.8245C26.3251 17.8245 27.0727 17.8245 27.8294 17.8245C28.6681 17.8245 28.659 17.8155 28.659 16.9736C28.659 16.6115 28.5223 16.4486 28.1576 16.4576C26.9451 16.4667 25.7325 16.4667 24.5109 16.4576C24.1736 16.4576 24.0004 16.5934 24.0004 16.9374C24.0004 18.9561 24.0004 20.9747 24.0004 22.9934C23.9912 23.3283 24.1553 23.5093 24.52 23.5093ZM25.5502 20.4225C26.0334 20.4225 26.4892 20.4135 26.9451 20.4225C27.4647 20.4316 27.802 20.7665 27.8203 21.2644C27.8385 21.726 27.5194 22.0881 27.0271 22.1424C26.9177 22.1515 26.8174 22.1515 26.708 22.1515C26.3342 22.1515 25.9513 22.1515 25.5502 22.1515C25.5502 21.5721 25.5502 21.029 25.5502 20.4225Z" fill="rgb(0,0,0)" fill-rule="nonzero" />
		<path id="Vector" d="M25.5491 54.0968C26.0779 54.0696 26.4061 53.6894 26.3696 53.1735C26.3331 52.7209 26.0505 52.4674 25.4944 52.4583C23.2882 52.4493 21.091 52.4583 18.8848 52.4583C18.8848 52.4583 18.8848 52.4583 18.8848 52.4493C17.5355 52.4493 16.1771 52.4493 14.8278 52.4493C13.9435 52.4493 13.0683 52.4402 12.184 52.4583C11.6826 52.4674 11.3999 52.7661 11.3908 53.2459C11.3817 53.7166 11.6735 54.0425 12.1475 54.0968C12.266 54.1058 12.3937 54.1058 12.5122 54.1058C16.4871 54.1058 20.4711 54.1058 24.446 54.1058C24.8198 54.0968 25.1844 54.1149 25.5491 54.0968Z" fill="rgb(0,0,0)" fill-rule="nonzero" />
		<path id="Vector" d="M38.0737 33.0411C35.4025 33.0411 32.7313 33.0411 30.051 33.0411C28.7929 33.0411 27.5256 33.023 26.2675 33.0593C25.9667 33.0683 25.5929 33.2131 25.4106 33.4304C25.2647 33.6114 25.2738 34.0097 25.3559 34.2632C25.4653 34.5981 25.7843 34.7339 26.1581 34.7339C28.1638 34.7249 30.1695 34.7339 32.1752 34.7339C32.1752 34.7339 32.1752 34.7339 32.1752 34.743C32.3393 34.743 32.5125 34.743 32.6766 34.743C34.5273 34.743 36.378 34.743 38.2378 34.7339C38.8121 34.7339 39.1403 34.3809 39.1221 33.8287C39.1039 33.2946 38.7757 33.0411 38.0737 33.0411Z" fill="rgb(0,0,0)" fill-rule="nonzero" />
		<path id="Vector" d="M12.6122 23.5092C13.0225 23.5092 13.141 23.3282 13.141 22.9661C13.1319 21.744 13.141 20.522 13.141 19.2999C13.141 18.8202 13.141 18.3404 13.141 17.8154C13.9159 17.8154 14.6088 17.7972 15.3016 17.8244C15.7119 17.8425 15.8578 17.6796 15.8213 17.2994C15.8122 17.1907 15.8122 17.0912 15.8213 16.9825C15.8669 16.5571 15.6663 16.4304 15.2652 16.4394C14.2623 16.4575 13.2595 16.4485 12.2567 16.4485C11.7097 16.4485 11.6094 16.548 11.6094 17.1183C11.6094 18.9288 11.6094 20.7392 11.6094 22.5497C11.6094 23.5183 11.6185 23.5092 12.6122 23.5092Z" fill="rgb(0,0,0)" fill-rule="nonzero" />
		<path id="Vector" d="M31.6004 68.9695C31.254 68.9514 30.8984 68.9695 30.552 68.9695C30.2147 68.9695 29.8865 68.9604 29.5492 68.9695C28.9839 68.9785 28.6557 69.2682 28.6375 69.757C28.6192 70.282 28.9292 70.6079 29.5127 70.626C30.2056 70.6441 30.9075 70.6441 31.6095 70.617C32.1565 70.5989 32.4847 70.2368 32.4665 69.757C32.4483 69.2953 32.1292 68.9966 31.6004 68.9695Z" fill="rgb(0,0,0)" fill-rule="nonzero" />
		<path id="Vector" d="M46.081 46.2213C45.5796 45.8049 45.0235 45.4518 44.4947 45.0716C46.1175 43.234 45.379 41.143 44.203 40.1834C43.0087 39.2058 41.313 39.3325 40.1916 40.5093C38.9973 41.7585 39.0611 43.75 40.3648 45.1259C40.3375 45.1712 40.3375 45.1893 40.3192 45.1893C40.2737 45.2074 40.2372 45.2165 40.1916 45.2346C38.97 45.7143 38.0765 46.4747 37.9671 47.8597C37.9215 48.4934 37.9398 49.127 37.9489 49.7607C37.958 50.331 38.268 50.6478 38.8606 50.6478C41.2127 50.6569 43.5739 50.6478 45.926 50.6478C46.5368 50.6478 46.8651 50.34 46.8559 49.7335C46.8468 49.0546 46.8286 48.3757 46.7739 47.6968C46.7283 47.1265 46.5277 46.5924 46.081 46.2213ZM41.003 42.2654C41.1853 41.5322 41.86 41.0072 42.4708 41.0796C43.2366 41.1701 43.8201 41.9305 43.811 42.8176C43.7745 43.4784 43.5192 44.0216 42.8902 44.3112C42.3979 44.5375 41.9329 44.4199 41.5409 44.0759C40.9939 43.5871 40.8298 42.9625 41.003 42.2654ZM45.297 49.0003C43.3825 49.0003 41.4588 49.0003 39.5079 49.0003C39.3529 47.6334 39.7175 46.9907 41.003 46.5381C41.9603 46.1941 42.9266 46.176 43.8748 46.5743C45.0691 47.0722 45.4155 47.6515 45.297 49.0003Z" fill="rgb(0,0,0)" fill-rule="nonzero" />
		<path id="Vector" d="M56.1242 45.0444C55.0302 45.0444 53.9361 45.0444 52.8421 45.0444C51.7208 45.0444 50.5994 45.0444 49.469 45.0444C48.8946 45.0444 48.5938 45.3251 48.5938 45.8501C48.5938 46.3751 48.8764 46.6829 49.4416 46.6829C51.6752 46.6919 53.9088 46.6829 56.1333 46.6919C56.7806 46.6919 57.0358 46.2574 57.0632 45.8501C57.0997 45.3794 56.6894 45.0535 56.1242 45.0444Z" fill="rgb(0,0,0)" fill-rule="nonzero" />
		<path id="Vector" d="M49.5538 42.7996C50.6478 42.8087 51.7327 42.7996 52.8267 42.7996C53.9207 42.7996 55.0056 42.8087 56.0996 42.7906C56.3002 42.7906 56.5372 42.7543 56.7013 42.6457C57.0113 42.4375 57.1298 42.1207 57.0204 41.7405C56.8928 41.315 56.5828 41.1521 56.1634 41.1521C53.9663 41.1521 51.7692 41.1521 49.572 41.1521C48.9521 41.1521 48.6148 41.4508 48.6057 41.9759C48.5966 42.528 48.8974 42.7996 49.5538 42.7996Z" fill="rgb(0,0,0)" fill-rule="nonzero" />
		<path id="Vector" d="M53.3555 48.8827C52.7173 48.8736 52.0792 48.8827 51.4501 48.8827L51.4501 48.8917C50.7664 48.8917 50.0826 48.8736 49.408 48.9008C48.8883 48.9189 48.6148 49.2176 48.6057 49.6793C48.5966 50.1862 48.861 50.4849 49.408 50.503C50.739 50.5302 52.0701 50.5392 53.4102 50.5211C54.0028 50.5121 54.3037 50.1772 54.2854 49.6612C54.2581 49.1724 53.9299 48.8827 53.3555 48.8827Z" fill="rgb(0,0,0)" fill-rule="nonzero" />
		<path id="Vector" d="M27.5993 7.10662C28.4472 7.09757 29.0945 6.45486 29.0945 5.62206C29.0945 4.76209 28.4563 4.11938 27.5902 4.11938C26.7515 4.11938 26.0951 4.75304 26.0859 5.58585C26.0859 6.41865 26.7788 7.11568 27.5993 7.10662Z" fill="rgb(0,0,0)" fill-rule="nonzero" />
		<path id="Vector" d="M13.9173 74.5639C12.5315 74.573 11.4102 75.6864 11.4102 77.0533C11.4102 78.4564 12.5042 79.5427 13.899 79.5336C15.2848 79.5246 16.4244 78.4111 16.4244 77.0533C16.4244 75.6864 15.2848 74.5458 13.9173 74.5639ZM13.9173 77.9042C13.4432 77.9133 13.0512 77.5331 13.0512 77.0533C13.0512 76.5735 13.4432 76.1843 13.9081 76.1843C14.364 76.1843 14.7833 76.5916 14.7833 77.0442C14.7833 77.524 14.4004 77.9042 13.9173 77.9042Z" fill="rgb(0,0,0)" fill-rule="nonzero" />
		<path id="Vector" d="M46.8092 74.5638C45.4234 74.5547 44.3203 75.6681 44.3203 77.0622C44.3203 78.4743 45.4234 79.5516 46.8639 79.5425C48.2132 79.5335 49.3345 78.411 49.3345 77.0622C49.3345 75.7134 48.1767 74.5638 46.8092 74.5638ZM46.8365 77.9041C46.3625 77.9131 45.9796 77.542 45.9613 77.0622C45.9522 76.5824 46.326 76.1932 46.8001 76.1841C47.2559 76.1751 47.6753 76.5734 47.6844 77.035C47.7026 77.4876 47.3015 77.895 46.8365 77.9041Z" fill="rgb(0,0,0)" fill-rule="nonzero" />
	</g>
</svg>
