<svg viewBox="0 0 69.0039 71.0007" xmlns="http://www.w3.org/2000/svg" xmlns:xlink="http://www.w3.org/1999/xlink" width="69.003906" height="71.000732" fill="none" customFrame="#000000">
	<g id="Group">
		<g id="Group">
			<path id="Vector" d="M24.8436 58.5671C25.2778 58.0468 25.6598 57.5354 26.094 57.0769C27.5616 55.5338 29.3851 54.7931 31.4779 54.7666C33.5011 54.7402 35.5331 54.7226 37.5564 54.7666C40.1181 54.8195 42.1413 55.9659 43.6697 58.038C43.7999 58.2144 43.9215 58.3907 44.0691 58.5935C44.3383 58.2496 44.5814 57.9322 44.8419 57.6236C46.405 55.7366 48.4109 54.8019 50.8163 54.7578C52.7267 54.7314 54.6371 54.7402 56.5475 54.749C60.2033 54.7755 63.0428 56.9358 63.9893 60.4541C64.1283 60.9831 64.2064 61.5474 64.2151 62.0941C64.2411 64.2368 64.1804 66.3884 64.2411 68.5311C64.2846 69.8184 63.3641 71.0353 61.7837 71C59.1265 70.9471 56.4606 70.9824 53.7948 70.9824C38.3119 70.9824 22.829 70.9824 7.35478 70.9824C7.02481 70.9824 6.67746 71 6.36485 70.9206C5.31414 70.6738 4.66286 69.8449 4.65418 68.7427C4.6455 66.3619 4.60208 63.9811 4.67155 61.6003C4.72365 59.9867 5.40097 58.5759 6.45169 57.3679C7.60661 56.0452 9.02204 55.1723 10.7588 54.8813C11.245 54.8019 11.7313 54.7578 12.2263 54.749C14.1106 54.7314 15.9863 54.7755 17.8706 54.7402C20.7102 54.6873 22.8985 55.8953 24.557 58.1879C24.6525 58.3202 24.7481 58.4348 24.8436 58.5671ZM23.8537 69.0248C23.8537 68.8132 23.8537 68.6545 23.8537 68.4958C23.8537 66.503 23.8537 64.5014 23.8537 62.5086C23.8537 62.147 23.8276 61.7767 23.7668 61.4152C23.3153 58.911 21.0228 56.7418 18.4872 56.7683C16.2294 56.7859 13.9717 56.7683 11.7226 56.7771C11.3927 56.7771 11.0627 56.83 10.7414 56.9093C8.2492 57.5707 6.58194 59.7663 6.58194 62.3851C6.58194 64.3338 6.58194 66.2914 6.58194 68.2401C6.58194 68.9278 6.66878 69.0248 7.35478 69.0248C12.6778 69.0248 18.0009 69.0248 23.324 69.0248C23.4716 69.0248 23.6279 69.0248 23.8537 69.0248ZM45.0504 68.9719C45.1285 68.9984 45.1546 69.016 45.1806 69.016C50.7381 69.016 56.2956 69.016 61.8531 69.0248C62.2179 69.0248 62.3221 68.8309 62.3221 68.4958C62.3134 66.4236 62.3394 64.3515 62.3134 62.2793C62.27 59.2196 59.8212 56.7771 56.8253 56.7683C54.7239 56.7594 52.6311 56.7594 50.5297 56.7683C47.8552 56.7771 45.224 59.1579 45.0764 61.8649C44.9461 64.228 45.0504 66.5912 45.0504 68.9719ZM43.0444 69.0072C43.0444 68.8308 43.0444 68.681 43.0444 68.5399C43.0444 66.4501 43.0444 64.3691 43.0358 62.2793C43.0358 61.9442 43.0097 61.6092 42.9489 61.2741C42.5061 58.9374 40.2744 56.7065 37.6606 56.7594C35.5765 56.7947 33.4925 56.7594 31.4084 56.7683C31.0611 56.7683 30.7137 56.8035 30.375 56.8564C27.9263 57.2532 25.8509 59.6957 25.8422 62.2088C25.8335 64.325 25.8422 66.4413 25.8422 68.5575C25.8422 68.6986 25.8509 68.8397 25.8596 68.9984C31.5908 69.0072 37.2872 69.0072 43.0444 69.0072Z" fill="rgb(26,26,26)" fill-rule="nonzero" />
			<path id="Vector" d="M2.23245 31.4967C2.44954 32.6077 2.65794 33.6923 2.87503 34.821C3.70866 34.821 4.55097 34.821 5.3846 34.821C6.21822 34.821 6.53083 35.1296 6.58294 35.9585C6.73924 38.4009 6.91291 40.8434 7.08659 43.2859C7.12132 43.7356 7.15605 44.1942 7.1821 44.6439C7.22552 45.2435 6.86081 45.7108 6.32243 45.7549C5.70589 45.8078 5.23698 45.4375 5.19356 44.8202C5.09804 43.4447 5.01989 42.0691 4.92437 40.6936C4.83753 39.4238 4.74201 38.1541 4.64649 36.8226C4.44677 36.8226 4.24704 36.8226 4.056 36.8226C3.46552 36.8226 2.86635 36.8314 2.27586 36.8226C1.52039 36.8049 1.21646 36.5845 1.06884 35.8879C0.704129 34.1244 0.356784 32.3608 0.0181232 30.6061C-0.103447 29.9712 0.400202 29.4598 1.12094 29.4422C1.91983 29.4245 2.71004 29.4422 3.50894 29.4334C3.64787 29.4334 3.78681 29.4334 3.96917 29.4334C3.96917 28.9219 3.96917 28.4546 3.96917 27.9873C3.96917 26.647 3.96917 25.3155 3.96917 23.9752C3.96048 20.6774 5.93166 17.5119 9.68299 16.5772C10.5948 16.3479 11.5586 16.2333 12.5052 16.2245C15.4402 16.1804 18.3753 16.2157 21.319 16.2068C23.2121 16.198 24.8359 16.8682 26.1298 18.2261C27.1284 19.2754 28.0228 20.4393 28.9606 21.5592C29.4122 22.0971 29.8463 22.6349 30.2892 23.1728C31.2357 22.4057 32.1388 21.6209 33.094 20.9155C34.1187 20.1572 35.2562 19.8485 36.524 20.263C36.6543 20.3071 36.8801 20.2189 36.9843 20.1219C38.9641 18.1026 40.9353 16.0658 42.8978 14.0377C43.0628 13.8702 43.2191 13.6938 43.3928 13.5351C43.8443 13.1206 44.5043 13.1206 44.869 13.5263C45.2598 13.9583 45.2337 14.5579 44.7908 15.0165C42.7155 17.1415 40.6314 19.2666 38.556 21.3916C38.4779 21.471 38.3823 21.5504 38.391 21.5415C38.5647 22.2558 38.8078 22.8995 38.8773 23.5608C38.9989 24.8041 38.4258 25.774 37.5053 26.5323C35.3865 28.2782 33.2503 30.0065 31.1315 31.7524C30.9926 31.867 30.871 32.0787 30.8363 32.255C30.6365 33.419 30.4716 34.5917 30.2979 35.7556C30.1937 36.4611 29.8463 36.7785 29.0909 36.8049C28.4135 36.8226 27.7275 36.8049 27.0502 36.8049C26.9113 36.8049 26.7637 36.8049 26.6073 36.8049C26.5379 37.8278 26.4684 38.8242 26.3989 39.8118C26.2861 41.5048 26.1732 43.2066 26.0429 44.8996C26.0082 45.4198 25.5219 45.7725 24.9575 45.7284C24.4364 45.6932 24.037 45.2258 24.0804 44.6703C24.2367 42.4659 24.4017 40.2527 24.5667 38.0482C24.6275 37.2547 24.6535 36.4699 24.7404 35.6851C24.8098 35.0767 25.1659 34.8033 25.7737 34.8033C26.6508 34.7945 27.5365 34.8033 28.4483 34.8033C28.6133 33.6923 28.7783 32.5989 28.9519 31.4791C19.9991 31.4967 11.1245 31.4967 2.23245 31.4967ZM22.6389 29.4157C22.6389 29.2129 22.6389 29.0454 22.6389 28.8867C22.6389 27.5376 22.6389 26.1796 22.6389 24.8305C22.6389 24.3544 22.8126 23.9752 23.2642 23.7812C23.6983 23.5961 24.0804 23.6931 24.4712 24.0987C24.558 24.1957 24.6535 24.2838 24.7404 24.3896C25.9908 25.8887 27.2586 27.3788 28.4917 28.8955C28.813 29.2835 29.1343 29.5215 29.6553 29.4422C29.829 29.4157 30.0461 29.4422 30.2024 29.5215C30.4716 29.6538 30.6279 29.5304 30.8189 29.3805C31.9304 28.4634 33.0506 27.564 34.1621 26.647C34.8828 26.0562 35.6036 25.4742 36.3069 24.8658C36.7324 24.4955 36.9756 24.0017 36.854 23.4197C36.5848 22.1059 35.2389 21.7179 34.1621 22.6173C33.0766 23.5343 31.9738 24.4426 30.871 25.342C30.2805 25.8269 29.69 25.774 29.1951 25.1832C28.7696 24.6718 28.3701 24.1251 27.9446 23.6049C26.8765 22.291 25.8345 20.9596 24.7317 19.681C23.9154 18.7287 22.8387 18.2966 21.5795 18.2966C18.4274 18.3054 15.2666 18.2966 12.1144 18.3143C11.5413 18.3143 10.9595 18.376 10.4037 18.4994C7.72917 19.0638 5.88825 21.2594 5.94903 24.0105C5.98377 25.6682 5.95772 27.3348 5.95772 28.9925C5.95772 29.1336 5.95772 29.2746 5.95772 29.4069C6.94765 29.4069 7.86811 29.4069 8.82331 29.4069C8.82331 29.2306 8.82331 29.0718 8.82331 28.9131C8.82331 27.5464 8.82331 26.1796 8.82331 24.8129C8.82331 24.1163 9.21407 23.6931 9.83061 23.6931C10.4385 23.6931 10.8205 24.1251 10.8205 24.8217C10.8205 26.1885 10.8205 27.5552 10.8205 28.9219C10.8205 29.0807 10.8205 29.2306 10.8205 29.4069C14.7803 29.4157 18.6879 29.4157 22.6389 29.4157ZM26.2861 29.4245C25.7303 28.7632 25.2267 28.1548 24.6709 27.4935C24.6709 28.1901 24.6709 28.8073 24.6709 29.4245C25.2093 29.4245 25.7043 29.4245 26.2861 29.4245Z" fill="rgb(26,26,26)" fill-rule="nonzero" />
			<path id="Vector" d="M66.9791 33.4984C66.9791 23.0053 66.9791 12.5652 66.9791 2.08979C54.1708 2.08979 41.3885 2.08979 28.5367 2.08979C28.5367 2.26614 28.5367 2.43368 28.5367 2.61003C28.5367 6.33992 28.5367 10.0786 28.5367 13.8085C28.5367 14.5756 28.1373 15.0077 27.4513 14.9812C27.0084 14.9636 26.6263 14.6462 26.5395 14.2053C26.5048 14.0466 26.4961 13.8879 26.4961 13.7203C26.4961 9.77881 26.4961 5.84613 26.4961 1.90462C26.4961 0.969945 26.8695 0.37916 27.625 0.132265C27.9115 0.0440884 28.2241 0.00881768 28.5194 0.00881768C41.3624 0 54.1968 0 67.0312 0C68.2903 0 68.9937 0.705415 68.9937 1.98398C68.9937 12.5476 68.9937 23.1111 69.0024 33.6747C69.0024 34.7769 68.3077 35.5882 66.9704 35.5882C59.572 35.5705 52.1822 35.5794 44.7838 35.5794C41.5274 35.5794 38.2711 35.5794 35.0147 35.5794C34.5545 35.5794 34.1116 35.5265 33.8337 35.0856C33.4169 34.4066 33.8251 33.6042 34.6413 33.5072C34.815 33.4896 34.9887 33.4984 35.1623 33.4984C45.5914 33.4984 56.0291 33.4984 66.4581 33.4984C66.6231 33.4984 66.7794 33.4984 66.9791 33.4984Z" fill="rgb(26,26,26)" fill-rule="nonzero" />
			<path id="Vector" d="M23.796 7.79472C23.8133 11.9038 20.5049 15.2898 16.4496 15.2192C12.2381 15.1399 9.34644 11.604 9.32038 7.75063C9.30302 3.87967 12.4031 0.193876 16.8491 0.343777C20.7914 0.476042 23.8568 3.83558 23.796 7.79472ZM21.7727 7.80354C21.8422 4.95543 19.5497 2.48647 16.658 2.4512C13.7924 2.42475 11.4045 4.78789 11.3437 7.57428C11.2742 10.7398 13.6535 13.0501 16.4583 13.1206C19.4107 13.2 21.8595 10.6781 21.7727 7.80354Z" fill="rgb(26,26,26)" fill-rule="nonzero" />
			<path id="Vector" d="M40.4478 47.6685C40.5173 50.8076 37.9903 53.7615 34.5169 53.7439C31.0608 53.7263 28.5078 50.9311 28.5078 47.6068C28.5165 44.2296 31.1997 41.5667 34.5342 41.5579C37.8774 41.5579 40.552 44.5294 40.4478 47.6685ZM38.4592 47.7302C38.4679 45.4641 36.6965 43.5859 34.5256 43.5683C32.3633 43.5507 30.4964 45.4641 30.505 47.695C30.5137 49.9082 32.3026 51.7423 34.4474 51.7423C36.653 51.7511 38.4506 49.9523 38.4592 47.7302Z" fill="rgb(26,26,26)" fill-rule="nonzero" />
			<path id="Vector" d="M21.2078 47.6685C21.1817 51.125 18.4464 53.8232 15.1293 53.7527C11.7947 53.6822 9.03336 50.8693 9.26782 47.1923C9.46754 44.1062 12.0813 41.5314 15.2595 41.5843C18.5767 41.6284 21.2686 44.3971 21.2078 47.6685ZM15.2335 51.7423C17.4044 51.7511 19.2453 49.8729 19.2453 47.6509C19.2453 45.4553 17.413 43.5771 15.2595 43.5683C13.1407 43.5595 11.3172 45.3935 11.2477 47.4833C11.1782 49.6701 12.9323 51.7158 15.2335 51.7423Z" fill="rgb(26,26,26)" fill-rule="nonzero" />
			<path id="Vector" d="M47.8057 47.6596C47.7883 44.2912 50.4195 41.6106 53.78 41.5842C56.9582 41.5577 59.7023 44.3088 59.7196 47.5449C59.737 50.8427 57.2622 53.7085 53.8408 53.7526C50.4108 53.7878 47.7449 50.8956 47.8057 47.6596ZM57.7224 47.7213C57.7224 45.4287 55.9162 43.5593 53.7279 43.577C51.5831 43.6034 49.7422 45.4992 49.7595 47.6772C49.7682 49.8993 51.5744 51.7421 53.7453 51.7421C55.9075 51.7421 57.7224 49.8993 57.7224 47.7213Z" fill="rgb(26,26,26)" fill-rule="nonzero" />
			<path id="Vector" d="M53.395 22.9966C56.1303 22.9966 58.8657 22.9966 61.601 22.9966C62.0699 22.9966 62.3739 23.2258 62.5389 23.6403C62.6865 24.0194 62.6431 24.4427 62.3131 24.6808C62.0526 24.8748 61.6879 25.007 61.3666 25.007C58.4141 25.0335 55.4617 25.0247 52.5093 25.0247C50.1473 25.0247 47.7941 25.0335 45.4321 25.0158C45.1195 25.0158 44.7722 24.9012 44.5117 24.7248C44.1643 24.4868 44.0688 24.09 44.2251 23.6667C44.3814 23.2435 44.6767 23.0054 45.1369 23.0054C47.8983 22.9966 50.6423 22.9966 53.395 22.9966Z" fill="rgb(26,26,26)" fill-rule="nonzero" />
			<path id="Vector" d="M51.0183 27.2202C52.9721 27.2202 54.9172 27.2114 56.8711 27.2202C57.4008 27.2202 57.7047 27.4759 57.8349 27.9874C57.9391 28.3842 57.8002 28.8515 57.4268 29.0455C57.1837 29.1778 56.8797 29.2395 56.6019 29.2395C52.92 29.2483 49.2295 29.2483 45.5476 29.2483C45.3479 29.2483 45.1482 29.2307 44.9484 29.1866C44.5143 29.1072 44.2711 28.7898 44.193 28.3842C44.1148 27.9786 44.2538 27.5994 44.6098 27.3966C44.8356 27.2643 45.1221 27.2202 45.3826 27.2202C47.2583 27.2114 49.134 27.2114 51.0183 27.2202Z" fill="rgb(26,26,26)" fill-rule="nonzero" />
		</g>
		<g id="Group">
			<path id="Vector" d="M64.4873 11.6129C64.8433 11.2778 64.9649 10.8369 64.8346 10.3432C64.7131 9.85818 64.3049 9.73474 63.9749 9.69065C63.8968 9.68183 63.81 9.67301 63.7231 9.68183C63.3584 9.69947 63.0024 9.70828 62.629 9.72592L62.2643 9.74355C62.2035 9.5672 62.1427 9.39085 62.0732 9.21449C61.9256 8.79124 61.7693 8.35036 61.613 7.91829C61.2396 6.87781 60.2844 6.18121 59.2337 6.17239L58.2698 6.17239C56.6807 6.16357 55.0395 6.15476 53.4244 6.18121C52.2955 6.19884 51.4705 6.77199 51.045 7.83012C50.854 8.28864 50.6977 8.76479 50.5501 9.23213L50.4546 9.51429C50.4111 9.64656 50.3677 9.67301 50.2375 9.67301C49.812 9.6642 49.3517 9.6642 48.7873 9.67301C48.1881 9.68183 47.7974 9.98163 47.7192 10.4842C47.6497 10.9604 47.8061 11.3484 48.1708 11.6217C48.3097 11.7275 48.4573 11.8245 48.6049 11.9127C48.6571 11.948 48.7091 11.9832 48.7699 12.0185C48.7526 12.045 48.7439 12.0626 48.7265 12.0802C48.3184 12.5917 48.11 13.2001 48.11 13.879C48.11 14.2141 48.11 14.5404 48.11 14.8754C48.11 15.4486 48.11 16.0394 48.1187 16.6302C48.1273 16.93 48.1708 17.1416 48.2663 17.3003C48.4747 17.6354 48.4834 17.9881 48.4747 18.3496C48.4747 18.4202 48.4747 18.4907 48.4834 18.5612C48.4921 18.6406 48.4921 18.72 48.4921 18.7993C48.4573 19.3372 49.0565 20.0162 49.5949 20.0514C50.333 20.1043 50.9235 20.1043 51.4619 20.0691C52.035 20.025 52.5039 19.5753 52.6341 18.9492C52.6689 18.7905 52.6776 18.623 52.6862 18.4554C52.6862 18.3937 52.6949 18.332 52.6949 18.2791L60.0152 18.2791L60.0152 18.4113C60.0152 18.5348 60.0152 18.6582 60.0152 18.7729C60.0239 19.3989 60.5362 19.9897 61.1094 20.0426C61.4654 20.0779 61.8388 20.0955 62.2122 20.0955C62.4206 20.0955 62.6203 20.0867 62.8287 20.0779C63.2021 20.0602 63.5494 19.8839 63.8013 19.5841C64.0444 19.3019 64.166 18.9316 64.1399 18.5965C64.1226 18.3849 64.1226 18.1644 64.1312 17.9528C64.1312 17.8999 64.1312 17.8558 64.1399 17.8029C64.1399 17.7147 64.1573 17.6442 64.192 17.6001C64.4178 17.2915 64.5307 16.93 64.5307 16.4979C64.5307 16.3127 64.5307 16.1187 64.5307 15.9336C64.5307 15.4398 64.522 14.9284 64.5394 14.4257C64.5567 13.7027 64.496 12.7857 63.8794 12.0362C63.9402 12.0009 63.9923 11.9656 64.0531 11.9215C64.2007 11.8333 64.357 11.7364 64.4873 11.6129ZM51.1666 10.6253L51.2274 10.4578C51.2795 10.2991 51.3316 10.158 51.3837 10.0081C51.4532 9.82291 51.5226 9.62892 51.5921 9.44375C51.731 9.05577 51.8787 8.65898 52.0089 8.26218C52.1913 7.68903 52.7905 7.2746 53.433 7.2746C55.2132 7.25697 57.1149 7.25697 59.2337 7.2746C59.885 7.2746 60.3539 7.60086 60.5883 8.20046C60.8054 8.76479 61.0052 9.32912 61.2136 9.92873C61.2917 10.1668 61.3785 10.3961 61.4654 10.6341L51.1666 10.6341L51.1666 10.6253ZM49.1694 13.8261C49.1607 13.3235 49.3952 12.7945 49.812 12.38C50.2114 11.9744 50.7064 11.7452 51.1753 11.7452L51.184 11.7452C53.2767 11.7628 55.4042 11.754 57.4622 11.754C58.7821 11.754 60.1455 11.754 61.4914 11.754C62.3685 11.754 63.1934 12.477 63.4105 13.4382C63.4539 13.641 63.48 13.835 63.48 14.0201C63.4887 14.6726 63.48 15.3428 63.48 15.9865L63.48 16.5155C63.48 16.5596 63.4713 16.5949 63.4713 16.639L63.4626 16.6831C63.4279 17.0181 63.2542 17.1769 62.9242 17.1769L56.2813 17.1769L49.7164 17.1769C49.3083 17.1769 49.1694 17.0358 49.1694 16.6213C49.1694 16.2598 49.1694 15.9071 49.1694 15.5456C49.1781 14.9813 49.1781 14.3993 49.1694 13.8261ZM63.0458 11.2073C62.9242 11.1456 62.82 11.0309 62.7158 10.9075C62.6811 10.8634 62.6377 10.8193 62.5942 10.7752L62.6116 10.74L63.8273 10.74C63.7144 10.8987 63.4279 11.1103 63.2108 11.1897C63.1413 11.2161 63.0718 11.2249 63.0458 11.2073ZM50.0377 10.74L49.6383 11.3043L48.7265 10.7576L48.7352 10.74L50.0377 10.74ZM51.5574 18.9316C51.4705 19.0198 51.2795 19.0198 50.9582 19.0109C50.8366 19.0109 50.7238 19.0021 50.6022 19.0021C50.5153 19.0021 50.4198 19.0021 50.333 19.0021C50.2114 19.0021 50.0898 19.0021 49.977 19.0021C49.6296 19.0021 49.5254 18.8963 49.5254 18.5436L49.5254 18.2526L51.6355 18.2526C51.6529 18.6318 51.6442 18.8434 51.5574 18.9316ZM61.804 19.0109C61.6998 19.0109 61.6043 19.0109 61.5001 19.0109C61.1267 19.0109 61.0312 18.9139 61.0225 18.5436C61.0225 18.4731 61.0225 18.4113 61.0225 18.3408L61.0225 18.2703L63.1066 18.2703C63.124 18.5789 63.1326 18.7905 63.0197 18.9051C62.9242 19.0021 62.7332 19.0374 62.3858 19.0198C62.2816 19.0109 62.1688 19.0109 62.0646 19.0109C61.9777 19.0109 61.8909 19.0109 61.804 19.0109Z" fill="rgb(26,26,26)" fill-rule="nonzero" />
			<path id="Vector" d="M51.1652 15.8543C51.3042 15.8543 51.4431 15.8543 51.582 15.8543L51.7557 15.8543C51.8339 15.8543 51.9033 15.8543 51.9815 15.8543C52.0509 15.8543 52.1204 15.8543 52.1986 15.8543C52.2854 15.8543 52.3809 15.8543 52.4678 15.8543C52.8846 15.8455 53.3535 15.4575 53.3969 15.0872C53.4664 14.4787 53.3188 13.9673 52.9367 13.5882C52.2941 12.9356 51.4605 12.9709 50.8873 13.0503C50.1492 13.1561 49.7411 13.7821 49.8279 14.6815C49.8887 15.2988 50.5053 15.8455 51.1652 15.8543ZM50.896 14.2759C50.9221 14.1966 51.0263 14.0996 51.0871 14.0996C51.1826 14.0908 51.2694 14.0908 51.3476 14.0908C51.5299 14.0908 51.6862 14.1084 51.8252 14.1349C52.2159 14.2142 52.3462 14.3729 52.3722 14.8403C52.2507 14.8314 52.1378 14.8314 52.0249 14.8226C51.721 14.8138 51.4344 14.7962 51.1392 14.7609C51.0263 14.7433 50.9481 14.6992 50.896 14.6198C50.8526 14.5228 50.8439 14.4082 50.896 14.2759Z" fill="rgb(26,26,26)" fill-rule="nonzero" />
			<path id="Vector" d="M60.2237 15.8719C60.2585 15.8719 60.2845 15.8719 60.3192 15.8719C60.4321 15.8631 60.545 15.8631 60.6492 15.8719C60.7013 15.8719 60.7534 15.8719 60.8055 15.8719L60.849 15.8719C60.9011 15.8719 60.9532 15.8719 61.0053 15.8719C61.1616 15.8719 61.3179 15.8807 61.4742 15.8631C61.6999 15.8366 61.891 15.7749 62.0473 15.6955C62.5944 15.3957 62.8809 14.8314 62.7941 14.223C62.7072 13.6057 62.3252 13.1737 61.7694 13.059C61.5523 13.015 61.3265 13.0238 61.1008 13.0326L61.0747 13.0326C60.0761 13.0679 59.4248 13.5969 59.2338 14.514C59.1209 15.0518 59.2772 15.3693 59.4335 15.5456C59.6332 15.7573 59.9111 15.8719 60.2237 15.8719ZM60.2585 14.8138C60.3106 14.2406 60.6058 14.1083 61.0921 14.0731C61.1702 14.0643 61.2397 14.0731 61.3179 14.0731C61.3526 14.0731 61.396 14.0731 61.4308 14.0731C61.6131 14.0731 61.726 14.0819 61.7607 14.2671C61.8041 14.4875 61.7173 14.6639 61.5436 14.7344C61.4308 14.7785 61.2918 14.8049 61.1529 14.8138C60.9358 14.8226 60.7187 14.8226 60.4929 14.8226C60.4148 14.8138 60.3366 14.8138 60.2585 14.8138Z" fill="rgb(26,26,26)" fill-rule="nonzero" />
			<path id="Vector" d="M54.4927 14.7079C54.5535 14.7167 54.6143 14.7343 54.6751 14.7343L55.2916 14.7343C55.83 14.7343 56.3771 14.7343 56.9241 14.7343C57.2802 14.7343 57.6362 14.7343 57.9922 14.7343C58.1746 14.7343 58.3135 14.6814 58.4177 14.5756C58.5133 14.4786 58.5567 14.3464 58.5567 14.1965C58.548 13.8878 58.3309 13.6938 57.9836 13.6938C57.5928 13.6938 57.202 13.6938 56.8113 13.6938L56.3163 13.6938C56.1513 13.6938 55.9776 13.6938 55.8126 13.6938C55.4045 13.6938 54.9877 13.6938 54.5796 13.6938C54.2843 13.6938 54.0933 13.8526 54.0759 14.1083C54.0238 14.4257 54.1888 14.6462 54.4927 14.7079Z" fill="rgb(26,26,26)" fill-rule="nonzero" />
		</g>
	</g>
</svg>
