<svg viewBox="0 0 77.0039 78.0112" xmlns="http://www.w3.org/2000/svg" xmlns:xlink="http://www.w3.org/1999/xlink" width="77.003906" height="78.011230" fill="none" customFrame="#000000">
	<g id="Group">
		<path id="Vector" d="M59.0972 26.2494C59.8896 25.7734 60.6015 25.3371 61.3402 24.914C62.5087 24.2396 63.2743 24.6892 63.328 26.0379C63.4354 28.8279 62.9385 31.4988 61.9446 34.1037C61.8103 34.4474 61.6894 34.7912 61.4879 35.3201C62.925 34.7516 64.201 34.1962 65.5038 33.7334C66.8872 33.2442 68.2706 32.755 69.6943 32.3979C70.9031 32.0938 71.4135 32.5566 71.3732 33.7995C71.306 35.7565 70.7419 37.5944 69.8152 39.3398C69.5734 39.7894 69.3316 40.2257 69.0496 40.7414C69.936 40.8075 70.7688 40.8207 71.5881 40.9397C71.991 41.0058 72.5148 41.1777 72.6894 41.4686C72.8371 41.7199 72.676 42.2884 72.4745 42.5926C70.4733 45.5809 68.1094 48.2254 64.9666 50.1162C62.1998 51.769 59.1912 52.6285 55.9678 52.8268C55.8066 52.8401 55.6589 52.8401 55.4977 52.8533C55.4843 52.8533 55.4708 52.8797 55.444 52.9062C55.3365 54.2284 55.3365 55.5771 55.0948 56.8862C54.759 58.7109 54.3023 60.5224 53.792 62.3074C53.5099 63.2991 52.5966 63.5503 52.0459 62.8628C51.8445 62.6115 51.7773 62.1223 51.8445 61.7917C52.3548 59.4513 52.9324 57.1374 53.4428 54.8102C53.5771 54.1888 53.5771 53.5541 53.6308 52.9855C52.0056 52.6946 50.4073 52.5095 48.8628 52.126C45.1021 51.1872 42.0533 49.0584 39.5282 46.2288C38.4537 45.0255 37.5539 43.6768 36.6137 42.3678C36.0227 41.5347 36.3182 40.9397 37.3524 40.834C37.9568 40.7678 38.5612 40.8075 39.1656 40.7943C39.4073 40.7943 39.6357 40.7546 39.9849 40.7282C39.5282 39.7365 39.0313 38.877 38.7358 37.9514C38.2657 36.4705 37.8896 34.9631 37.5539 33.4425C37.3927 32.7021 37.7956 32.3318 38.5612 32.3186C40.1192 32.3186 41.5026 32.9797 42.9128 33.5086C44.3903 34.064 45.8139 34.7251 47.3719 35.3863C47.1436 34.5532 46.9421 33.7599 46.7004 32.9665C46.0154 30.7451 45.6393 28.4841 45.7065 26.1437C45.7468 24.9007 46.4721 24.3983 47.6003 24.9536C48.3927 25.3503 49.1448 25.7999 49.9373 26.2494C50.7163 23.671 51.7236 21.1984 53.3353 19.0035C54.0874 17.9721 54.7859 17.9457 55.538 18.9506C56.9751 20.8811 57.9556 23.0364 58.7346 25.2974C58.8554 25.5883 58.9763 25.8924 59.0972 26.2494ZM55.2291 46.956C55.4977 46.7841 55.6589 46.6916 55.8066 46.5593C57.6198 44.9594 59.433 43.3595 61.2462 41.7595C61.5014 41.5347 61.7163 41.2703 61.9849 41.0852C62.4684 40.7546 62.9788 40.8075 63.3817 41.2306C63.7712 41.6405 63.6638 42.0901 63.3414 42.4868C63.1265 42.7644 62.8848 43.0289 62.6161 43.2669C60.4672 45.1048 58.3719 46.9957 56.129 48.7146C55.2291 49.4154 55.2022 50.1294 55.3097 51.0286C60.3463 51.3723 69.3719 46.242 70.1106 42.6058C69.4794 42.6058 68.8616 42.6058 68.2303 42.6058C67.599 42.6058 67.2095 42.3017 66.9544 41.7331C66.6723 41.0984 66.8872 40.5695 67.1558 40.0406C67.6662 39.0621 68.2437 38.1233 68.7272 37.1316C69.1436 36.2854 69.4525 35.4127 69.4928 34.4342C67.9885 34.6722 63.2071 36.4705 61.5685 37.3961C61.0313 37.7002 60.4672 37.9514 59.8896 37.5415C59.2718 37.1184 59.3255 36.5102 59.5001 35.8755C60.118 33.6805 60.7761 31.4988 61.3402 29.2906C61.5148 28.5898 61.4879 27.8362 61.5551 26.9502C60.897 27.4527 60.4672 27.8494 59.9702 28.1403C58.8957 28.7485 57.9421 28.3915 57.4989 27.2676C57.19 26.4875 56.8945 25.7073 56.5319 24.9536C55.8872 23.5917 55.2022 22.243 54.4635 20.7356C54.2218 21.1455 54.074 21.3439 53.98 21.5554C53.1204 23.5124 52.2474 25.4561 51.4281 27.4263C50.8909 28.7221 50.2327 28.9469 49.0777 28.1403C48.6076 27.8229 48.1644 27.4659 47.5868 27.0428C47.5868 27.413 47.5868 27.6246 47.5868 27.8362C47.6406 29.9914 48.2584 32.0277 48.8225 34.0772C49.0105 34.778 49.2388 35.4656 49.4134 36.1664C49.5343 36.6688 49.5478 37.211 49.0642 37.5548C48.5673 37.9118 48.0166 37.9118 47.4928 37.6076C47.4391 37.5812 47.3719 37.5415 47.3182 37.5151C45.9885 36.8936 44.6723 36.2325 43.3158 35.6771C42.201 35.2276 41.0191 34.897 39.7297 34.4739C39.8103 34.9102 39.8237 35.2011 39.9177 35.4524C40.2401 36.2986 40.5758 37.1316 40.9385 37.9514C41.3145 38.8109 41.7443 39.6571 42.1204 40.5298C42.5233 41.4686 41.8652 42.6983 40.6296 42.5529C40.0923 42.4868 39.5417 42.5397 38.9641 42.5397C42.201 47.4056 48.4061 51.1872 53.6039 50.9757C53.8323 50.0501 53.6039 49.389 52.7712 48.7278C50.676 47.075 48.6882 45.3032 46.687 43.5314C46.2572 43.1611 45.9214 42.6719 45.6393 42.1694C45.2498 41.4686 45.7334 40.7943 46.5392 40.9133C46.8481 40.9662 47.157 41.2174 47.4122 41.429C49.4269 43.1611 51.4415 44.9197 53.4562 46.6519C53.4965 46.6916 53.5771 46.6783 53.6442 46.6916C53.6576 46.6122 53.6845 46.5461 53.6845 46.4932C53.6174 43.2272 53.5502 39.9745 53.4965 36.7085C53.4696 34.8309 53.4428 32.9665 53.4428 31.0889C53.4428 30.5071 53.8591 30.084 54.3561 30.0576C54.8664 30.0311 55.3231 30.4807 55.3634 31.0757C55.3903 31.4988 55.3903 31.9087 55.3903 32.3318C55.3231 36.9201 55.2559 41.4951 55.1888 46.0833C55.2291 46.3345 55.2291 46.5858 55.2291 46.956Z" fill="rgb(0,0,0)" fill-rule="nonzero" />
		<path id="Vector" d="M74.8523 40.477C74.9866 26.3817 66.0416 13.3972 53.3895 8.10812C48.7424 6.15118 43.8804 5.26527 38.8169 5.51649C38.4811 5.52972 38.1453 5.58261 37.8096 5.62228C37.0709 5.70161 36.5605 5.35782 36.5068 4.72314C36.4396 4.03557 36.8425 3.586 37.6081 3.53311C47.1978 2.87198 55.6997 5.56939 63.127 11.546C70.326 17.3507 74.5568 24.9008 76.3834 33.7996C77.0684 37.1185 77.1221 40.477 76.8535 43.862C76.1014 52.9062 72.4482 60.6282 65.9878 67.0808C60.4677 72.6079 53.8462 76.1118 46.0831 77.4738C41.7851 78.2275 37.5007 78.201 33.2296 77.3151C32.7192 77.2093 32.2088 77.1035 32.1014 76.4556C31.9671 75.5962 32.5446 75.0672 33.4311 75.2524C36.0098 75.7813 38.602 75.9664 41.2345 75.8871C46.8889 75.7152 52.1405 74.1285 57.0025 71.3253C64.403 67.0412 69.6276 60.9059 72.6899 53.0252C74.2345 48.9791 74.8926 44.7743 74.8523 40.477Z" fill="rgb(0,0,0)" fill-rule="nonzero" />
		<path id="Vector" d="M26.7291 51.6765C26.7291 49.984 26.7291 48.4899 26.7291 46.9957C26.7291 46.3346 27.0246 45.9643 27.5753 45.9511C28.1394 45.9379 28.4751 46.3346 28.4751 47.0222C28.4751 48.5295 28.4751 50.0501 28.4751 51.5575C28.5289 51.5972 28.5826 51.6236 28.6363 51.6633C29.2541 51.0154 29.872 50.3675 30.5032 49.7196C30.7047 49.508 30.9196 49.3097 31.1479 49.1378C31.5508 48.8469 31.9806 48.794 32.3433 49.2171C32.7059 49.6402 32.7328 50.0766 32.2895 50.4997C31.1748 51.5839 30.06 52.655 28.9452 53.7524C28.7706 53.9243 28.5557 54.1756 28.5557 54.4004C28.5289 56.1986 28.5423 57.9969 28.5423 59.8877C29.4556 59.372 30.3555 58.896 31.2285 58.3804C32.0746 57.8911 33.1357 57.5341 33.6595 56.8201C34.1833 56.1061 34.1699 54.9954 34.3713 54.0566C34.5191 53.4087 34.64 52.774 34.7877 52.1261C34.9355 51.3988 35.3518 51.0418 35.8891 51.1608C36.4532 51.2798 36.6681 51.7162 36.5203 52.4699C36.2785 53.5806 36.0099 54.678 35.7279 55.9077C36.6009 55.392 37.4202 54.916 38.2261 54.4532C38.5887 54.2417 38.9648 54.0566 39.3543 53.8715C39.8378 53.6467 40.2944 53.6731 40.5765 54.1623C40.872 54.6913 40.6436 55.1144 40.1601 55.3788C39.2334 55.9077 38.2932 56.4102 37.353 56.9126C37.2187 56.992 37.0844 57.0581 36.8427 57.2035C37.8231 57.5209 38.7096 57.7986 39.596 58.0895C40.5496 58.4068 40.8451 58.7638 40.6436 59.3192C40.4422 59.8745 39.8243 60.0332 38.9916 59.7687C37.7425 59.3588 36.5069 58.9357 35.2444 58.5655C35.0026 58.4861 34.6534 58.5126 34.4385 58.6184C32.8402 59.491 31.2554 60.3902 29.6705 61.2893C29.6168 61.3158 29.5899 61.3819 29.5093 61.4612C31.2554 62.4397 32.9745 63.4049 34.7071 64.3437C34.8414 64.4231 35.0832 64.3702 35.2578 64.3173C36.5875 63.8677 37.9037 63.4049 39.2334 62.9686C39.4751 62.8893 39.8109 62.7967 40.0124 62.9025C40.281 63.0479 40.6436 63.3653 40.6436 63.6165C40.6436 63.9338 40.3884 64.4099 40.1198 64.5421C39.3677 64.8991 38.535 65.1239 37.7291 65.3883C37.4873 65.4677 37.2322 65.5338 36.8695 65.6528C38.0246 66.3139 39.0722 66.8825 40.0795 67.5172C40.3481 67.689 40.6302 68.0461 40.6705 68.3502C40.7511 68.9716 40.2541 69.3551 39.6497 69.1568C39.1125 68.9716 38.6021 68.6807 38.0917 68.4163C37.4202 68.0593 36.7755 67.6758 36.0234 67.2527C36.198 68.2047 36.3726 69.051 36.4935 69.8972C36.5472 70.3071 36.7218 70.7831 36.2248 71.0872C35.6339 71.4443 34.9623 71.1798 34.7877 70.4393C34.4922 69.1303 34.2639 67.8213 33.9818 66.5122C33.9416 66.3139 33.8475 66.0494 33.6998 65.9701C32.0612 65.0049 30.3958 64.0528 28.6632 63.0611C28.6363 63.2595 28.596 63.3917 28.596 63.5372C28.596 65.0974 28.5826 66.6709 28.6094 68.2312C28.6094 68.456 28.7438 68.7336 28.9049 68.8923C29.966 69.9369 31.0673 70.9418 32.1284 71.9732C32.7193 72.5417 32.7596 72.9913 32.3298 73.4012C31.9672 73.7582 31.3091 73.7185 30.8256 73.269C30.0734 72.5946 29.3481 71.8938 28.5289 71.1005C28.5289 72.555 28.5423 73.864 28.5154 75.1862C28.5154 75.4771 28.4751 75.8738 28.2871 76.0457C28.0453 76.2573 27.5618 76.4424 27.3066 76.3366C27.0246 76.2176 26.7157 75.768 26.7022 75.4507C26.6351 74.1152 26.6619 72.7665 26.6619 71.4178C26.6619 71.312 26.6619 71.2195 26.6619 71.1137C26.5948 71.074 26.5411 71.0344 26.4739 70.9815C25.7352 71.7616 25.0099 72.555 24.2309 73.2954C23.6534 73.8508 22.955 73.6921 22.6461 73.031C22.4043 72.5285 22.7132 72.2376 23.0087 71.9335C24.0966 70.8492 25.198 69.7914 26.2724 68.694C26.4605 68.5089 26.6754 68.2312 26.6754 67.9799C26.7157 66.2875 26.6888 64.595 26.6888 62.7967C26.4202 62.9289 26.2053 63.0083 26.0038 63.1273C24.5398 63.9603 23.0624 64.7933 21.6119 65.666C21.3701 65.8114 21.1552 66.142 21.0881 66.4197C20.7792 67.6494 20.5374 68.9055 20.2688 70.1484C20.1479 70.717 19.651 71.1005 19.1943 70.9947C18.6302 70.8757 18.4019 70.4393 18.5496 69.7518C18.7376 68.8791 18.9391 68.0064 19.1674 67.0015C18.1333 67.5833 17.2065 68.1254 16.2663 68.6411C16.038 68.7601 15.7425 68.9452 15.5411 68.8923C15.2053 68.7997 14.7755 68.5882 14.6546 68.3105C14.5472 68.0725 14.7352 67.5436 14.9635 67.3849C15.6888 66.8825 16.4947 66.499 17.2737 66.0627C17.596 65.8776 17.9049 65.6924 18.2676 65.4809C17.2065 65.0578 16.2395 64.6875 15.2859 64.2908C14.6143 63.9999 14.386 63.5636 14.5875 63.0611C14.8024 62.5587 15.2724 62.3868 15.9574 62.6512C17.2199 63.1405 18.469 63.6826 19.7315 64.1851C19.9464 64.2776 20.2822 64.3305 20.4568 64.238C22.1223 63.2991 23.7608 62.3339 25.5069 61.3158C25.2651 61.1306 25.0905 60.972 24.8891 60.853C23.4116 59.9935 21.9342 59.1208 20.4434 58.2878C20.2956 58.1952 20.027 58.2085 19.8524 58.2613C18.469 58.7506 17.0991 59.2663 15.7157 59.7555C15.1784 59.9406 14.8024 59.6894 14.6143 59.1869C14.4263 58.6977 14.5875 58.3275 15.0978 58.1423C15.8634 57.8647 16.6424 57.5738 17.408 57.2961C17.6497 57.2035 17.8915 57.111 18.2273 56.9788C17.0588 56.3044 15.9574 55.7226 14.9232 55.0483C14.6546 54.8764 14.3726 54.4268 14.4397 54.1756C14.5069 53.8715 14.8964 53.5806 15.2187 53.4219C15.3799 53.3425 15.7291 53.5012 15.944 53.6202C17.005 54.2152 18.0527 54.8367 19.2212 55.4978C18.9928 54.3871 18.7779 53.3954 18.6033 52.3905C18.5496 52.1129 18.5362 51.7029 18.6974 51.5443C18.9257 51.3063 19.3555 51.0815 19.6644 51.1212C19.8927 51.1476 20.1882 51.5839 20.2554 51.8748C20.5777 53.2897 20.806 54.7177 21.1015 56.1325C21.1418 56.3441 21.2627 56.6217 21.4238 56.7143C23.143 57.7324 24.8891 58.7109 26.6754 59.7423C26.6888 59.5968 26.7291 59.4646 26.7291 59.3192C26.7291 57.7721 26.756 56.2383 26.7157 54.6913C26.7022 54.3607 26.5411 53.964 26.2993 53.726C25.198 52.6021 24.0295 51.5311 22.9147 50.4204C22.3237 49.8253 22.5118 49.0188 23.2908 48.913C23.5997 48.8601 24.0295 49.0717 24.2847 49.2832C24.9293 49.8253 25.5069 50.4468 26.1113 51.0418C26.259 51.2402 26.4202 51.3856 26.7291 51.6765Z" fill="rgb(0,0,0)" fill-rule="nonzero" />
		<path id="Vector" d="M19.3021 29.3171C13.3521 29.4758 8.85274 24.5834 8.94676 19.215C9.04078 13.8467 13.5133 9.08654 19.4095 9.15266C25.2789 9.20555 29.7245 13.8467 29.6574 19.3208C29.5902 25.7338 23.6537 29.608 19.3021 29.3171ZM27.5487 19.2679C27.589 14.997 23.8552 11.2154 19.5573 11.1757C14.9101 11.136 11.0823 14.759 11.042 19.2547C11.0017 23.7239 14.5878 27.2676 19.1946 27.3073C23.7612 27.3601 27.495 23.7636 27.5487 19.2679Z" fill="rgb(0,0,0)" fill-rule="nonzero" />
		<path id="Vector" d="M2.20312 40.5696C2.35087 38.8506 2.43145 37.6209 2.55233 36.3912C2.61949 35.7169 3.18359 35.2012 3.72083 35.2673C4.33866 35.3466 4.661 35.8888 4.58041 36.6557C4.29836 39.5514 4.32522 42.4604 4.64757 45.3561C5.23853 50.6319 7.05172 55.4714 9.99311 59.901C10.5975 60.8001 11.2422 61.6728 11.8869 62.5455C12.2361 63.0347 12.3435 63.4843 11.8869 63.9603C11.3765 64.5024 10.8258 64.5024 10.3155 63.8281C9.44244 62.6909 8.55599 61.5406 7.79043 60.3373C5.09079 56.1458 3.41192 51.5575 2.72693 46.6519C2.41802 44.4967 2.35087 42.2885 2.20312 40.5696Z" fill="rgb(0,0,0)" fill-rule="nonzero" />
		<path id="Vector" d="M18.533 3.96942C18.533 3.00417 18.533 2.03892 18.533 1.06045C18.533 0.505104 18.9493 0.029091 19.4194 0.00264588C19.9567 -0.0370219 20.4133 0.372878 20.4267 0.994339C20.4805 2.97773 20.5073 4.94789 20.5073 6.93128C20.5073 7.52629 20.0238 7.93619 19.4731 7.90975C18.909 7.89653 18.5195 7.48663 18.5195 6.86517C18.5195 5.91314 18.533 4.93467 18.533 3.96942Z" fill="rgb(0,0,0)" fill-rule="nonzero" />
		<path id="Vector" d="M20.4407 34.5532C20.4407 35.4788 20.4541 36.4044 20.4407 37.3168C20.4273 37.9382 20.0781 38.2952 19.514 38.2952C18.9633 38.2952 18.5469 37.8721 18.5335 37.2639C18.5201 35.4656 18.5201 33.6541 18.5335 31.8558C18.5335 31.2079 18.8693 30.9038 19.5274 30.9038C20.3064 30.9038 20.4273 31.0228 20.4407 31.8426C20.4541 32.755 20.4407 33.6541 20.4407 34.5532Z" fill="rgb(0,0,0)" fill-rule="nonzero" />
		<path id="Vector" d="M6.39506 5.59583C6.74427 5.78094 7.03975 5.8735 7.22778 6.05862C8.38285 7.15609 9.52449 8.26679 10.6527 9.39071C11.1228 9.86672 11.1496 10.4485 10.7467 10.8584C10.3169 11.308 9.77967 11.3212 9.28273 10.832C8.12766 9.70805 6.94573 8.59735 5.84439 7.42054C5.61606 7.16931 5.52204 6.64041 5.60263 6.30984C5.66979 6.03217 6.09958 5.83383 6.39506 5.59583Z" fill="rgb(0,0,0)" fill-rule="nonzero" />
		<path id="Vector" d="M3.72039 20.1936C2.84738 20.1936 1.97436 20.2068 1.10134 20.1936C0.470086 20.1936 0 19.7837 0 19.2812C0 18.7787 0.483517 18.3292 1.07448 18.3159C2.88767 18.3027 4.70086 18.3027 6.50061 18.3159C7.15873 18.3159 7.52137 18.6465 7.52137 19.1886C7.5348 19.7969 7.13187 20.1803 6.46032 20.1936C5.54701 20.2068 4.6337 20.1936 3.72039 20.1936Z" fill="rgb(0,0,0)" fill-rule="nonzero" />
		<path id="Vector" d="M28.566 11.3212C28.284 11.07 27.8945 10.8849 27.8139 10.6204C27.7199 10.2899 27.7602 9.80064 27.9616 9.54941C28.4317 8.94117 29.0361 8.43871 29.5868 7.89659C30.218 7.27512 30.8359 6.64044 31.4806 6.0322C32.0178 5.52974 32.4879 5.51652 32.9445 5.93964C33.4012 6.36277 33.4012 6.79911 32.8505 7.36768C31.7089 8.54449 30.5538 9.69486 29.3853 10.8452C29.1973 11.0303 28.9018 11.1229 28.566 11.3212Z" fill="rgb(0,0,0)" fill-rule="nonzero" />
		<path id="Vector" d="M11.039 28.6428C10.8242 28.9866 10.7301 29.2378 10.5555 29.4097C9.49448 30.4807 8.42 31.5385 7.34552 32.5963C6.83514 33.0988 6.31133 33.1385 5.86811 32.7418C5.45175 32.3716 5.42488 31.7765 5.9084 31.2741C6.99631 30.1369 8.11109 29.013 9.26615 27.942C9.48105 27.7436 10.0049 27.6246 10.26 27.7436C10.569 27.8891 10.7704 28.3122 11.039 28.6428Z" fill="rgb(0,0,0)" fill-rule="nonzero" />
		<path id="Vector" d="M34.6523 20.1935C33.8061 20.1935 32.96 20.2067 32.1004 20.1935C31.4692 20.1803 31.0259 19.7704 31.0394 19.2415C31.0528 18.739 31.5229 18.3159 32.1407 18.3159C33.7659 18.3159 35.4044 18.3159 37.0296 18.3159C37.7146 18.3159 38.1578 18.7126 38.1444 19.2679C38.1309 19.8233 37.7011 20.1803 37.0027 20.1803C36.2103 20.2067 35.4313 20.1935 34.6523 20.1935Z" fill="rgb(0,0,0)" fill-rule="nonzero" />
		<path id="Vector" d="M28.7273 27.5718C29.0765 27.7701 29.3585 27.8759 29.5466 28.061C30.6479 29.1188 31.7493 30.1898 32.8237 31.2741C33.2938 31.7501 33.3073 32.2261 32.9312 32.6228C32.5417 33.0327 31.897 33.0724 31.4403 32.6492C30.2987 31.565 29.1571 30.4807 28.0692 29.3304C27.8677 29.1188 27.814 28.6164 27.9214 28.3255C28.0423 28.0213 28.4318 27.8362 28.7273 27.5718Z" fill="rgb(0,0,0)" fill-rule="nonzero" />
	</g>
</svg>
