<svg viewBox="0 0 67 69" xmlns="http://www.w3.org/2000/svg" xmlns:xlink="http://www.w3.org/1999/xlink" width="67.000000" height="69.000000" fill="none">
	<rect id="Frame" width="67.000000" height="69.000000" x="0.000000" y="0.000000" fill="rgb(255,255,255)" fill-opacity="0" />
	<g id="Group">
		<path id="Vector" d="M7.41154 69C4.56205 69 2.37498 66.0383 3.43697 62.9401C4.20454 60.7137 5.16139 58.5397 6.04463 56.3552C8.96773 49.1296 11.8908 41.9041 14.8244 34.668C15.7918 32.2735 16.7697 29.8684 17.7475 27.4739C18.1156 26.5812 19.0724 26.1926 20.208 26.3817C21.8168 26.6547 23.2468 27.3269 24.6137 28.1986C28.5567 30.7191 32.0055 33.8278 35.1705 37.2621C37.7151 40.0137 40.0073 42.9543 41.8894 46.1995C42.6885 47.5753 43.351 49.0036 43.5718 50.6C43.719 51.6397 43.3615 52.3643 42.3731 52.8474C39.5972 54.1917 36.8213 55.5255 34.0454 56.8698C26.2645 60.6086 18.4941 64.358 10.7132 68.0968C9.78788 68.5484 8.86258 69.021 7.41154 69ZM41.3216 51.0305C41.3637 50.9885 41.3952 50.9465 41.4373 50.9045C41.4163 50.726 41.4268 50.5264 41.3532 50.3584C40.9851 49.4237 40.6802 48.447 40.2071 47.5753C38.3039 44.0675 35.7698 41.0114 33.036 38.1337C31.4167 36.4219 29.6818 34.8045 27.8627 33.2922C26.2014 31.9164 24.3929 30.7191 22.6054 29.5009C21.7432 28.9232 20.7442 28.6082 19.6612 28.5242C19.6717 28.6712 19.6717 28.7657 19.6928 28.8497C19.84 29.2803 19.9662 29.7109 20.1449 30.1205C21.5434 33.3342 23.7094 36.0228 26.0647 38.5643C27.9679 40.6123 29.9762 42.5762 31.995 44.5086C34.0664 46.4936 36.3376 48.2474 38.777 49.7703C39.5762 50.2639 40.4699 50.6105 41.3216 51.0305ZM38.6929 52.2488C37.6204 51.5347 36.5584 50.8415 35.507 50.1273C35.0759 49.8333 34.7184 49.4447 34.1085 49.6653C33.8246 49.7703 33.4881 49.7598 33.1727 49.7808C30.544 49.9278 27.9258 49.8858 25.3077 49.5917C22.4792 49.2767 19.6928 48.7516 16.98 47.9324C15.4553 47.4703 13.9622 46.9137 12.4271 46.3885C11.8488 47.8064 11.2494 49.2662 10.6606 50.726C10.7868 50.7995 10.8604 50.852 10.934 50.8835C12.6163 51.5032 14.2672 52.1858 15.9706 52.7109C19.2301 53.7086 22.5633 54.3073 25.9701 54.5068C27.8943 54.6223 29.8185 54.6748 31.7427 54.6748C32.5628 54.6748 33.4461 54.6433 34.2031 54.3598C35.6016 53.8347 36.9265 53.1205 38.2829 52.4799C38.4616 52.4063 38.6193 52.2908 38.6929 52.2488ZM8.08449 56.9748C8.20015 57.0379 8.28427 57.1009 8.3789 57.1429C11.8488 58.9703 15.5605 60.094 19.4089 60.7872C19.9031 60.8817 20.5024 60.9762 20.923 60.7767C23.5096 59.5794 26.0542 58.2981 28.6093 57.0484C28.7144 56.9958 28.8196 56.9223 28.9983 56.8173C22.2794 56.6493 15.8864 55.473 9.84045 52.7004C9.26214 54.1392 8.68383 55.536 8.08449 56.9748ZM14.9611 40.1922C14.4144 41.5155 13.8571 42.9018 13.2577 44.3511C19.3037 46.8611 25.581 47.8484 32.2158 47.6698C31.9109 47.3758 31.7111 47.1657 31.4903 46.9662C30.1444 45.6849 28.7775 44.4351 27.4632 43.1223C27.0531 42.7127 26.6115 42.5972 26.0857 42.5342C24.4665 42.3242 22.8262 42.1666 21.2279 41.82C19.1355 41.3685 17.0746 40.7488 14.9611 40.1922ZM17.1482 62.5726C13.7519 61.6169 10.4608 60.5141 7.25382 58.9598C6.64397 60.5141 6.01308 62.0054 5.47683 63.5178C5.31911 63.9694 5.30859 64.5365 5.41374 64.9986C5.76073 66.5319 7.20125 67.2881 8.64177 66.6369C11.4597 65.3557 14.2461 64.0009 17.0431 62.6671C17.0956 62.6566 17.1167 62.6146 17.1482 62.5726ZM24.6452 40.2132C22.2058 37.5246 20.0503 34.773 18.3679 31.5698C17.4742 33.8068 16.633 35.9283 15.7813 38.0497C16.9274 38.6904 21.1017 39.7196 24.6452 40.2132Z" fill="rgb(0,0,0)" fill-rule="nonzero" />
		<path id="Vector" d="M50.2622 19.2191C47.928 17.2762 46.845 14.7767 46.7713 11.8255C46.6767 8.33877 47.7492 5.2616 50.2728 2.79357C51.9656 1.14471 54.0265 0.14699 56.4029 0.125986C60.3038 0.0944788 63.0587 2.0479 64.6254 5.52416C67.2015 11.2584 64.0997 18.5575 58.0011 20.6054C57.1494 20.889 56.1926 20.889 55.2883 21.0045C55.099 21.0255 54.9098 21.0045 54.71 21.0045C54.8362 21.7082 54.9729 22.3908 55.0675 23.084C55.1516 23.6931 54.9729 24.2392 54.4681 24.6173C53.9845 24.9744 53.4692 24.9744 52.954 24.6698C52.7122 24.5333 52.4598 24.4178 52.1654 24.2707C52.0918 25.0059 52.0182 25.699 51.9656 26.3817C51.8079 28.3141 50.8511 29.7529 49.2528 30.8032C48.685 31.1707 48.0857 31.4963 47.4864 31.8114C46.3718 32.3785 45.6042 33.2292 45.1731 34.3949C45.1205 34.521 45.0785 34.6575 45.0154 34.7835C44.742 35.3821 44.1952 35.6447 43.659 35.4242C43.0702 35.1931 42.8809 34.7205 43.0807 34.0589C43.6485 32.1789 44.8682 30.8557 46.5716 29.942C46.9816 29.7214 47.4022 29.5114 47.8123 29.2803C49.2003 28.5137 49.8732 27.3059 49.9573 25.7411C49.9889 25.0479 50.052 24.3442 50.0625 23.6511C50.0625 23.5146 49.9468 23.3045 49.8311 23.2415C49.4526 23.0315 49.032 22.8949 48.6535 22.6954C47.8544 22.2648 47.7072 21.3616 48.3801 20.742C48.8112 20.3429 49.3054 19.9963 49.7681 19.6287C49.9258 19.4922 50.094 19.3557 50.2622 19.2191ZM63.3321 9.90361C63.2795 9.30498 63.248 8.77987 63.1744 8.26525C63.1113 7.87667 62.9956 7.48809 62.8694 7.11C61.3869 2.60452 56.529 0.924159 52.7227 3.60224C49.3369 5.98626 47.949 10.9958 49.5998 14.8292C51.2191 18.5785 55.2252 19.9858 58.7792 17.9694C61.9126 16.1945 63.1113 13.2748 63.3321 9.90361ZM52.6912 22.2018C52.565 21.5821 52.4703 21.057 52.3547 20.4794C51.892 20.8155 51.4714 21.1095 50.9983 21.4456C51.5976 21.7082 52.1023 21.9392 52.6912 22.2018Z" fill="rgb(0,0,0)" fill-rule="nonzero" />
		<path id="Vector" d="M3.25004 16.3207C3.39725 15.449 3.56548 14.4198 3.72321 13.3906C3.80732 12.8549 3.92299 12.3298 3.96504 11.7942C3.97556 11.6262 3.88093 11.3951 3.75475 11.2796C2.68225 10.2189 1.5782 9.20015 0.495177 8.16043C0.0745869 7.75084 -0.135708 7.28874 0.106131 6.70061C0.358485 6.12298 0.800105 5.82892 1.4415 5.76591C2.9346 5.61888 4.41718 5.42983 5.89976 5.23029C6.04697 5.20929 6.20469 4.98874 6.28881 4.8312C6.9302 3.51842 7.55058 2.20563 8.18146 0.892848C8.43381 0.367734 8.83337 0.0316608 9.44323 0.0106562C10.1793 -0.0313529 10.684 0.283716 11.0099 0.997871C11.5882 2.27915 12.1666 3.56043 12.7238 4.85221C12.8605 5.16728 13.0288 5.32481 13.3652 5.35632C14.7532 5.49285 16.1411 5.66088 17.5291 5.77641C18.223 5.83942 18.7172 6.13349 18.9591 6.79513C19.2009 7.45677 18.9065 7.93988 18.4333 8.37047C17.3819 9.31568 16.3199 10.2609 15.2579 11.1956C15.0371 11.3951 14.9214 11.5632 14.995 11.8992C15.2999 13.3591 15.5523 14.8294 15.8362 16.2997C15.9519 16.9088 15.7416 17.4024 15.2684 17.77C14.8058 18.1271 14.28 18.1901 13.7543 17.896C12.461 17.1819 11.1676 16.4677 9.88485 15.7221C9.64301 15.5855 9.47478 15.575 9.23294 15.7116C7.95014 16.4152 6.67785 17.1294 5.37402 17.8015C4.30152 18.3581 3.25004 17.6755 3.25004 16.3207ZM5.64741 15.197C6.74094 14.5878 7.72933 14.0522 8.71771 13.4956C9.30654 13.17 9.86382 13.17 10.4421 13.5376C10.9468 13.8527 11.4621 14.1362 11.9773 14.4303C12.4084 14.6718 12.8395 14.9239 13.3232 15.197C13.3232 14.9764 13.3442 14.8504 13.3232 14.7349C13.1339 13.7792 12.9552 12.8234 12.7554 11.8782C12.6082 11.1851 12.6923 10.576 13.2811 10.0823C14.0171 9.46271 14.7216 8.80107 15.4261 8.16043C15.5208 8.07641 15.5838 7.96088 15.689 7.83486C14.6165 7.66682 13.6071 7.45678 12.5871 7.38326C11.7354 7.32025 11.2728 6.88965 10.9574 6.15449C10.5368 5.20929 10.0636 4.28509 9.56941 3.26636C9.4222 3.53942 9.31705 3.70746 9.23294 3.886C8.80183 4.72618 8.37073 5.56636 7.96065 6.41705C7.69778 6.95267 7.28771 7.24673 6.70939 7.34125C6.38344 7.39376 6.04697 7.41477 5.72101 7.46728C4.92189 7.5828 4.13328 7.69833 3.2185 7.83486C4.09122 8.64353 4.86931 9.36819 5.65792 10.0823C6.16263 10.5339 6.39395 11.0276 6.22572 11.7522C5.98388 12.8339 5.8577 13.9577 5.64741 15.197Z" fill="rgb(0,0,0)" fill-rule="nonzero" />
		<path id="Vector" d="M40.4731 62.4991C40.5362 62.9087 40.6098 63.4443 40.7045 63.9694C41.104 66.1329 39.6004 67.5297 37.8655 67.9288C37.182 68.0863 36.5511 67.6872 36.4039 67.0571C36.2778 66.532 36.6353 66.0279 37.3292 65.8178C37.9496 65.6288 38.591 65.4293 38.6331 64.6626C38.6646 64.169 38.5069 63.6649 38.4122 63.1818C38.0022 61.2073 39.0747 59.3694 40.9463 58.7813C42.3027 58.3612 43.3962 58.8128 44.3636 59.758C44.8683 60.2621 45.3625 60.7977 45.9198 61.2388C46.7504 61.911 47.3182 61.7325 47.6021 60.6927C47.865 59.7265 48.0017 58.7183 48.2751 57.7521C48.7167 56.1767 49.6946 55.053 51.3138 54.6014C52.8911 54.1708 54.4367 54.7064 55.4251 56.0717C55.9614 56.8174 56.4135 57.6261 56.8551 58.4242C57.1916 59.0439 56.9498 59.7055 56.3609 59.9681C55.7616 60.2411 55.2148 59.9786 54.8573 59.3379C54.4683 58.6238 54.1108 57.8676 53.585 57.269C52.7018 56.2608 51.1456 56.5023 50.5988 57.7311C50.2729 58.4767 50.1257 59.3169 49.9469 60.1256C49.7366 61.0813 49.5158 62.0265 48.8534 62.7932C47.8545 63.9589 46.4035 64.19 45.1627 63.2973C44.4267 62.7617 43.7853 62.121 43.1123 61.5119C42.7128 61.1548 42.3132 60.8082 41.7454 60.8398C41.0094 60.9028 40.4731 61.5539 40.4731 62.4991Z" fill="rgb(0,0,0)" fill-rule="nonzero" />
		<path id="Vector" d="M6.54043 38.5013C6.56146 40.9378 5.24712 42.2506 3.29138 42.8073C2.43968 43.0488 1.60902 42.5447 1.70365 41.841C1.74571 41.526 2.00858 41.2109 2.22939 40.9483C2.33453 40.8118 2.56586 40.7803 2.74461 40.7068C4.53212 39.9611 4.8791 38.3123 3.55424 36.905C3.13365 36.4639 2.69203 36.0333 2.3135 35.5502C0.97813 33.8068 1.3146 31.7378 3.17571 30.5511C3.90123 30.089 4.7319 29.7949 5.50999 29.4273C5.96212 29.2173 6.45632 29.0598 6.87691 28.7867C7.84426 28.1881 8.05456 27.1694 7.45522 26.2136C7.02411 25.5205 6.3722 25.1004 5.64668 24.7538C4.95271 24.4283 4.7319 23.7981 5.06837 23.21C5.28918 22.8319 5.63617 22.6219 6.07779 22.7164C8.51721 23.2415 10.6517 25.9406 9.7264 28.7237C9.32684 29.921 8.41206 30.6246 7.30801 31.0972C6.54043 31.4228 5.75183 31.6958 4.99477 32.0319C3.45961 32.7251 3.32292 33.4392 4.448 34.668C4.8055 35.0566 5.17352 35.4241 5.5205 35.8232C6.21448 36.6214 6.58249 37.5561 6.54043 38.5013Z" fill="rgb(0,0,0)" fill-rule="nonzero" />
		<path id="Vector" d="M56.296 35.1196C56.9795 35.1721 57.6524 35.2036 58.3359 35.2877C58.8932 35.3507 59.2507 35.8443 59.1981 36.4009C59.1455 36.9365 58.6093 37.4301 58.0835 37.3671C54.109 36.905 50.534 38.0393 47.1797 40.0662C46.328 40.5808 45.5184 41.1584 44.6983 41.7256C44.0779 42.1562 43.426 42.0931 43.0264 41.5575C42.6584 41.0639 42.7741 40.4443 43.3734 40.0137C46.4963 37.6822 49.882 35.9178 53.783 35.3087C54.1931 35.2457 54.6137 35.2036 55.0343 35.1826C55.4549 35.1616 55.8754 35.1826 56.296 35.1826C56.2855 35.1616 56.2855 35.1406 56.296 35.1196Z" fill="rgb(0,0,0)" fill-rule="nonzero" />
		<path id="Vector" d="M38.4737 16.9822C38.4106 21.1937 37.3066 25.1005 34.8672 28.5873C34.7094 28.8183 34.5412 29.0389 34.3625 29.2489C33.9103 29.774 33.2794 29.8685 32.7852 29.4905C32.291 29.1124 32.228 28.4927 32.6801 27.9151C33.7631 26.5078 34.5728 24.964 35.1721 23.2941C36.0553 20.7946 36.539 18.232 36.3077 15.5644C36.2551 14.9553 36.7283 14.4197 37.3171 14.3882C37.9375 14.3567 38.4632 14.8398 38.4842 15.4594C38.4842 15.974 38.4737 16.4781 38.4737 16.9822Z" fill="rgb(0,0,0)" fill-rule="nonzero" />
		<path id="Vector" d="M29.0099 24.1658C28.8837 25.0585 28.8417 25.7621 28.6944 26.4343C28.5578 27.0539 27.9584 27.348 27.3486 27.1904C26.8544 27.0644 26.56 26.5288 26.623 25.9617C27.0436 22.1599 26.0342 18.7886 23.4686 15.9215C22.7746 15.1548 22.7536 14.4512 23.4476 14.0206C23.9102 13.737 24.3939 13.8 24.825 14.2201C26.623 15.9635 27.7691 18.106 28.379 20.5005C28.6839 21.7608 28.8206 23.063 29.0099 24.1658Z" fill="rgb(0,0,0)" fill-rule="nonzero" />
		<path id="Vector" d="M48.2112 46.8402C47.8958 46.8402 47.5803 46.8507 47.2649 46.8402C46.6761 46.8297 46.1819 46.3466 46.1608 45.8005C46.1398 45.2333 46.6025 44.7817 47.2228 44.7397C50.3562 44.4877 53.2478 45.1493 55.8449 46.9767C56.3286 47.3128 56.7807 47.7119 57.2224 48.111C57.6324 48.4786 57.643 49.1717 57.2749 49.5708C56.8859 50.0014 56.2024 50.0644 55.7713 49.6653C54.3729 48.3945 52.7746 47.5123 50.924 47.1133C50.0408 46.9242 49.126 46.8717 48.2323 46.7667C48.2112 46.7877 48.2112 46.8192 48.2112 46.8402Z" fill="rgb(0,0,0)" fill-rule="nonzero" />
		<path id="Vector" d="M41.5123 4.61048C41.4071 4.91504 41.3546 5.10408 41.2705 5.27212C40.6291 6.5849 39.9771 7.88719 39.3252 9.18947C38.9572 9.92463 38.5892 10.0507 37.8637 9.67257C37.4641 9.46253 37.054 9.26299 36.665 9.03194C36.1918 8.74837 36.0551 8.37029 36.297 7.87669C36.991 6.45888 37.706 5.04107 38.4315 3.63376C38.7259 3.06664 39.1465 2.96162 39.7038 3.24518C40.1033 3.44472 40.5344 3.63376 40.8919 3.89632C41.1548 4.08536 41.323 4.38993 41.5123 4.61048Z" fill="rgb(0,0,0)" fill-rule="nonzero" />
		<path id="Vector" d="M65.1805 24.4913C65.4118 24.6174 65.6536 24.7119 65.8324 24.8694C66.1478 25.1635 66.4317 25.4996 66.7262 25.8251C67.0731 26.2242 67.1047 26.6233 66.7262 26.9804C65.5275 28.1041 64.3078 29.2069 63.0775 30.2781C62.72 30.5932 62.2889 30.5091 61.9419 30.1836C61.6055 29.8685 61.29 29.5534 60.9851 29.2174C60.554 28.7448 60.5645 28.2722 61.0377 27.8416C62.1943 26.8018 63.372 25.7831 64.5496 24.7749C64.6863 24.6489 64.9176 24.6069 65.1805 24.4913Z" fill="rgb(0,0,0)" fill-rule="nonzero" />
		<path id="Vector" d="M62.6475 41.6731C63.7831 41.6731 64.6664 42.5448 64.6559 43.6475C64.6559 44.7188 63.7621 45.5905 62.6686 45.601C61.4909 45.601 60.6497 44.7608 60.6603 43.595C60.6708 42.5028 61.533 41.6731 62.6475 41.6731Z" fill="rgb(0,0,0)" fill-rule="nonzero" />
		<path id="Vector" d="M25.1095 7.89772C25.12 6.77398 25.9296 5.97581 27.0757 5.98631C28.1272 5.99681 29.0104 6.879 29.0104 7.91873C29.0104 8.93745 28.0326 9.88266 27.0021 9.85115C25.9296 9.83014 25.099 8.96896 25.1095 7.89772Z" fill="rgb(0,0,0)" fill-rule="nonzero" />
		<path id="Vector" d="M44.3711 26.8859C44.3711 27.7996 43.6141 28.5557 42.7203 28.5557C41.8161 28.5557 41.038 27.7996 41.0275 26.9069C41.0169 25.9512 41.7845 25.1845 42.7624 25.2055C43.6877 25.216 44.3711 25.9407 44.3711 26.8859Z" fill="rgb(0,0,0)" fill-rule="nonzero" />
	</g>
</svg>
