<svg viewBox="0 0 79.0176 54.001" xmlns="http://www.w3.org/2000/svg" xmlns:xlink="http://www.w3.org/1999/xlink" width="79.017578" height="54.000977" fill="none" customFrame="#000000">
	<g id="Group">
		<path id="Vector" d="M21.5454 41.3034C19.4862 40.6974 17.9774 39.5896 16.8861 37.9136C16.7153 37.6485 16.5255 37.7243 16.3262 37.819C15.5575 38.1977 14.7509 38.4249 13.8779 38.3965C11.6953 38.3208 10.1485 37.2414 9.18061 35.3476C8.72511 34.467 8.42145 33.5012 8.07034 32.5638C7.36811 30.6606 6.71334 28.7385 5.97316 26.8447C5.36583 25.2919 5.42277 23.8147 6.18193 22.3566C7.53892 19.7243 8.9149 17.1014 10.2909 14.4786C11.0595 13.011 11.8282 11.5338 12.6253 10.0757C13.7261 8.05882 15.3393 6.54383 17.4649 5.68218C21.6023 3.99675 25.7587 2.3776 29.9151 0.758456C31.5948 0.105116 33.3693 -0.0937269 35.1533 0.0388349C36.6811 0.152459 38.1141 0.673238 39.547 1.21295C43.4187 2.6806 47.1575 4.46072 50.9154 6.21243C51.1336 6.31658 51.4658 6.31658 51.6935 6.2219C54.2747 5.21821 56.9222 4.32816 59.6457 3.85472C63.8685 3.11616 67.8351 5.133 69.5243 9.3371C70.1885 10.9752 70.8338 12.6227 71.4886 14.2608C72.001 15.558 71.5076 16.7227 70.2075 17.2529C69.0213 17.7358 67.8256 18.1998 66.6205 18.6543C66.4022 18.7395 66.2694 18.7963 66.3168 19.0804C66.6015 20.7848 66.2694 22.385 65.4628 23.8905C65.3584 24.0799 65.2445 24.2692 65.1022 24.5344C66.127 24.1367 67.095 23.7579 68.0534 23.3887C71.0616 22.224 74.0697 21.0499 77.0779 19.8852C78.1692 19.4591 79.0138 20.0178 79.0138 21.1824C79.0232 23.9946 79.0138 26.7974 79.0138 29.6096C79.0138 37.213 79.0138 44.8258 79.0138 52.4292C79.0138 53.4802 78.5013 54.001 77.4575 54.001C52.2534 54.001 27.0398 54.001 1.83574 54.001C0.763429 54.001 0.203549 53.4518 0.18457 52.3913C0.18457 52.0599 0.18457 51.7285 0.19406 51.3971C0.19406 50.1567 0.791898 49.3329 1.94962 48.8879C4.33148 47.9789 6.71334 47.0509 9.0952 46.1419C13.0238 44.6269 16.9525 43.112 20.8811 41.597C21.0614 41.5212 21.2417 41.436 21.5454 41.3034ZM3.43947 51.1982C3.44895 51.2456 3.46793 51.2834 3.47742 51.3308C27.818 51.3308 52.168 51.3308 76.518 51.3308C76.518 41.8905 76.518 32.4786 76.518 22.9626C52.1205 32.3839 27.78 41.7863 3.43947 51.1982ZM68.8885 14.971C68.1957 13.1814 67.5979 11.4013 66.8103 9.70638C66.146 8.26714 64.9788 7.24452 63.4225 6.75214C62.0655 6.31658 60.6801 6.3734 59.3231 6.7048C55.8309 7.54751 52.4717 8.78791 49.1314 10.0946C44.4625 11.9221 39.8032 13.759 35.1154 15.5391C28.7669 17.9441 22.3995 20.2924 16.0415 22.6785C13.4319 23.6538 10.8318 24.648 8.14625 25.6611C9.24703 28.4355 10.3193 31.2003 11.4391 33.9463C11.6099 34.3723 11.9705 34.7795 12.3406 35.0636C13.4034 35.8873 14.6276 35.9157 15.7189 35.2151C15.8327 35.1393 15.9087 34.8931 15.8802 34.7416C15.6619 33.416 15.8992 32.1472 16.3831 30.9163C18.2905 26.0304 24.2689 24.4491 28.3114 27.7916C28.9757 28.3408 29.5166 29.0604 30.1144 29.7043C34.4037 28.0757 38.7499 26.4186 43.096 24.7711C45.6297 23.8053 48.1634 22.8489 50.6971 21.9021C51.0198 21.779 51.1621 21.6275 51.1052 21.2866C51.0577 21.012 51.0103 20.7279 51.0103 20.4439C50.9818 17.8873 51.9592 15.7853 53.9046 14.1093C56.666 11.7327 61.2874 11.8558 63.8685 14.4218C64.4474 14.9899 64.9408 15.6433 65.4723 16.2682C66.573 15.861 67.6928 15.4255 68.8885 14.971ZM25.7967 5.15193C26.5559 6.82789 27.315 8.36182 27.9508 9.93363C28.5961 11.5149 29.118 13.1435 29.7064 14.7721C35.7037 12.4618 41.7485 10.1419 47.8503 7.7937C47.7459 7.71795 47.689 7.66114 47.6225 7.63273C44.2917 6.21243 40.9799 4.76372 37.6301 3.40022C35.9599 2.71848 34.1569 2.46282 32.4014 2.95519C30.1998 3.58013 28.0457 4.39444 25.7967 5.15193ZM9.04775 22.4986C15.0926 20.2261 21.052 17.982 26.9639 15.7569C26.4799 12.2819 24.7434 9.35604 23.4338 6.20296C21.7352 6.87524 20.0745 7.48123 18.4518 8.18192C16.943 8.83526 15.7853 9.91469 15.0072 11.3539C13.0239 15.0373 11.0595 18.7395 9.04775 22.4986ZM56.7704 27.7253C56.6091 27.6496 56.5426 27.6117 56.4667 27.5833C54.7586 27.0625 53.4016 26.0588 52.3862 24.6101C52.13 24.2503 51.9308 24.2503 51.5796 24.3923C49.1219 25.3392 46.6641 26.2671 44.2063 27.2045C39.974 28.8142 35.7512 30.4239 31.5189 32.0241C31.1962 32.1472 31.0254 32.2892 31.0918 32.668C31.3101 33.7853 31.2152 34.9026 30.8546 35.9726C30.6174 36.7016 30.2473 37.3834 29.9246 38.103C38.8542 34.6564 47.7744 31.2098 56.7704 27.7253ZM18.4423 33.8042C18.4329 36.607 20.5965 38.8037 23.3294 38.8605C26.3756 38.9268 28.5202 36.5785 28.5676 33.8421C28.6151 30.9636 26.3566 28.6911 23.4908 28.6911C20.6629 28.6911 18.4518 30.9257 18.4423 33.8042ZM53.6673 20.1693C53.5629 22.8584 55.7645 25.112 58.45 25.2161C61.4772 25.3297 63.7547 23.0288 63.8116 20.264C63.8685 17.395 61.61 15.1414 58.8201 15.0657C55.8309 14.9899 53.5345 17.6506 53.6673 20.1693Z" fill="rgb(0,0,0)" fill-rule="nonzero" />
		<path id="Vector" d="M2.04479 42.2029C1.39002 42.1651 0.896566 41.7674 0.754224 41.133C0.621371 40.5554 0.944013 39.9399 1.55134 39.6937C2.75651 39.2108 3.97116 38.7469 5.17633 38.2829C5.91651 37.9988 6.66618 37.7242 7.42533 37.4781C8.00419 37.2981 8.6305 37.6106 8.86774 38.1503C9.13344 38.7563 8.97212 39.4665 8.42173 39.76C7.89032 40.0441 7.31146 40.2619 6.74209 40.4796C5.41356 41.0004 4.08503 41.5023 2.75651 42.0041C2.52876 42.0988 2.28203 42.1461 2.04479 42.2029Z" fill="rgb(0,0,0)" fill-rule="nonzero" />
		<path id="Vector" d="M5.1288 32.6869C5.81205 32.6869 6.29601 33.0656 6.47631 33.6527C6.63763 34.1924 6.40039 34.8647 5.83103 35.1298C4.90106 35.5559 3.93313 35.9157 2.9652 36.2755C2.5097 36.446 2.05421 36.6069 1.57973 36.7111C0.962916 36.8437 0.241715 36.3797 0.0614148 35.7926C-0.137864 35.1298 0.15631 34.4765 0.820574 34.2208C2.13012 33.719 3.45865 33.2455 4.77769 32.7626C4.92952 32.7153 5.09084 32.6964 5.1288 32.6869Z" fill="rgb(0,0,0)" fill-rule="nonzero" />
		<path id="Vector" d="M31.7759 22.6502C31.1971 22.6596 30.6846 22.3093 30.5328 21.8264C30.362 21.2772 30.5708 20.5671 31.1117 20.3209C32.2979 19.7717 33.5125 19.2509 34.7367 18.7964C35.3345 18.5692 35.8944 18.8911 36.1506 19.4213C36.4258 19.9989 36.3499 20.7091 35.8185 20.9742C34.5658 21.5897 33.2468 22.101 31.9562 22.6502C31.9088 22.6786 31.8329 22.6502 31.7759 22.6502Z" fill="rgb(0,0,0)" fill-rule="nonzero" />
	</g>
</svg>
