<svg viewBox="0 0 76.332 44.9048" xmlns="http://www.w3.org/2000/svg" xmlns:xlink="http://www.w3.org/1999/xlink" width="76.332031" height="44.904785" fill="none" customFrame="#000000">
	<g id="Group">
		<path id="Vector" d="M11.4842 42.3507C11.4842 36.7574 11.4842 31.2286 11.4842 25.6245C11.2602 25.6245 11.047 25.6245 10.8444 25.6245C8.31723 25.6245 5.80075 25.6245 3.27361 25.6137C1.74879 25.603 0.533202 24.6672 0.13867 23.1935C0.0320392 22.8063 5.00196e-05 22.376 5.00196e-05 21.9781C5.00196e-05 15.9867 0.0213761 10.0062 5.00196e-05 4.01483C-0.010613 1.56237 1.68481 0.00268878 3.89206 0.00268878C9.86337 0.00268878 15.8347 -0.00806699 21.806 0.0134459C23.8959 0.0242023 25.4208 1.56237 25.4314 3.67063C25.4527 9.85557 25.4527 16.0405 25.4314 22.2255C25.4208 24.1724 23.9812 25.603 22.0619 25.6137C19.5774 25.6352 17.0823 25.6245 14.5978 25.6245C14.4378 25.6245 14.2885 25.6245 14.0859 25.6245C14.0859 31.1963 14.0859 36.7251 14.0859 42.3077C21.5181 42.3077 28.9716 42.3077 36.4997 42.3077C35.7213 40.8448 36.0945 39.3066 35.9878 37.8115C35.9665 37.5749 35.8599 37.2952 35.7106 37.1231C35.0175 36.3271 34.7403 35.3806 34.7296 34.3694C34.6976 30.7983 34.6763 27.2379 34.7403 23.6668C34.7723 21.9996 35.6253 20.655 36.7449 19.4826C37.0222 19.1814 37.3101 18.891 37.6619 18.5145C37.2567 18.5145 36.8942 18.5145 36.5423 18.5145C35.8812 18.5145 35.2308 18.5252 34.5697 18.5145C33.6953 18.5037 33.2048 18.0197 33.2048 17.2237C33.2154 16.4277 33.7166 15.9545 34.5803 15.9545C35.7319 15.9545 36.8942 15.9222 38.0458 15.9652C38.5043 15.9867 38.6429 15.8039 38.7389 15.4059C39.2294 13.3944 39.7092 11.3722 40.2744 9.38229C40.7436 7.75807 41.5966 6.35973 43.0788 5.42392C44.0384 4.81081 45.1154 4.58492 46.203 4.57417C51.5666 4.53114 56.9407 4.52038 62.3042 4.57417C64.1916 4.59568 65.6098 5.60678 66.5908 7.22025C67.4012 8.54329 67.6571 10.0599 68.0943 11.5228C68.4781 12.8243 68.8514 14.1366 69.1926 15.4597C69.2992 15.8684 69.4911 15.976 69.8963 15.9652C70.9413 15.9329 71.997 15.9545 73.0419 15.9545C73.8203 15.9545 74.3642 16.4493 74.3855 17.1592C74.4175 17.9121 73.9056 18.4822 73.1166 18.5145C72.1996 18.5468 71.2825 18.5252 70.2162 18.5252C70.7387 19.1599 71.1759 19.6869 71.6131 20.2032C72.7647 21.5693 73.3085 23.1182 73.1272 24.9361C73.0419 25.7213 73.1059 26.5173 73.1059 27.3025C73.1059 29.5936 73.1166 31.8955 73.1059 34.1866C73.1059 35.3268 72.754 36.3486 72.0396 37.2414C71.9223 37.392 71.8583 37.6179 71.837 37.8223C71.805 38.2095 71.8263 38.6075 71.8263 39.0055C71.837 40.1564 71.9436 41.3396 71.1013 42.4045C72.3808 42.4045 73.5538 42.3937 74.716 42.4045C75.0253 42.4045 75.3665 42.4152 75.6544 42.5228C76.1555 42.7164 76.4221 43.3403 76.3048 43.9104C76.1982 44.459 75.761 44.8462 75.1959 44.9C75.0679 44.9107 74.9506 44.9 74.8227 44.9C50.5429 44.9 26.2738 44.9 1.99404 44.8892C1.68481 44.8892 1.35426 44.8354 1.07702 44.7171C0.62917 44.5127 0.341268 43.9319 0.437235 43.5339C0.586518 42.8885 0.991714 42.469 1.55686 42.426C1.98338 42.3937 2.4099 42.3937 2.83642 42.3937C5.44887 42.3937 8.06131 42.3937 10.6738 42.383C10.919 42.3507 11.1856 42.3507 11.4842 42.3507ZM70.4615 23.57C70.3015 22.7848 69.9816 22.1717 69.4805 21.6338C68.83 20.9454 68.2009 20.2355 67.5505 19.5579C67.4652 19.4611 67.2839 19.4073 67.1559 19.418C66.1003 19.4933 65.0446 19.6654 63.989 19.6654C56.6315 19.6869 49.274 19.7084 41.9272 19.6332C40.6902 19.6224 39.7412 19.859 38.9842 20.8379C38.4937 21.4833 37.9925 22.1179 37.5233 22.7848C37.406 22.9569 37.4167 23.2366 37.3634 23.4947C38.5256 23.4947 39.5919 23.4624 40.6583 23.5055C41.3194 23.5377 42.0125 23.5915 42.6416 23.7851C44.6142 24.3982 45.8512 26.1193 45.7872 28.0016C45.7339 29.8195 44.337 31.4652 42.5456 31.917C41.9378 32.0676 41.2874 32.0676 40.6476 32.0783C39.5706 32.0998 38.4937 32.0891 37.3847 32.0891C37.3847 32.7237 37.3847 33.2723 37.3847 33.8316C37.3847 35.0901 37.406 35.1332 38.611 35.5096C38.8455 35.5849 39.0908 35.6064 39.336 35.6064C49.0714 35.6064 58.8068 35.6064 68.5421 35.6064C68.9473 35.6064 69.3525 35.5527 69.7577 35.4881C70.1629 35.4236 70.3975 35.1332 70.4188 34.7567C70.4508 33.8854 70.4295 33.0141 70.4295 32.0998C69.1926 32.0998 68.0303 32.1106 66.8574 32.0891C66.2922 32.0783 65.7058 32.0891 65.1726 31.9277C63.168 31.3469 61.963 29.6259 62.0803 27.7758C62.2403 25.3341 64.2023 23.5808 66.6441 23.5592C67.8917 23.5592 69.1393 23.57 70.4615 23.57ZM22.883 12.8566C22.883 9.95238 22.8616 7.04814 22.8936 4.14391C22.9043 3.04676 22.755 2.71331 21.3475 2.58423C21.2195 2.57347 21.1022 2.58423 20.9743 2.58423C18.0633 2.58423 15.1522 2.58423 12.2306 2.58423C9.54348 2.58423 6.86705 2.55196 4.17997 2.59499C3.03902 2.6165 2.44189 3.06827 2.4952 4.25147C2.58051 6.27368 2.51653 8.29589 2.51653 10.3289C2.51653 14.1689 2.51653 17.9982 2.51653 21.8382C2.51653 22.5051 2.70846 22.7955 3.32692 22.9892C3.60416 23.0752 3.91339 23.129 4.21195 23.129C9.87403 23.1397 15.5468 23.1397 21.2089 23.129C21.3475 23.129 21.4968 23.1397 21.6354 23.129C22.5737 23.0429 22.8723 22.7095 22.8723 21.7844C22.883 18.8157 22.883 15.8361 22.883 12.8566ZM66.9533 16.9978C66.8574 16.6536 66.7827 16.3847 66.7081 16.1158C66.0683 13.8892 65.4605 11.6519 64.7781 9.43607C64.3196 7.91941 62.9334 6.9836 61.3126 6.99436C56.3863 7.03739 51.4706 6.99436 46.5443 7.01587C44.9021 7.02663 43.6546 7.83336 43.0468 9.33926C42.471 10.7806 42.1511 12.3188 41.7459 13.8139C41.458 14.8896 41.2447 15.976 40.9675 17.1807C42.1298 17.1807 43.2494 17.1807 44.3583 17.1807C51.2147 17.1807 58.071 17.1914 64.9274 17.1914C65.6098 17.1807 66.2496 17.0624 66.9533 16.9978ZM62.1123 38.1342C56.6102 38.1342 51.1827 38.1342 45.7339 38.1342C45.6699 39.554 45.9258 40.9739 45.1581 42.2862C50.9907 42.2862 56.7595 42.2862 62.6348 42.2862C61.931 40.9309 62.1763 39.5218 62.1123 38.1342ZM37.3207 29.5075C38.7176 29.5075 40.0825 29.5183 41.4473 29.5075C42.0871 29.5075 42.5456 29.1526 42.9188 28.6685C43.3667 28.0985 43.3987 27.5929 42.8975 27.0873C42.5136 26.7001 42.0018 26.2376 41.5113 26.1946C40.1358 26.0762 38.7282 26.1515 37.3101 26.1515C37.3207 27.2164 37.3207 28.3351 37.3207 29.5075ZM70.4082 29.486C70.4082 28.3566 70.4082 27.2272 70.4082 26.044C69.2459 26.044 68.1156 26.0547 66.9853 26.044C66.2282 26.044 65.6098 26.3129 65.098 26.8615C64.7354 27.2595 64.4262 27.7112 64.6181 28.249C64.842 28.8729 65.2792 29.4323 65.9723 29.4645C67.4438 29.5291 68.9153 29.486 70.4082 29.486ZM69.2672 38.1342C67.7104 38.1342 66.2069 38.1342 64.6821 38.1342C64.6821 38.8334 64.6501 39.5003 64.6928 40.1564C64.7461 41.1675 65.7377 42.1248 66.7614 42.1786C67.913 42.2431 69.1393 41.4041 69.2566 40.393C69.3312 39.6508 69.2672 38.8979 69.2672 38.1342ZM38.5576 38.1127C38.5576 38.7258 38.5576 39.3066 38.5576 39.8982C38.5576 40.8878 39.0588 41.6731 39.9545 42.028C40.8395 42.3722 41.6393 42.2001 42.3537 41.5547C43.4626 40.5759 43.0681 39.3174 43.1214 38.1127C41.5859 38.1127 40.0931 38.1127 38.5576 38.1127Z" fill="rgb(0,0,0)" fill-rule="nonzero" />
		<path id="Vector" d="M54.1788 30.2389C55.5863 30.2389 56.9831 30.2389 58.3907 30.2389C59.1477 30.2389 59.6489 30.7014 59.6809 31.4221C59.7129 32.2611 59.3077 32.7774 58.476 32.7882C55.6503 32.8097 52.8352 32.8097 50.0095 32.7882C49.1458 32.7774 48.6766 32.2719 48.698 31.5081C48.7193 30.7014 49.2098 30.2496 50.0948 30.2496C51.449 30.2389 52.8139 30.2389 54.1788 30.2389Z" fill="rgb(0,0,0)" fill-rule="nonzero" />
		<path id="Vector" d="M54.2427 24.9683C55.6289 24.9683 57.0151 24.9683 58.4013 24.9683C59.1797 24.9683 59.6702 25.42 59.6808 26.1515C59.7022 27.0012 59.297 27.496 58.4759 27.5068C55.6396 27.5283 52.7925 27.5175 49.9561 27.5068C49.1458 27.496 48.6766 26.969 48.7086 26.173C48.7299 25.4415 49.2417 24.979 50.0521 24.979C51.4276 24.9575 52.8352 24.9683 54.2427 24.9683Z" fill="rgb(0,0,0)" fill-rule="nonzero" />
		<path id="Vector" d="M10.0021 15.094C10.0021 16.2341 10.0021 17.3205 10.0021 18.4177C10.0021 18.8695 10.0021 19.3105 10.0021 19.7622C10.0021 20.4399 9.76756 20.8056 9.24507 20.9562C8.66927 21.1283 8.04015 20.8809 7.74158 20.3323C7.62429 20.1065 7.53898 19.8268 7.53898 19.5794C7.52832 15.3306 7.52832 11.0818 7.52832 6.83303C7.52832 6.0263 8.05081 5.49924 8.8612 5.49924C10.6419 5.48848 12.412 5.47772 14.1927 5.49924C16.5066 5.53151 18.7032 7.48917 18.9378 9.69424C19.2044 12.222 17.6156 14.5024 15.1311 14.9326C13.9688 15.137 12.7639 15.0509 11.5803 15.0832C11.0898 15.1047 10.5886 15.094 10.0021 15.094ZM10.0235 12.5985C11.367 12.5985 12.6572 12.6092 13.9581 12.5985C14.2354 12.5985 14.5233 12.5662 14.7899 12.4802C16.3893 11.9746 17.0184 10.1783 15.9415 9.02734C15.5469 8.60784 14.9711 8.16683 14.438 8.1238C12.9878 7.99473 11.5163 8.07002 10.0235 8.07002C10.0235 9.52214 10.0235 11.028 10.0235 12.5985Z" fill="rgb(0,0,0)" fill-rule="nonzero" />
	</g>
</svg>
