<svg viewBox="0 0 54.0039 74.0055" xmlns="http://www.w3.org/2000/svg" xmlns:xlink="http://www.w3.org/1999/xlink" width="54.003906" height="74.005493" fill="none" customFrame="#000000">
	<g id="Group">
		<path id="Vector" d="M5.63616 51.1814C4.38948 51.1276 3.46803 50.5627 3.15636 49.3523C2.93955 48.5184 2.89889 47.6307 3.34607 46.8237C3.73904 46.1243 4.41658 45.7612 5.18898 45.694C6.09689 45.6267 7.01834 45.5998 7.91269 45.7074C8.44118 45.7747 8.92901 46.1647 9.47104 46.4337C9.79626 45.5595 10.1621 44.5776 10.5551 43.5958C10.8803 42.7619 11.192 41.9146 11.5579 41.0942C12.4387 39.0767 14.0512 38.068 16.2193 38.0546C21.721 38.0142 27.2226 38.0142 32.7107 38.0546C34.8111 38.068 36.4101 39.0364 37.2367 41C37.9684 42.7485 38.6188 44.5373 39.2964 46.2992C39.3235 46.353 39.337 46.4068 39.3912 46.5278C40.0281 45.694 40.936 45.694 41.8168 45.6805C42.4537 45.6671 43.1042 45.6671 43.7411 45.7478C44.9064 45.8957 45.7195 46.8775 45.7601 48.0476C45.7872 48.6394 45.7872 49.2178 45.462 49.7558C44.9335 50.6434 44.1882 51.1814 43.05 51.168C43.1584 51.3294 43.2397 51.4504 43.321 51.5715C44.4321 53.0509 45.0284 54.7052 45.0013 56.5747C44.9877 58.5249 45.0148 60.4886 45.0148 62.4388C45.0148 63.0709 45.0555 63.7165 44.9742 64.3486C44.8929 64.9539 44.5406 65.4515 44.0527 65.8281C43.7546 66.0567 43.6055 66.3123 43.6191 66.7158C43.6462 67.4017 43.6191 68.0876 43.6055 68.7736C43.5784 70.0244 42.3318 71.2483 41.058 71.2617C39.9197 71.2752 38.7814 71.2752 37.6432 71.2617C36.2745 71.2483 35.0414 69.8226 35.1769 68.4508C35.2447 67.7379 35.1905 67.0251 35.1905 66.2719C27.995 66.2719 20.8131 66.2719 13.6582 66.2719C13.6582 67.0386 13.604 67.7514 13.6718 68.4508C13.7937 69.6881 12.5064 71.2348 11.2326 71.2483C9.99952 71.2752 8.7664 71.2752 7.53327 71.2483C6.3679 71.2348 5.21608 70.0513 5.17543 68.8408C5.14833 68.0204 5.16188 67.2 5.14833 66.3795C5.14833 66.2988 5.08057 66.1778 5.01282 66.124C4.03716 65.438 3.65774 64.4831 3.67129 63.3265C3.69839 61.2418 3.71194 59.1705 3.68484 57.0858C3.65774 55.028 4.24042 53.1989 5.44645 51.5446C5.5142 51.4504 5.58195 51.3428 5.64971 51.2352C5.66326 51.2352 5.64971 51.2218 5.63616 51.1814ZM42.3318 54.1941C41.0715 52.2439 39.5132 51.0604 37.1689 51.0604C28.6996 51.0873 20.2304 51.0738 11.7611 51.0604C10.5145 51.0604 9.40328 51.3697 8.41407 52.096C7.65523 52.6474 7.03189 53.3065 6.57116 54.1941C8.41407 54.1941 10.2028 54.1941 11.9915 54.1941C12.791 54.1941 13.4956 54.4362 14.0512 55.028C14.8643 55.9022 15.3927 56.9648 15.8128 58.0542C16.1922 59.036 15.8806 59.8161 14.932 60.3406C14.4306 60.6096 13.8073 60.771 13.2382 60.7845C11.1784 60.8383 9.11872 60.8114 7.04544 60.8114C6.72022 60.8114 6.40855 60.8114 6.04268 60.8114C6.04268 61.3628 6.04268 61.847 6.04268 62.3312C6.04268 62.5329 6.04268 62.7347 6.01558 62.923C5.86652 63.8106 6.13754 64.1469 7.05899 64.1334C8.75284 64.1065 10.4331 64.0258 12.127 64.0124C20.3388 63.9989 28.537 63.9989 36.7488 63.9989C36.9927 63.9989 37.2367 64.0258 37.4806 64.0393C39.0525 64.0527 40.6244 64.0931 42.1963 64.0662C42.4131 64.0662 42.7925 63.7972 42.7925 63.6358C42.8467 62.7078 42.8196 61.7663 42.8196 60.7845C42.657 60.7845 42.4808 60.7845 42.2911 60.7845C40.2314 60.7845 38.1581 60.8114 36.0984 60.7845C35.4751 60.771 34.8382 60.7038 34.2555 60.502C33.185 60.1254 32.6836 59.1302 33.0901 58.0945C33.4289 57.2069 33.9032 56.373 34.391 55.5391C34.8788 54.7187 35.6241 54.2345 36.6133 54.1807C37.1554 54.1538 37.6974 54.1672 38.2259 54.1672C39.5403 54.1941 40.8818 54.1941 42.3318 54.1941ZM10.9616 48.8412C19.9458 48.8412 28.9165 48.8412 37.9142 48.8412C37.0741 46.6489 36.2339 44.4835 35.4073 42.3181C34.8924 40.9731 33.9709 40.2603 32.5345 40.2603C27.1142 40.2468 21.6939 40.2468 16.2735 40.2603C14.9862 40.2603 14.0241 40.8924 13.5363 42.1164C13.184 43.004 12.8316 43.8917 12.4929 44.7794C11.9779 46.1378 11.4766 47.4828 10.9616 48.8412ZM42.8738 56.3999C40.8818 56.3999 38.9305 56.3864 36.9792 56.4133C36.7624 56.4133 36.5049 56.494 36.3423 56.642C35.7596 57.1396 35.4073 57.7718 35.1227 58.5384C37.738 58.5384 40.2991 58.5384 42.8738 58.5384C42.8738 57.8255 42.8738 57.1396 42.8738 56.3999ZM5.94783 58.5653C8.42763 58.5653 10.8532 58.5653 13.2788 58.5653C13.6311 58.5653 13.6989 58.4039 13.5227 58.1349C13.2246 57.6776 12.8994 57.2338 12.5742 56.7899C12.3438 56.4671 12.005 56.3864 11.5985 56.3864C9.86401 56.3999 8.12951 56.3864 6.38145 56.3864C6.23239 56.3864 6.08333 56.3864 5.93428 56.3864C5.94783 57.1531 5.94783 57.8524 5.94783 58.5653ZM7.2216 66.3392C7.2216 66.9175 7.2487 67.4151 7.2216 67.9128C7.1674 68.7332 7.41131 69.0964 8.46828 69.1233C9.29488 69.1367 10.1215 69.0695 10.9481 69.0426C11.2733 69.0291 11.5172 68.8543 11.5308 68.5718C11.5714 67.8186 11.5443 67.0655 11.5443 66.3392C10.0808 66.3392 8.68509 66.3392 7.2216 66.3392ZM37.3451 66.3392C37.3451 67.0789 37.3315 67.8052 37.3451 68.5315C37.3451 68.8677 37.589 69.0291 37.8871 69.0291C38.8763 69.0426 39.852 69.056 40.8412 69.0291C41.2477 69.0157 41.5729 68.8005 41.5865 68.3701C41.6136 67.6976 41.6 67.0386 41.6 66.3257C40.1772 66.3392 38.795 66.3392 37.3451 66.3392ZM8.29212 48.9622C8.0753 48.5856 7.92625 48.2897 7.73653 48.0207C7.68233 47.94 7.54682 47.8728 7.43842 47.8728C6.85573 47.8594 6.27305 47.8594 5.69036 47.8728C5.37869 47.8728 5.16188 48.0207 5.17543 48.3704C5.17543 48.7067 5.32449 48.9488 5.67681 48.9622C6.51696 48.9757 7.35711 48.9622 8.29212 48.9622ZM40.5431 48.9622C41.3561 48.9622 42.1421 48.9622 42.9416 48.9622C43.321 48.9622 43.5242 48.747 43.5378 48.4108C43.5513 48.0745 43.3074 47.8862 42.9822 47.8728C42.6976 47.8594 42.386 47.9131 42.115 47.8594C41.2477 47.6845 40.787 48.088 40.5431 48.8681C40.5295 48.8815 40.5295 48.895 40.5431 48.9622Z" fill="rgb(0,0,0)" fill-rule="nonzero" />
		<path id="Vector" d="M48.6324 28.9357C50.0688 28.9357 51.3832 28.9492 52.6841 28.9357C53.2533 28.9357 53.6733 29.1106 53.9037 29.6351C54.1341 30.1731 53.9443 30.59 53.5649 30.9935C51.5052 33.1858 49.4726 35.3781 47.4264 37.5838C46.4101 38.6733 45.4073 39.7627 44.391 40.8387C43.7948 41.4708 43.0766 41.4842 42.4668 40.8387C40.0141 38.2294 37.5614 35.6067 35.1087 32.9975C34.4583 32.3116 33.7943 31.6256 33.1303 30.9397C32.7644 30.5631 32.6154 30.1462 32.8186 29.6485C33.0083 29.1644 33.4013 28.9223 33.984 28.9223C35.2036 28.9223 36.4231 28.9223 37.6292 28.9223C37.7918 28.9223 37.9679 28.9223 38.0899 28.9223C38.0899 27.4832 38.0899 26.0844 38.0899 24.6722C38.0899 23.4348 38.0628 25.2909 38.0899 24.0535C38.1576 21.2694 37.3717 18.7409 35.7727 16.4679C33.7807 13.63 31.1654 11.6126 27.7506 10.7921C23.4279 9.74306 19.4304 10.5231 15.9072 13.2669C13.3596 15.244 11.6387 17.7859 10.8934 20.9197C10.6901 21.767 10.5682 22.6682 10.5682 23.5424C10.5411 29.4334 10.5546 32.7554 10.5546 38.6464C10.5546 39.4399 10.121 39.8568 9.37571 39.8299C8.87433 39.803 8.4407 39.3996 8.42715 38.9019C8.4136 38.5119 8.4407 38.1084 8.4407 37.7049C8.4407 32.1367 8.4407 29.124 8.42715 23.5693C8.4136 20.0589 9.57897 16.9386 11.7607 14.2083C13.9017 11.5319 16.5847 9.55476 19.9724 8.70743C24.9049 7.48351 29.5529 8.1022 33.6994 11.1418C37.0058 13.5628 39.174 16.7638 40.0277 20.7852C40.2309 21.7401 40.2987 22.7489 40.3122 23.7307C40.3529 26.7838 40.3393 26.7569 40.3529 29.8099C40.3529 30.7649 39.987 31.1415 39.0249 31.1415C38.1983 31.1415 37.3717 31.1415 36.4773 31.1415C38.8352 33.6296 41.1388 36.064 43.4831 38.5522C45.7325 36.1178 47.982 33.6834 50.2992 31.1953C50.1095 31.1684 50.0011 31.1549 49.8927 31.1549C49.1745 31.1549 48.4427 31.1549 47.7245 31.1549C46.8437 31.1549 46.4507 30.7649 46.4507 29.9041C46.4778 27.1873 46.532 27.5639 46.532 24.847C46.532 22.0629 46.2339 19.3327 45.2447 16.6965C44.4181 14.4773 43.2663 12.4599 41.7893 10.6038C38.6048 6.63619 34.5667 4.0135 29.5664 2.84338C27.9132 2.45334 26.26 2.18435 24.5662 2.15745C22.913 2.144 21.2598 2.3054 19.6337 2.66854C17.1539 3.21997 14.7689 4.0135 12.6279 5.38537C9.36216 7.42972 6.90946 10.2138 4.94459 13.4417C3.65726 15.5533 2.93907 17.8666 2.519 20.2607C2.32928 21.3367 2.23443 22.4395 2.23443 23.529C2.20733 29.8772 2.22088 33.9121 2.22088 40.2469C2.22088 41.1749 2.23443 42.1164 2.23443 43.0444C2.23443 43.6765 1.7737 44.1473 1.15036 44.1473C0.472823 44.1473 0.0120949 43.7169 0.0120949 43.0579C0.0120949 35.4454 -0.0285575 30.1462 0.0391966 22.5337C0.0662982 19.5882 0.852245 16.7772 2.08537 14.0873C3.60306 10.7652 5.8254 7.98115 8.58976 5.60056C11.5032 3.08548 14.8367 1.40427 18.6174 0.583842C20.7855 0.113104 22.9943 -0.0617412 25.2031 0.0189567C29.5935 0.180353 33.7265 1.24288 37.3988 3.69071C43.0495 7.44317 46.8302 12.5406 48.2259 19.2251C48.4969 20.5297 48.5647 21.8881 48.6189 23.2196C48.6866 24.9143 48.6324 23.5155 48.6324 25.2102C48.6324 26.4341 48.6324 27.6446 48.6324 28.9357Z" fill="rgb(0,0,0)" fill-rule="nonzero" />
		<path id="Vector" d="M38.9575 71.7998C41.1798 71.7998 43.3886 71.7998 45.611 71.7998C46.3291 71.7998 46.7628 72.2302 46.7492 72.943C46.7357 73.3734 46.5595 73.7231 46.0988 73.8173C45.7329 73.8979 45.3535 73.9921 44.9741 73.9921C40.8275 74.0055 36.6945 74.0056 32.548 74.0056C31.762 74.0056 31.3284 73.6962 31.2335 73.0775C31.1251 72.3647 31.5859 71.7998 32.3041 71.7998C34.5264 71.7998 36.7352 71.7998 38.9575 71.7998Z" fill="rgb(0,0,0)" fill-rule="nonzero" />
		<path id="Vector" d="M9.95883 71.7997C12.1134 71.7997 14.268 71.7997 16.4226 71.7997C17.1137 71.7997 17.5202 72.136 17.5744 72.7143C17.6286 73.4137 17.3305 73.8575 16.5852 73.9113C15.6231 73.9786 14.661 73.9517 13.6853 73.9651C10.5009 73.9786 7.31642 73.992 4.13198 73.992C3.79321 73.992 3.46799 73.9517 3.12922 73.8979C2.47878 73.7903 2.09936 73.3868 2.15356 72.8892C2.20776 72.2974 2.70914 71.7997 3.30538 71.7863C4.30814 71.7728 5.3109 71.7728 6.30011 71.7728C7.51968 71.7997 8.73926 71.7997 9.95883 71.7997Z" fill="rgb(0,0,0)" fill-rule="nonzero" />
		<path id="Vector" d="M24.349 71.7998C25.135 71.7998 25.9209 71.7998 26.7069 71.7998C27.3302 71.7998 27.7909 72.1629 27.8316 72.6606C27.8993 73.4272 27.6283 73.7904 26.9237 73.9383C26.8017 73.9652 26.6798 73.9921 26.5713 73.9921C25.0672 73.9921 23.5495 73.9921 22.0454 73.9786C21.2594 73.9652 20.8936 73.5886 20.8936 72.8623C20.8936 72.2302 21.3001 71.8132 21.9641 71.7998C22.75 71.7864 23.5495 71.7998 24.349 71.7998Z" fill="rgb(0,0,0)" fill-rule="nonzero" />
		<path id="Vector" d="M24.404 54.1941C26.003 54.1941 27.602 54.1941 29.201 54.1941C29.6347 54.1941 30.0547 54.2345 30.4748 54.2883C31.3014 54.4093 31.9518 55.418 31.7079 56.2116C31.3556 57.3279 31.0033 58.4308 30.5968 59.5202C30.2444 60.4482 29.4043 60.7575 28.537 60.771C25.7591 60.8113 22.9676 60.7979 20.1762 60.771C19.1192 60.7575 18.3604 60.2196 18.0216 59.2243C17.6557 58.1349 17.317 57.032 17.0595 55.9157C16.9375 55.3911 17.3441 54.5842 18.0894 54.369C18.4823 54.2614 18.9024 54.1941 19.3089 54.1807C21.0163 54.1807 22.7102 54.1941 24.404 54.1941ZM19.336 56.4268C19.5257 57.0454 19.6884 57.6507 19.9052 58.2156C19.9729 58.377 20.2439 58.5653 20.4201 58.5653C23.0625 58.5922 25.7049 58.5787 28.3609 58.5653C28.5099 58.5653 28.7674 58.4442 28.8081 58.3232C29.052 57.7045 29.2417 57.0589 29.4585 56.4133C26.0572 56.4268 22.7373 56.4268 19.336 56.4268Z" fill="rgb(0,0,0)" fill-rule="nonzero" />
	</g>
</svg>
