<svg viewBox="0 0 58.9941 49.9825" xmlns="http://www.w3.org/2000/svg" xmlns:xlink="http://www.w3.org/1999/xlink" width="58.994141" height="49.982544" fill="none" customFrame="#000000">
	<g id="Group">
		<path id="Vector" d="M36.736 1.81C37.9092 1.70993 39.0662 1.57651 40.2313 1.5098C42.5453 1.38471 44.7623 1.91006 46.9631 2.58551C48.3547 3.0108 49.7626 3.31934 51.2351 3.311C52.7805 3.29432 54.2046 2.88571 55.5315 2.08518C55.7985 1.92674 56.0493 1.6599 56.4134 1.88505C56.7775 2.1102 56.818 2.46877 56.8099 2.8607C56.8018 7.93074 56.8018 13.0091 56.8099 18.0792C56.8099 18.6045 56.64 18.9464 56.1869 19.1799C54.9408 19.8303 53.6058 20.1472 52.2222 20.3223C49.9163 20.6142 47.7479 19.9388 45.5633 19.3884C44.3416 19.0798 43.1198 18.7379 41.8738 18.5628C40.2232 18.3293 38.5726 18.4711 36.9787 19.0548C36.7279 19.1466 36.7279 19.2883 36.7279 19.4968C36.7279 20.9811 36.7279 22.4738 36.7279 23.9581C36.7279 24.3333 36.6146 24.6836 36.2667 24.8003C36.032 24.8837 35.7084 24.8504 35.4738 24.7586C35.1501 24.6335 35.1097 24.2917 35.1097 23.9498C35.1177 19.822 35.1097 15.6943 35.1097 11.5665C35.1097 8.03915 35.1177 4.50346 35.1016 0.976107C35.1016 0.384046 35.4495 0.0171347 35.9188 0.000456874C36.38 -0.0162209 36.7198 0.42574 36.7279 0.992785C36.744 1.27631 36.736 1.57651 36.736 1.81ZM51.3322 4.97878C51.3322 6.1629 51.3322 7.30533 51.3322 8.47277C52.6268 8.4144 53.8566 8.16423 55.0056 7.60553C55.0865 7.56383 55.1755 7.45543 55.1836 7.37204C55.1917 6.29632 55.1917 5.2206 55.1917 4.10319C53.9375 4.67858 52.6753 4.93708 51.3322 4.97878ZM36.736 7.04682C37.9982 6.87171 39.2118 6.70493 40.4336 6.53815C40.4336 5.42908 40.4336 4.28665 40.4336 3.13588C39.2361 3.07751 38.1033 3.27764 36.9787 3.56116C36.8816 3.58618 36.7521 3.7613 36.7521 3.86136C36.736 4.93708 36.736 6.00446 36.736 7.04682ZM45.7089 3.86136C44.5196 3.62788 43.3302 3.39439 42.1003 3.14422C42.1003 4.37838 42.1003 5.52914 42.1003 6.66323C43.3059 6.9134 44.4953 7.16357 45.7089 7.41373C45.7089 6.25463 45.7089 5.09552 45.7089 3.86136ZM42.1084 11.8917C43.3221 12.1586 44.5115 12.4171 45.7089 12.6756C45.7089 11.5165 45.7089 10.3407 45.7089 9.12321C44.5115 8.87304 43.3221 8.62287 42.1084 8.36437C42.1084 9.57351 42.1084 10.7493 42.1084 11.8917ZM50.8791 10.2406C49.6978 10.0321 48.5327 9.82367 47.3514 9.6152C47.3514 10.7743 47.3514 11.9334 47.3514 13.1509C48.5165 13.3844 49.6817 13.6179 50.8791 13.8514C50.8791 12.5922 50.8791 11.4081 50.8791 10.2406ZM36.736 17.262C37.982 17.0702 39.1956 16.8867 40.4417 16.7033C40.4417 15.6859 40.4417 14.6102 40.4417 13.5261C39.2604 13.5095 38.1195 13.6345 37.003 13.9681C36.8978 14.0015 36.7521 14.1682 36.744 14.2766C36.7279 15.2773 36.736 16.278 36.736 17.262ZM45.717 17.6622C45.717 16.5615 45.717 15.4941 45.717 14.36C44.5276 14.0932 43.3302 13.8263 42.1003 13.5428C42.1003 14.7186 42.1003 15.786 42.1003 16.845C43.2978 17.1202 44.4872 17.3871 45.717 17.6622ZM47.3595 18.1626C48.468 18.3544 49.5765 18.5378 50.7173 18.7296C50.7173 17.5622 50.7173 16.5031 50.7173 15.4941C49.5846 15.2773 48.4761 15.0605 47.3595 14.8437C47.3595 15.9111 47.3595 16.9868 47.3595 18.1626ZM52.376 18.5712C53.2984 18.5128 54.156 18.2876 54.9732 17.9291C55.0622 17.8874 55.1836 17.7623 55.1836 17.6789C55.1998 16.6449 55.1917 15.6109 55.1917 14.5935C54.2369 14.8687 53.3226 15.1355 52.376 15.4107C52.376 16.4197 52.376 17.4704 52.376 18.5712Z" fill="rgb(26,26,26)" fill-rule="nonzero" />
		<path id="Vector" d="M46.235 32.8387C47.0764 32.8054 47.8774 32.7637 48.6785 32.7303C48.816 32.722 48.9455 32.7303 49.083 32.747C49.7141 32.8471 50.2562 33.0722 50.4423 33.7894C50.6446 34.5816 50.4666 35.2904 49.8921 35.8407C49.5847 36.1326 49.1963 36.3327 48.816 36.5912C49.7708 37.717 49.9649 39.1096 49.9326 40.5856C49.9083 41.7363 49.9245 42.8954 49.9245 44.0462C49.9245 44.6966 49.7707 45.3054 49.3905 45.8391C49.3176 45.9391 49.2934 46.0892 49.2934 46.2226C49.2853 46.6646 49.2529 47.1149 49.2934 47.5569C49.3986 48.6576 48.4843 49.8918 47.2059 49.9585C46.2673 50.0002 45.3207 49.9918 44.3821 49.9001C43.4516 49.8084 42.6668 48.816 42.6506 47.8487C42.6425 47.5569 42.6506 47.265 42.6506 46.9398C38.5889 46.9398 34.5353 46.9398 30.4736 46.9398C30.4412 47.3317 30.4493 47.732 30.3765 48.1156C30.1823 49.0829 29.4541 49.8501 28.5155 49.9251C27.4961 50.0002 26.4685 49.9752 25.449 49.9001C24.6399 49.8417 23.6528 48.7744 23.7014 47.8821C23.7175 47.6319 23.6771 47.3818 23.6771 47.1316C23.6852 46.5062 23.6609 45.9141 23.3211 45.3471C23.1431 45.0469 23.0945 44.6383 23.0945 44.2714C23.0703 42.7453 23.0864 41.211 23.0864 39.685C23.0783 38.5759 23.402 37.5919 24.0816 36.7247C24.1221 36.6746 24.1545 36.6079 24.1949 36.5495C23.847 36.3077 23.4991 36.0909 23.1673 35.8407C22.5605 35.3904 22.3421 34.7567 22.4472 34.0145C22.5605 33.2056 23.1916 32.7387 24.1302 32.722C24.9231 32.7136 25.7241 32.7053 26.517 32.722C26.7598 32.7303 26.865 32.6386 26.9378 32.4051C27.2452 31.4628 27.5446 30.5205 27.9087 29.6032C28.6126 27.8521 29.9477 26.9265 31.7601 26.8931C34.9398 26.8347 38.1196 26.8681 41.3075 26.8764C43.0147 26.8848 44.5601 28.0355 45.1588 29.72C45.5229 30.7874 45.887 31.8381 46.235 32.8387ZM36.4529 45.247C40.0938 45.247 43.7267 45.247 47.3677 45.247C47.9422 45.247 48.2577 44.9468 48.3224 44.3547C48.3305 44.2547 48.3467 44.1629 48.3467 44.0629C48.3467 42.6703 48.3548 41.286 48.3467 39.8934C48.3467 39.5599 48.2982 39.2263 48.2334 38.9094C47.8774 37.2834 46.502 36.0409 45.0051 36.0409C39.3576 36.0242 33.71 36.0575 28.0624 36.0242C26.3957 36.0158 24.6723 37.7837 24.6885 39.5849C24.7046 41.1443 24.6885 42.6953 24.6885 44.2547C24.6885 44.9885 24.9555 45.247 25.6594 45.247C29.2599 45.247 32.8523 45.247 36.4529 45.247ZM45.0698 34.3231C44.5682 32.9054 44.1151 31.5212 43.5892 30.1619C43.1846 29.1196 42.3755 28.5776 41.2913 28.5692C38.1115 28.5525 34.9317 28.5442 31.7439 28.5692C30.7001 28.5776 29.6645 29.253 29.3408 30.2703C29.0334 31.2543 28.6612 32.2133 28.3133 33.189C28.1838 33.5559 28.0624 33.9228 27.9249 34.3147C33.6776 34.3231 39.3495 34.3231 45.0698 34.3231ZM25.2548 46.9315C25.2548 47.1316 25.2548 47.3067 25.2548 47.4818C25.2548 48.1156 25.4571 48.3157 26.072 48.3241C26.606 48.3241 27.1481 48.3157 27.6822 48.3241C28.7825 48.3574 28.9444 48.3324 28.8715 46.9815C28.8715 46.9732 28.8554 46.9648 28.8311 46.9231C27.6741 46.9315 26.4928 46.9315 25.2548 46.9315ZM47.7318 46.9398C46.5343 46.9398 45.3611 46.9398 44.1636 46.9398C44.1636 47.1399 44.1556 47.3067 44.1636 47.4735C44.1798 48.1323 44.3821 48.3241 45.0294 48.3324C45.5149 48.3324 46.0003 48.3157 46.4858 48.3407C47.8208 48.3991 47.7965 47.9988 47.7318 46.9398ZM26.3148 34.3731C25.4571 34.3731 24.7289 34.3731 24.0007 34.3731C23.9845 34.4148 23.9603 34.4565 23.9441 34.4982C24.4619 34.815 24.9797 35.1319 25.5542 35.4822C25.805 35.0986 26.0316 34.7733 26.3148 34.3731ZM48.9778 34.3647C48.2496 34.3647 47.5295 34.3647 46.8094 34.3647C46.7851 34.4148 46.7528 34.4648 46.7285 34.5148C46.9955 34.7817 47.214 35.1236 47.5295 35.2904C47.8208 35.4405 48.8241 34.7483 48.9778 34.3647Z" fill="rgb(26,26,26)" fill-rule="nonzero" />
		<path id="Vector" d="M24.1153 11.8746C21.6475 11.8746 19.1797 11.8163 16.712 11.8913C13.4917 11.983 10.587 13.0921 8.03025 15.1018C4.70482 17.7202 2.62542 21.1975 1.91341 25.4253C0.86157 31.7129 2.56878 37.1415 7.18878 41.4694C9.45428 43.5875 12.181 44.7632 15.1989 45.2552C16.979 45.5471 18.7671 45.472 20.5633 45.4887C21.1539 45.4971 21.51 45.839 21.4533 46.356C21.4129 46.7396 21.1863 46.9897 20.8222 47.0814C20.628 47.1315 20.4257 47.1482 20.2235 47.1398C18.9532 47.1231 17.6829 47.1565 16.4288 47.0731C13.2328 46.848 10.2715 45.8556 7.64997 43.9293C3.69344 41.0274 1.23376 37.0831 0.343743 32.1715C-0.683822 26.4844 0.602656 21.3226 4.06563 16.8029C6.67095 13.4007 10.0935 11.3076 14.2361 10.4987C15.1423 10.3236 16.0809 10.2402 17.0032 10.2319C22.0197 10.2069 27.0361 10.2152 32.0526 10.2152C32.5947 10.2152 32.886 10.4153 32.9507 10.8406C33.0397 11.391 32.7646 11.7829 32.2063 11.858C32.0041 11.883 31.8018 11.8663 31.5995 11.8663C29.1075 11.8663 26.6073 11.8663 24.1153 11.8663L24.1153 11.8746Z" fill="rgb(26,26,26)" fill-rule="nonzero" />
		<path id="Vector" d="M24.569 21.3728C22.2469 21.3728 19.9328 21.3811 17.6107 21.3728C15.1267 21.3561 12.0359 23.3574 11.2673 26.7013C10.6524 29.3698 11.1783 31.7881 13.0554 33.7644C14.3176 35.0903 15.9035 35.8241 17.7482 35.8491C18.5412 35.8574 19.3422 35.8491 20.1351 35.8574C20.7743 35.8658 21.0898 36.191 21.0494 36.7914C21.0251 37.1583 20.7824 37.4919 20.4264 37.4835C18.792 37.4752 17.1333 37.6753 15.5394 37.1166C12.1978 35.9408 10.1345 33.6143 9.55199 29.9869C8.9047 25.9758 10.9598 22.0566 14.5361 20.4388C15.5394 19.9885 16.5912 19.7217 17.6997 19.7217C22.4896 19.7217 27.2714 19.73 32.0613 19.7384C32.7248 19.7384 33.0727 20.1553 32.9432 20.764C32.8623 21.1726 32.5549 21.3728 32.0128 21.3728C29.5288 21.3644 27.0529 21.3644 24.569 21.3728Z" fill="rgb(26,26,26)" fill-rule="nonzero" />
		<path id="Vector" d="M57.434 31.1626C57.3854 28.1772 56.7462 25.3754 55.3222 22.7736C55.1361 22.4401 55.0471 22.1065 55.2817 21.7646C55.6458 21.2309 56.3255 21.256 56.6249 21.8814C57.1589 22.9905 57.6929 24.1162 58.0893 25.2836C58.9065 27.7103 59.125 30.2203 58.9227 32.7803C58.6233 36.6412 57.2964 40.0602 54.8448 42.9955C54.2946 43.6542 53.6473 44.238 53.0324 44.83C52.6926 45.1636 52.2152 45.1219 51.9159 44.7716C51.6327 44.4464 51.6327 43.9794 51.9806 43.6542C52.992 42.7036 53.9305 41.6946 54.6911 40.5188C56.0423 38.4257 56.9 36.1326 57.2155 33.6392C57.3207 32.822 57.3611 31.9881 57.434 31.1626Z" fill="rgb(26,26,26)" fill-rule="nonzero" />
		<path id="Vector" d="M50.0081 29.9787C50.0081 30.1037 50.0243 30.2288 50.0081 30.3539C49.9596 30.8042 49.6117 31.1128 49.1828 31.1044C48.7459 31.0961 48.4627 30.7709 48.4061 30.2622C48.3171 29.5284 48.2523 28.7779 48.0824 28.0607C47.9611 27.5604 47.6698 27.1101 47.4594 26.6431C47.3947 26.5097 47.3138 26.3763 47.2814 26.2262C47.1924 25.7925 47.4109 25.3923 47.8154 25.2172C48.131 25.0754 48.576 25.2005 48.7621 25.6174C49.1343 26.468 49.4822 27.3352 49.7573 28.2192C49.9353 28.7779 49.9596 29.3866 50.0567 29.9703C50.0405 29.9787 50.0243 29.9787 50.0081 29.9787Z" fill="rgb(26,26,26)" fill-rule="nonzero" />
		<path id="Vector" d="M18.1851 16.3949C17.4326 16.495 16.6721 16.595 15.9196 16.7034C15.5393 16.7618 15.1833 16.5367 15.0862 16.1614C15.0053 15.8445 15.1752 15.4693 15.5393 15.3942C16.7611 15.1191 17.999 14.9523 19.2531 15.1357C19.6658 15.1941 19.7952 15.4276 19.7709 15.8696C19.7467 16.2698 19.4959 16.4283 19.1641 16.4616C18.8405 16.495 18.5168 16.47 18.1932 16.47C18.1851 16.4366 18.1851 16.4199 18.1851 16.3949Z" fill="rgb(26,26,26)" fill-rule="nonzero" />
		<path id="Vector" d="M17.1088 42.2036C16.1783 42.0119 15.2478 41.8284 14.3174 41.6116C13.9533 41.5282 13.7753 41.1613 13.8481 40.8027C13.9128 40.4858 14.2769 40.219 14.6167 40.2857C15.5148 40.4441 16.413 40.6026 17.303 40.786C17.6833 40.8611 17.9179 41.1863 17.8855 41.5199C17.8532 41.8701 17.5133 42.162 17.1088 42.2036Z" fill="rgb(26,26,26)" fill-rule="nonzero" />
		<path id="Vector" d="M6.32369 26.768C6.32369 27.6102 6.32369 28.4525 6.32369 29.2947C6.32369 29.67 6.1376 29.8951 5.79777 29.9618C5.40131 30.0369 5.08576 29.8367 5.01294 29.4448C4.9563 29.1363 4.94821 28.811 4.96439 28.4942C4.99676 27.8437 5.0453 27.1933 5.10194 26.5512C5.15049 26.0259 5.42558 25.7673 5.83014 25.809C6.21851 25.8507 6.42887 26.1426 6.41269 26.6429C6.41269 26.6846 6.41269 26.7263 6.4046 26.768C6.38033 26.768 6.35606 26.768 6.32369 26.768Z" fill="rgb(26,26,26)" fill-rule="nonzero" />
		<path id="Vector" d="M7.95077 35.2158C7.95886 35.6328 7.80513 35.8413 7.48149 35.933C7.14167 36.0247 6.87466 35.883 6.73711 35.5911C6.41347 34.9156 6.12219 34.2152 5.83092 33.523C5.74191 33.3062 5.661 33.0894 5.60437 32.8559C5.51536 32.4807 5.70146 32.1054 6.00083 31.997C6.34874 31.8719 6.69666 32.0387 6.85848 32.4223C7.2064 33.2562 7.54622 34.0984 7.88604 34.9323C7.93459 35.0491 7.94268 35.1741 7.95077 35.2158Z" fill="rgb(26,26,26)" fill-rule="nonzero" />
		<path id="Vector" d="M12.1477 39.568C12.1638 40.2185 11.6217 40.6104 11.2172 40.2935C10.4081 39.6764 9.64751 39.001 8.90314 38.3088C8.65231 38.0754 8.70086 37.7251 8.95977 37.4583C9.23487 37.1748 9.52615 37.1331 9.82552 37.3749C10.5456 37.9753 11.2495 38.5924 11.9454 39.2178C12.0506 39.3345 12.1153 39.518 12.1477 39.568Z" fill="rgb(26,26,26)" fill-rule="nonzero" />
		<path id="Vector" d="M53.6651 26.9603C53.6813 27.3188 53.4871 27.544 53.1796 27.6274C52.8641 27.7108 52.5647 27.6023 52.4271 27.2938C52.0469 26.4432 51.6747 25.5927 51.3429 24.7254C51.2135 24.4002 51.3672 24.1 51.6747 23.9166C51.9902 23.7331 52.3381 23.7748 52.4919 24.0917C52.9207 24.9756 53.2767 25.8929 53.657 26.8018C53.6732 26.8352 53.6651 26.9019 53.6651 26.9603Z" fill="rgb(26,26,26)" fill-rule="nonzero" />
		<path id="Vector" d="M10.4156 19.1127C10.2699 18.971 10.011 18.8376 9.9463 18.6374C9.88157 18.429 9.93012 18.037 10.0677 17.937C10.8525 17.3866 11.6616 16.8779 12.4869 16.4109C12.8186 16.2275 13.1827 16.436 13.3122 16.7779C13.4416 17.1198 13.3445 17.4116 13.0452 17.6034C12.317 18.0704 11.5888 18.529 10.8525 18.9877C10.7635 19.0377 10.634 19.046 10.4156 19.1127Z" fill="rgb(26,26,26)" fill-rule="nonzero" />
		<path id="Vector" d="M6.15221 22.9994C6.50821 22.1655 6.95322 21.1899 7.68142 20.3977C7.89178 20.1642 8.24779 20.2059 8.49861 20.431C8.77371 20.6729 8.78989 20.9897 8.61998 21.2983C8.20733 22.0571 7.77851 22.8076 7.34159 23.5581C7.17977 23.8333 6.91277 23.95 6.6134 23.8583C6.29784 23.7666 6.11984 23.5414 6.15221 22.9994Z" fill="rgb(26,26,26)" fill-rule="nonzero" />
		<path id="Vector" d="M23.8567 16.4698C23.4279 16.4698 22.9909 16.4781 22.5621 16.4698C22.1657 16.4614 21.9148 16.1946 21.8987 15.7943C21.8906 15.4107 22.109 15.1439 22.5217 15.1356C23.4117 15.1189 24.3017 15.1189 25.1836 15.1356C25.5639 15.1439 25.8147 15.4274 25.8147 15.8027C25.8147 16.1946 25.5558 16.4614 25.1432 16.4698C24.7143 16.4781 24.2855 16.4698 23.8567 16.4698Z" fill="rgb(26,26,26)" fill-rule="nonzero" />
		<path id="Vector" d="M29.8611 15.1272C30.2657 15.1272 30.6702 15.1188 31.0748 15.1272C31.4631 15.1438 31.6978 15.4023 31.6978 15.7859C31.6978 16.1278 31.4389 16.4447 31.1071 16.453C30.2414 16.4697 29.3837 16.4697 28.518 16.453C28.1458 16.4447 27.8788 16.1195 27.8869 15.7693C27.895 15.3857 28.1215 15.1355 28.5261 15.1188C28.9711 15.1021 29.4161 15.1105 29.8611 15.1105C29.8611 15.1188 29.8611 15.1272 29.8611 15.1272Z" fill="rgb(26,26,26)" fill-rule="nonzero" />
		<path id="Vector" d="M54.2229 31.2628C54.2229 31.6213 54.2309 31.9799 54.2229 32.3468C54.2067 32.8305 53.9639 33.0806 53.527 33.0723C53.1063 33.0723 52.8555 32.8054 52.8555 32.3301C52.8555 31.5963 52.8555 30.8625 52.8636 30.1287C52.8636 29.7201 53.1629 29.4115 53.5432 29.4032C53.9639 29.3865 54.2309 29.62 54.2552 30.062C54.2795 30.4622 54.2633 30.8625 54.2633 31.2711C54.239 31.2628 54.2309 31.2628 54.2229 31.2628Z" fill="rgb(26,26,26)" fill-rule="nonzero" />
		<path id="Vector" d="M20.7093 40.8945C21.4213 40.8945 21.7773 41.3115 21.5508 41.8618C21.4051 42.2121 21.0249 42.3372 20.4585 42.2288C20.1268 42.162 19.8678 41.8535 19.8678 41.5366C19.8517 41.103 20.1348 40.8945 20.7093 40.8945Z" fill="rgb(26,26,26)" fill-rule="nonzero" />
		<path id="Vector" d="M29.0046 42.904C28.6809 42.904 28.3573 42.904 28.0336 42.904C26.998 42.8956 26.0028 42.0034 25.9057 41.0111C25.7682 39.5934 26.3831 38.5427 27.5886 38.3676C28.778 38.1925 29.9674 38.2926 30.8979 39.2432C31.5533 39.9187 31.7474 40.7692 31.6342 41.6865C31.5613 42.2786 30.8008 42.8873 30.1697 42.904C29.7813 42.9123 29.3929 42.904 29.0046 42.904ZM30.0969 41.3613C30.0564 40.494 29.838 40.1688 29.134 40.0271C28.7295 39.9437 28.3087 39.9437 27.8961 39.9687C27.7586 39.977 27.5725 40.1688 27.5239 40.3106C27.3621 40.7692 27.5401 41.1528 27.9932 41.2195C28.6728 41.3196 29.3687 41.3196 30.0969 41.3613Z" fill="rgb(26,26,26)" fill-rule="nonzero" />
		<path id="Vector" d="M43.8987 42.9288C43.6317 42.9288 43.3566 42.9121 43.0896 42.9288C42.0378 43.0122 41.083 42.2617 41.3905 40.744C41.698 39.243 42.7498 38.3841 44.3437 38.3257C44.7159 38.3091 45.1043 38.2924 45.4684 38.3674C46.3665 38.5592 46.9652 39.2764 47.0947 40.252C47.2242 41.2277 46.7872 42.1366 45.8972 42.637C45.6221 42.7871 45.2985 42.8704 44.9829 42.9121C44.6269 42.9622 44.2628 42.9205 43.8987 42.9288ZM42.9035 41.3194C43.4375 41.3194 43.9473 41.3361 44.457 41.3111C44.6836 41.3027 44.9101 41.261 45.1205 41.1776C45.4522 41.0442 45.5898 40.7023 45.5169 40.3187C45.4522 39.9435 45.1852 39.9352 44.902 39.9352C44.7159 39.9352 44.5217 39.9185 44.3357 39.9352C43.5185 40.0019 42.9764 40.2354 42.9035 41.3194Z" fill="rgb(26,26,26)" fill-rule="nonzero" />
		<path id="Vector" d="M36.485 39.4429C37.3993 39.4429 38.3136 39.4429 39.2279 39.4429C39.7619 39.4429 40.0855 39.7348 40.1017 40.2101C40.1179 40.7021 39.7943 41.044 39.2522 41.044C37.4317 41.0523 35.6193 41.044 33.7988 41.044C33.7017 41.044 33.6127 41.0273 33.5156 41.0106C33.0463 40.9106 32.8117 40.577 32.8521 40.085C32.8845 39.7014 33.1515 39.4596 33.6127 39.4512C34.5755 39.4262 35.5303 39.4346 36.485 39.4429Z" fill="rgb(26,26,26)" fill-rule="nonzero" />
	</g>
</svg>
