<svg viewBox="0 0 81.0234 50.0499" xmlns="http://www.w3.org/2000/svg" xmlns:xlink="http://www.w3.org/1999/xlink" width="81.023438" height="50.049927" fill="none" customFrame="#000000">
	<g id="Group">
		<path id="Vector" />
		<path id="Vector" d="M80.9017 21.8733C80.4906 20.3726 79.6559 19.0469 78.024 18.7343C76.9526 18.5217 75.8189 18.7093 74.7102 18.7468C74.5981 18.7468 74.4361 18.9594 74.3863 19.1095C74.1621 19.7973 73.9752 20.4977 73.7759 21.198C73.6388 21.6482 73.5143 22.0985 73.3274 22.6988C73.2153 22.4611 73.1779 22.3986 73.153 22.3236C72.119 19.4346 71.0975 16.5332 70.051 13.6567C69.1416 11.1555 66.8369 9.16699 63.6353 9.26704C60.8822 9.35459 58.1165 9.27955 55.3509 9.27955C50.1187 9.27955 44.8865 9.25454 39.6542 9.29206C36.764 9.31707 34.7459 10.7928 33.5749 13.3816C32.8523 14.9824 32.2917 16.6582 31.6813 18.3091C31.1332 19.7973 30.5975 21.2981 30.0369 22.8488C29.8002 22.4736 29.5884 22.1735 29.4015 21.8608C28.9157 21.0229 28.218 20.6352 27.2463 20.6727C26.474 20.6978 25.7141 20.6727 24.9417 20.6853C23.9077 20.6978 23.1228 21.1605 22.5872 22.0484C21.1919 24.3496 22.7989 27.5387 25.5272 27.3011C25.7514 27.276 25.9757 27.3011 26.2871 27.3011C26.175 27.5887 26.0753 27.7888 26.013 28.0014C25.8137 28.7768 25.5023 29.5647 25.4774 30.3401C25.3902 33.1665 25.3528 36.0054 25.4151 38.8443C25.44 39.8198 25.577 40.8954 26.038 41.7208C26.6359 42.8213 26.7356 43.8969 26.6982 45.0724C26.6858 45.5102 26.7231 45.9479 26.6858 46.3856C26.6235 47.0985 26.7231 47.8238 27.0346 48.4616C27.1965 48.7743 27.3958 49.0619 27.6325 49.3246C28.3925 50.1375 29.6507 49.9249 30.6348 49.9249C31.3574 49.9249 32.0924 49.9124 32.8149 49.9249C33.2883 49.9374 33.7493 49.9999 34.2227 49.9499C35.3314 49.8373 35.9917 49.0619 36.328 48.0489C36.5896 47.2485 36.6145 46.3856 36.5772 45.5477C36.5647 45.3601 36.5896 45.1725 36.5647 44.9849C36.4775 44.4096 36.7017 44.247 37.2748 44.247C46.9046 44.2595 56.5344 44.2595 66.1642 44.247C66.675 44.247 66.812 44.4346 66.7871 44.8974C66.7622 45.5852 66.7622 46.273 66.7746 46.9609C66.7871 47.5362 66.9117 48.1115 67.2107 48.6117C67.3477 48.8618 67.5346 49.0744 67.7339 49.2745C67.9457 49.4871 68.1699 49.6998 68.444 49.8373C68.7928 50.0124 69.179 50.0124 69.5527 50.0249C69.9763 50.0499 70.4123 50.0499 70.8359 50.0499C71.6954 50.0499 72.555 50.0374 73.4146 50.0374C73.4271 50.0374 73.452 50.0374 73.4644 50.0374C74.2866 50.0374 75.0715 49.9999 75.6944 49.3871C75.9061 49.1745 76.1055 48.9494 76.2799 48.6993C76.529 48.3241 76.6785 47.8989 76.7408 47.4611C76.8031 47.0484 76.8031 46.6232 76.8031 46.198C76.8031 45.4101 76.7657 44.6097 76.8156 43.8218C76.8405 43.4091 76.9775 42.9714 77.1768 42.6212C77.7001 41.7208 78.0489 40.8203 78.0364 39.7448C77.999 36.7433 77.9866 33.7418 78.0364 30.7403C78.0613 29.2145 77.6751 27.8263 76.9152 26.5382C76.8529 26.4256 76.8031 26.2881 76.7159 26.0754C77.0273 26.0754 77.2516 26.0629 77.4758 26.0754C78.3852 26.1255 79.195 25.8753 79.8677 25.25C80.8269 24.2996 81.2505 23.1615 80.9017 21.8733ZM33.2136 20.5477C33.9237 18.6217 34.6836 16.7083 35.3688 14.7573C36.1536 12.4812 37.7731 11.5307 39.9532 11.5182C47.9261 11.4681 55.8991 11.4681 63.872 11.5182C65.5663 11.5307 67.0487 12.2685 67.7214 13.9194C68.8053 16.5582 69.7271 19.272 70.7487 22.0609C58.0044 22.0609 45.4097 22.0609 32.7153 22.0609C32.8897 21.5107 33.0392 21.0229 33.2136 20.5477ZM24.8794 24.8248C24.4184 24.5622 24.2316 24.0244 24.3935 23.3991C24.5181 22.8989 24.8669 22.7613 25.3279 22.8238C25.3902 22.8363 25.4524 22.8363 25.5147 22.8238C26.7356 22.6612 27.7945 22.8738 28.3302 24.237C27.6824 24.9749 25.739 25.3251 24.8794 24.8248ZM34.3348 47.0985C34.3223 47.6237 33.7493 48.0864 33.089 48.1115C32.1173 48.149 31.1332 48.1615 30.1739 48.099C29.3268 48.0489 29.0153 47.6362 29.0153 46.7983C29.0153 45.9854 29.0153 45.1725 29.0153 44.2971C30.7843 44.2971 32.5284 44.2971 34.3597 44.2971C34.3472 45.235 34.3722 46.1605 34.3348 47.0985ZM74.5732 47.0859C74.5358 47.6988 74.0001 48.0739 73.2776 48.1115C72.2436 48.1615 71.2096 48.149 70.1756 48.124C69.5652 48.1115 69.1042 47.6988 69.0793 47.136C69.0295 46.1855 69.0669 45.235 69.0669 44.2595C70.948 44.2595 72.6796 44.2595 74.5358 44.2595C74.5607 45.1975 74.6355 46.148 74.5732 47.0859ZM75.8563 30.8904C75.794 33.8543 75.8314 36.8058 75.8314 39.7698C75.8314 41.2455 75.1462 41.9209 73.6513 41.9209C66.5878 41.9209 59.5367 41.9209 52.4732 41.9209C52.2614 41.9209 52.0621 41.9209 51.8503 41.9209C44.7121 41.9209 37.5613 41.9209 30.4231 41.9209C28.8036 41.9209 27.6699 40.8578 27.6575 39.2195C27.6325 36.3431 27.5204 33.4541 27.6824 30.5902C27.8443 27.8388 29.3891 25.8753 31.8308 24.6747C32.2917 24.4496 32.8523 24.3371 33.3631 24.3371C44.1141 24.3121 54.8651 24.3121 65.6285 24.3246C67.3726 24.3246 69.1167 24.4121 70.8608 24.3746C71.7702 24.3621 72.4055 24.8748 72.991 25.3876C73.7136 26.0254 74.3738 26.7758 74.9095 27.5762C75.5822 28.5642 75.8812 29.6647 75.8563 30.8904ZM78.6842 23.174C78.597 23.4616 78.0987 23.7493 77.7623 23.7868C76.9277 23.8743 76.0806 23.8118 75.1213 23.8118C75.4701 22.8363 75.794 21.9359 76.1179 21.0479C76.1553 20.9604 76.2674 20.8353 76.3297 20.8478C76.9028 20.9229 77.6128 20.8478 78.024 21.1605C78.6344 21.6107 78.9334 22.4111 78.6842 23.174Z" fill="rgb(255,255,255)" fill-rule="nonzero" />
		<path id="Vector" d="M2.09305 24.5623C3.86204 24.5623 5.43171 24.5623 7.00138 24.5623C7.22562 24.5623 7.46232 24.5498 7.68655 24.5873C8.59597 24.7874 9.23131 25.4752 9.26868 26.4257C9.31851 27.6138 9.34343 28.8019 9.2936 29.99C9.21885 31.4282 8.06029 32.4787 6.61519 32.4912C5.40679 32.5037 4.21085 32.4912 3.00246 32.4912C2.77822 32.4912 2.55398 32.4912 2.255 32.4912C2.255 33.917 2.24254 35.2801 2.27991 36.6433C2.27991 36.8309 2.52906 37.081 2.71593 37.1936C2.97754 37.3437 3.30144 37.4687 3.60043 37.4687C5.34451 37.4937 7.07613 37.4812 8.85758 37.4812C9.15656 35.8929 9.62996 34.3797 10.5892 33.054C12.3333 30.6778 14.6504 29.4397 17.6029 29.2896C19.7207 29.1771 21.5395 29.8399 23.2462 30.9905C23.757 31.3282 23.9189 31.7284 23.8567 32.2911C23.7819 32.9415 23.7196 33.5918 23.6573 34.1546C22.8725 33.6293 22.0254 33.0415 21.1533 32.4912C18.6618 30.8904 15.3107 31.3157 13.0932 33.5168C9.86665 36.7184 10.5767 42.2836 14.5134 44.5473C17.1544 46.073 20.356 45.6353 22.7604 43.4342C22.9722 43.2466 23.1964 43.0715 23.5078 42.8089C23.8442 43.4842 24.1681 44.0845 24.4422 44.6973C24.492 44.7974 24.3923 45.01 24.3051 45.0975C20.0695 49.012 14.6753 48.3242 11.3616 44.8974C10.1407 43.6343 9.40572 42.1336 9.01953 40.4327C8.9697 40.2326 8.90741 40.0325 8.84512 39.7949C7.18825 39.7949 5.55629 39.8074 3.91187 39.7949C1.94355 39.7824 0.523374 38.7319 0.0873547 36.9685C0.0250662 36.7309 0.0126084 36.4807 0.0126084 36.2306C0.0126084 32.4162 0.0375239 28.6018 0.000150737 24.7874C-0.012307 22.8864 0.747613 21.4107 2.20516 20.2726C3.53814 19.2221 4.92094 18.2091 6.25392 17.1586C6.49061 16.971 6.7024 16.7084 6.82697 16.4457C8.74546 12.2061 10.6764 7.96648 12.5575 3.72686C13.2053 2.26363 14.0774 0.975488 15.6346 0.487744C16.681 0.162581 17.8271 0.0625313 18.9359 0.0625313C24.193 0.0125063 29.4377 0.0375188 34.6949 0.0250125C35.8534 0.0250125 37.0244 0 38.183 0C40.2759 0 42.0574 1.4007 42.456 3.46423C42.6678 4.56478 42.7176 5.69034 42.8547 6.79089C42.9045 7.16608 42.7176 7.32866 42.3937 7.3912C41.8705 7.49125 41.3348 7.56628 40.7244 7.67884C40.6496 7.09105 40.5873 6.52826 40.5126 5.95298C40.4379 5.29015 40.4005 4.62731 40.2884 3.97699C40.089 2.8014 39.6157 2.4012 38.4571 2.4012C32.1037 2.4012 25.7502 2.4012 19.3968 2.4012C18.8985 2.4012 18.4002 2.42621 17.9019 2.4012C16.0581 2.27614 14.7874 3.67684 14.5009 5.19009C14.613 5.2026 14.7376 5.24012 14.8497 5.24012C18.3628 5.21511 21.8634 5.17759 25.3765 5.14007C26.9462 5.12756 27.7933 5.89044 27.8057 7.46623C27.8182 10.6553 27.7933 13.8444 27.7559 17.0335C27.7435 18.2091 26.8465 19.047 25.663 19.047C19.8453 19.0345 14.04 19.022 8.22224 19.022C7.92325 19.022 7.56198 19.1346 7.31282 19.3097C6.07951 20.2226 4.85866 21.1481 3.65026 22.1111C3.23915 22.4487 2.85297 22.8489 2.55398 23.2866C2.36711 23.6243 2.29237 24.0495 2.09305 24.5623ZM25.5384 7.45373C25.2145 7.45373 24.9778 7.45373 24.7287 7.45373C21.2405 7.45373 17.7648 7.47874 14.2767 7.42871C13.6164 7.41621 13.3424 7.66633 13.0807 8.21661C11.835 10.9805 10.5518 13.7194 9.2936 16.4707C9.26868 16.5333 9.26868 16.6208 9.24377 16.7209C14.6878 16.7209 20.0944 16.7209 25.526 16.7209C25.5384 13.6318 25.5384 10.5803 25.5384 7.45373ZM7.10104 26.8134C5.45663 26.8134 3.8745 26.8134 2.27991 26.8134C2.27991 27.989 2.27991 29.1146 2.27991 30.1776C3.77484 30.1776 5.21993 30.1901 6.66502 30.1651C6.81451 30.1651 7.08858 29.915 7.08858 29.7649C7.12596 28.7894 7.10104 27.8139 7.10104 26.8134Z" fill="rgb(255,255,255)" fill-rule="nonzero" />
		<path id="Vector" d="M18.1121 42.6464C15.2718 42.809 13.8142 40.3327 13.7893 38.6069C13.7644 36.4308 15.7327 34.3547 17.863 34.4923C20.8154 34.6799 21.9242 35.5679 22.0488 38.807C22.136 41.1206 20.4791 42.6464 18.1121 42.6464ZM18 40.4453C19.3081 40.5829 19.8188 39.4448 19.8313 38.5694C19.8437 37.3938 19.1212 36.6934 17.9751 36.7059C16.9536 36.7059 16.0192 37.6064 16.0317 38.5819C16.0566 39.6699 16.8539 40.4328 18 40.4453Z" fill="rgb(255,255,255)" fill-rule="nonzero" />
		<path id="Vector" d="M51.9101 29.5647C54.6882 29.5647 57.4787 29.5647 60.2568 29.5647C62.0756 29.5647 63.2964 30.9404 63.0348 32.7538C62.8729 33.8794 62.6735 35.0049 62.4369 36.118C62.0756 37.8438 60.6679 38.9694 58.9238 38.9694C54.1898 38.9694 49.4559 38.9694 44.722 38.9694C42.9904 38.9694 41.6948 38.094 41.2837 36.4056C40.9473 35.0049 40.7231 33.5542 40.6732 32.116C40.6234 30.7028 41.9439 29.5772 43.3641 29.5772C46.2294 29.5647 49.0697 29.5647 51.9101 29.5647ZM60.045 35.1425C60.0076 35.13 59.9702 35.105 59.9329 35.105C54.8252 35.13 49.7175 35.155 44.6099 35.1925C44.3358 35.1925 44.0493 35.3426 43.7752 35.4301C43.9122 35.7428 43.9995 36.093 44.2237 36.3431C44.3732 36.5182 44.6846 36.5932 44.9338 36.6057C45.7684 36.6432 46.5907 36.6182 47.4253 36.6182C51.1253 36.6182 54.8127 36.6307 58.5127 36.6307C59.4844 36.6307 60.182 35.9429 60.045 35.1425ZM60.6429 32.9539C60.7426 31.8909 60.6679 31.8033 59.6962 31.7783C59.6339 31.7783 59.5716 31.7783 59.5093 31.7783C54.6134 31.7783 49.7051 31.7783 44.8092 31.7783C44.3981 31.7783 43.987 31.8158 43.5759 31.8784C42.7911 32.0034 42.7412 32.141 43.0651 32.9539C48.9202 32.9539 54.7629 32.9539 60.6429 32.9539Z" fill="rgb(255,255,255)" fill-rule="nonzero" />
		<path id="Vector" d="M28.879 33.2415C28.9288 31.3656 30.6106 28.4516 33.7125 28.6142C36.2539 28.7518 38.434 30.3901 38.4714 33.154C38.5212 35.8928 36.3785 38.0064 33.7499 37.9939C31.0964 37.9689 28.8665 35.8053 28.879 33.2415ZM33.5755 35.6177C34.9708 35.5927 36.1792 34.5296 36.1418 33.3415C36.092 31.7783 35.0455 30.8028 33.4509 30.8403C32.2924 30.8653 31.1587 32.1034 31.1836 33.304C31.221 34.5171 32.3671 35.6427 33.5755 35.6177Z" fill="rgb(255,255,255)" fill-rule="nonzero" />
		<path id="Vector" d="M74.6341 33.2666C74.6466 35.6053 72.4042 37.8314 70.0248 37.8314C66.9103 37.8189 65.2036 36.018 65.0417 33.3792C64.8922 30.8029 67.3339 28.5893 70.1493 28.6018C72.6533 28.6143 74.4722 30.7529 74.6341 33.2666ZM69.7507 35.5928C71.2082 35.5553 72.3294 34.5173 72.2921 33.1666C72.2547 31.8284 71.1833 30.8404 69.5015 30.9155C68.3554 30.9655 67.309 32.091 67.3214 33.2916C67.3214 34.5673 68.4302 35.6178 69.7507 35.5928Z" fill="rgb(255,255,255)" fill-rule="nonzero" />
	</g>
</svg>
