<svg viewBox="0 0 45.0137 49.9886" xmlns="http://www.w3.org/2000/svg" xmlns:xlink="http://www.w3.org/1999/xlink" width="45.013672" height="49.988647" fill="none" customFrame="#000000">
	<g id="Group">
		<path id="Vector" d="M38.7702 14.8717C38.6096 13.4189 38.1786 11.8738 37.8152 10.866C37.7476 10.6813 37.7054 10.5805 37.6716 10.4713C36.6744 7.80927 35.1026 5.54188 32.88 3.76157C28.7983 0.47806 24.1082 -0.647234 18.9871 0.352094C13.7307 1.38501 9.96171 4.45858 7.60397 9.22008C6.62369 11.2019 6.11664 13.3266 6.07439 15.5436C6.06594 16.0726 6.37016 16.4253 6.86876 16.4337C7.89974 16.4505 8.92228 16.4505 9.95326 16.4337C10.4434 16.4253 10.7476 16.0558 10.7223 15.5772C10.6969 15.1153 10.3082 14.771 9.7758 14.7626C9.09974 14.7542 8.42369 14.7626 7.75608 14.7626C7.81524 13.125 8.79552 10.1606 9.46312 9.29566C10.0716 9.65676 10.68 10.0347 11.2969 10.3874C11.7279 10.6309 12.2434 10.4797 12.4716 10.085C12.7082 9.65676 12.573 9.23688 12.1082 8.95975C11.5082 8.60705 10.9082 8.25434 10.2828 7.88485C11.4575 6.26409 12.8688 4.92045 14.5504 3.82875C14.8716 4.45858 15.1842 5.06321 15.4969 5.66785C15.7673 6.18851 16.2237 6.38165 16.6631 6.17171C17.1279 5.95337 17.2631 5.45791 16.9927 4.92885C16.6716 4.29902 16.3589 3.67759 16.0293 3.02257C17.8293 2.22478 19.6631 1.8049 21.6237 1.70413C21.6237 2.47672 21.6237 3.21571 21.6237 3.95471C21.6237 4.43338 21.9364 4.76089 22.3927 4.76929C22.8744 4.77769 23.2124 4.46697 23.2293 3.97151C23.2378 3.76157 23.2293 3.55162 23.2293 3.34168C23.2293 2.78743 23.2293 2.24158 23.2293 1.67893C25.1476 1.86368 26.9392 2.23318 28.6378 3.00577C28.3082 3.71118 27.9955 4.383 27.6997 5.05481C27.5476 5.39912 27.5476 5.75182 27.835 6.02055C28.1054 6.28088 28.4688 6.36486 28.7983 6.16331C28.9842 6.04575 29.1364 5.8358 29.2378 5.63426C29.542 5.04642 29.8124 4.44178 30.0997 3.82035C31.8152 4.91205 33.2772 6.2053 34.4434 7.82606C33.8181 8.20396 33.2096 8.57346 32.6012 8.95135C32.1871 9.21168 32.0688 9.59798 32.2462 9.99267C32.4068 10.3538 32.804 10.5637 33.1758 10.4629C33.3448 10.4126 33.5054 10.3118 33.6575 10.2194C34.2068 9.9003 34.7561 9.57279 35.3054 9.25367C36.1251 10.6729 37.0124 13.6793 36.9448 14.7626C36.2772 14.7626 35.6012 14.7542 34.9251 14.7626C34.4181 14.771 34.0293 15.1741 34.0293 15.6359C34.0293 16.1398 34.3673 16.4337 34.9504 16.4421C35.3983 16.4421 35.8547 16.4421 36.3026 16.4421C36.6237 16.4421 38.9223 16.4505 38.9223 16.4505C38.9223 16.4505 38.9138 16.1062 38.7702 14.8717Z" fill="rgb(255,255,255)" fill-rule="nonzero" />
		<path id="Vector" d="M45.0061 27.1156C44.9554 26.1163 44.0174 25.1086 43.0202 25.075C42.2766 25.0498 41.5245 25.0414 40.7808 25.0498C39.5892 25.0582 39.2005 25.4529 39.1583 26.6286C39.1583 26.6454 39.1245 26.6538 39.0991 26.6706C38.5921 25.604 38.0766 24.5459 37.5273 23.4038C37.5611 23.4794 37.5188 23.2779 37.5104 23.2695C37.4259 23.0343 37.2484 22.7992 37.1216 22.5893C36.7921 22.0014 36.4963 21.3968 36.209 20.7838C35.947 20.2211 35.6428 19.6165 35.1357 19.2218C34.5357 18.7515 33.6822 18.6927 32.9554 18.6087C32.2625 18.5248 31.5695 18.4156 30.8681 18.3652C29.085 18.2393 27.3019 18.0881 25.5188 18.0461C21.1836 17.9537 16.8568 17.9957 12.5385 18.508C10.7977 18.7095 9.50473 19.5241 8.67657 21.0441C8.04276 22.203 7.46811 23.3954 6.86811 24.5795C6.51319 25.2765 6.17516 25.9819 5.79488 26.7545C5.72727 25.6208 5.26248 25.075 4.36671 25.0414C3.54699 25.0162 2.72727 25.0078 1.916 25.075C1.53572 25.1086 1.13009 25.2933 0.81741 25.5201C0.0483963 26.0575 -0.0445614 26.8637 0.0145935 27.7287C0.0821992 28.7196 0.81741 29.593 1.80614 29.6853C2.42304 29.7441 3.0484 29.6937 3.7498 29.6937C3.33572 30.122 3.00614 30.4831 2.64276 30.8106C1.45121 31.9023 0.944171 33.2628 0.961072 34.8499C0.977974 37.1845 0.944171 39.5275 0.977974 41.862C0.986424 42.4079 1.02868 43.0209 1.29065 43.4828C1.76389 44.3226 1.73009 45.1875 1.72164 46.0693C1.72164 46.506 1.71319 46.9342 1.72164 47.3709C1.76389 48.7565 2.69347 49.8147 4.07938 49.9154C5.16107 49.9994 6.25121 50.0078 7.32445 49.9574C8.62586 49.8902 9.49628 49.1344 9.70755 47.9336C9.79206 47.4633 9.72445 46.9594 9.72445 46.422C18.2428 46.422 26.685 46.422 35.178 46.422C35.178 46.8335 35.1695 47.2198 35.178 47.6061C35.2118 48.7901 36.0822 49.8147 37.2737 49.8902C38.5075 49.9742 39.7498 49.9658 40.9752 49.8902C42.1752 49.8147 43.1808 48.681 43.2146 47.4969C43.2399 46.5899 43.2146 45.6746 43.2399 44.7676C43.2399 44.5829 43.2906 44.3813 43.3752 44.2218C43.7639 43.4324 43.9921 42.6262 43.9836 41.7361C43.9583 39.3259 43.9836 36.9242 43.9667 34.514C43.9667 34.1445 43.8991 33.7666 43.823 33.3971C43.6202 32.423 43.1132 31.6252 42.4118 30.9282C42.023 30.5419 41.6343 30.1556 41.2118 29.7357C41.778 29.7357 42.2681 29.7357 42.7583 29.7357C43.2653 29.7357 43.7301 29.6098 44.1357 29.299C44.8794 28.7532 45.0568 27.989 45.0061 27.1156ZM9.10755 23.8237C9.42868 23.1939 9.78361 22.5725 10.0709 21.9342C10.6033 20.767 11.5667 20.2463 12.7836 20.1119C16.409 19.7256 20.0512 19.5829 23.6935 19.6501C25.9245 19.6921 28.1639 19.8264 30.3949 19.9608C31.2568 20.0112 32.1273 20.1287 32.9723 20.2967C33.7329 20.4478 34.3414 20.8845 34.6963 21.5899C35.778 23.7565 36.8512 25.9232 37.9329 28.0898C37.9498 28.1234 37.9583 28.1653 38.009 28.3249C27.6146 27.5691 17.2709 27.5691 6.85121 28.3501C7.63713 26.7797 8.37234 25.3017 9.10755 23.8237ZM2.06811 28.0562C1.70473 28.031 1.56952 27.6699 1.60333 27.3256C1.63713 26.9897 1.79769 26.6874 2.18642 26.6706C2.87093 26.6454 3.55544 26.6622 4.27375 26.6622C4.27375 27.1576 4.27375 27.5859 4.27375 28.073C3.53009 28.073 2.79488 28.115 2.06811 28.0562ZM8.13572 47.6732C8.09347 48.0847 7.77234 48.3199 7.3329 48.3283C6.33572 48.3367 5.33854 48.3451 4.34135 48.3283C3.78361 48.3199 3.41178 47.9672 3.38642 47.4213C3.36107 46.951 3.37797 46.4808 3.37797 45.9685C4.916 46.7495 6.53009 46.2792 8.13572 46.4556C8.14417 46.8419 8.17797 47.2618 8.13572 47.6732ZM41.609 47.4969C41.5667 47.9924 41.1611 48.3199 40.6118 48.3283C39.623 48.3451 38.6428 48.3367 37.654 48.3283C37.1047 48.3199 36.8174 48.0091 36.809 47.4549C36.809 47.119 36.809 46.7915 36.809 46.4556C38.423 46.2624 40.0625 46.7411 41.6174 45.9517C41.6174 46.4976 41.6512 47.0014 41.609 47.4969ZM41.4146 32.2466C42.0568 32.8513 42.3695 33.5819 42.3695 34.4468C42.378 36.9662 42.3949 39.4855 42.3611 42.0048C42.3442 43.7011 41.1611 44.8012 39.454 44.8012C33.7921 44.8012 28.1301 44.8012 22.4766 44.8012C16.8315 44.8012 11.1864 44.8012 5.54135 44.8012C3.83431 44.8012 2.66811 43.6759 2.65966 41.988C2.65121 39.4015 2.65966 36.815 2.66811 34.2201C2.66811 33.4727 2.94699 32.8261 3.48783 32.3138C4.25685 31.5748 5.03431 30.8442 5.82868 30.1304C5.94699 30.0212 6.1498 29.9709 6.31882 29.9625C8.25403 29.8617 10.1977 29.7609 12.1329 29.6937C15.0822 29.5846 18.0399 29.4586 20.9977 29.4166C23.4146 29.383 25.8399 29.4502 28.2568 29.5006C30.0315 29.5342 31.7977 29.6182 33.5723 29.6937C35.3301 29.7693 37.0878 29.8617 38.8371 29.9541C38.9723 29.9625 39.1245 30.0548 39.2259 30.1556C39.9611 30.8442 40.6709 31.558 41.4146 32.2466ZM42.8343 28.0814C42.1329 28.1066 41.4315 28.0898 40.6963 28.0898C40.6963 27.5943 40.6963 27.1492 40.6963 26.6622C41.423 26.6622 42.1414 26.6454 42.8512 26.6706C43.1977 26.679 43.4005 27.0065 43.3921 27.4347C43.3921 27.8126 43.2146 28.0646 42.8343 28.0814Z" fill="rgb(255,255,255)" fill-rule="nonzero" />
		<path id="Vector" d="M19.5957 15.468C19.5957 14.3007 20.5422 13.041 21.7675 12.957C22.8577 12.8815 23.5422 12.2852 24.2858 11.6638C25.7225 10.4545 27.1675 9.25364 28.6126 8.04437C28.9337 7.77564 29.3647 7.80084 29.6436 8.06956C29.9563 8.37188 29.9647 8.74138 29.6605 9.16127C28.8408 10.295 28.0042 11.4119 27.1929 12.5539C26.5844 13.4105 26.0013 14.2755 25.4267 15.1572C25.3168 15.3168 25.2915 15.5435 25.2661 15.7451C25.207 16.2237 24.8943 16.5093 24.4211 16.4925C23.9816 16.4757 23.6774 16.165 23.6436 15.7115C23.5929 14.9641 23.2211 14.5442 22.5788 14.519C21.8267 14.4938 21.2858 14.9221 21.1844 15.6191C21.0999 16.2237 20.8042 16.5093 20.3056 16.4757C19.8577 16.4337 19.5957 16.081 19.5957 15.468Z" fill="rgb(255,255,255)" fill-rule="nonzero" />
		<path id="Vector" d="M22.5191 41.7361C27.7417 41.7361 32.9727 41.7361 38.1952 41.7361C38.9727 41.7361 39.3361 41.9964 39.3361 42.5339C39.3361 43.0881 38.9558 43.3652 38.1699 43.3652C27.7332 43.3652 17.2966 43.3652 6.85999 43.3652C6.64873 43.3652 6.43746 43.3568 6.23464 43.3065C5.83746 43.2057 5.57549 42.8278 5.61774 42.4667C5.65999 42.0888 5.97267 41.7781 6.3783 41.7529C6.69943 41.7277 7.02901 41.7361 7.35014 41.7361C12.4121 41.7361 17.4656 41.7361 22.5191 41.7361Z" fill="rgb(255,255,255)" fill-rule="nonzero" />
		<path id="Vector" d="M22.5011 34.1361C24.9772 34.1361 27.4532 34.1361 29.9293 34.1361C30.6645 34.1361 30.9687 34.4384 30.9687 35.1774C30.9687 36.9913 30.1237 38.2426 28.5772 38.6876C28.273 38.7716 27.9434 38.8304 27.6307 38.8304C24.2082 38.8388 20.7941 38.8136 17.3715 38.8472C15.6053 38.864 14.1011 37.6127 14.0589 35.74C14.0504 35.5553 14.0166 35.3789 14.0082 35.1942C13.9744 34.4804 14.3124 34.1277 15.0307 34.1277C17.5237 34.1361 20.0082 34.1361 22.5011 34.1361ZM15.673 35.7484C15.7237 36.6134 16.3744 37.2348 17.2532 37.2432C19.0279 37.26 20.8025 37.2516 22.5772 37.2516C24.2842 37.2516 25.9828 37.26 27.6899 37.2432C28.5349 37.2348 29.211 36.5714 29.2701 35.7484C24.7406 35.7484 20.2279 35.7484 15.673 35.7484Z" fill="rgb(255,255,255)" fill-rule="nonzero" />
		<path id="Vector" d="M36.5388 38.8388C35.7782 38.8388 35.0177 38.8388 34.2571 38.8388C33.0571 38.8388 32.2966 38.0074 32.5078 36.8401C32.7106 35.7149 33.1416 34.6735 34.0712 33.9177C34.5529 33.523 35.1275 33.3467 35.7444 33.3131C37.0881 33.2375 38.4402 33.1619 39.7923 33.1284C40.6543 33.1032 41.212 33.6826 41.2036 34.5392C41.1951 35.337 41.2205 36.1347 41.1106 36.9241C40.9585 38.0074 39.8177 38.9144 38.7022 38.8472C37.9754 38.7968 37.2571 38.8388 36.5388 38.8388ZM34.0205 37.2432C35.6346 37.2432 37.2233 37.2516 38.812 37.2348C39.2008 37.2264 39.5642 36.8653 39.5811 36.4706C39.6064 35.8996 39.5895 35.3286 39.5895 34.7491C39.3022 34.7491 39.0487 34.7407 38.8036 34.7491C38.0599 34.7911 37.3163 34.8667 36.5726 34.8835C35.1867 34.9171 34.8064 35.1606 34.2994 36.4287C34.198 36.689 34.1219 36.9577 34.0205 37.2432Z" fill="rgb(255,255,255)" fill-rule="nonzero" />
		<path id="Vector" d="M8.40628 38.8388C7.75558 38.8388 7.10487 38.7968 6.46262 38.8472C5.06825 38.9479 3.93586 37.957 3.81755 36.6974C3.73304 35.8576 3.77529 34.9926 3.8598 34.1529C3.92741 33.5314 4.48515 33.0947 5.10206 33.1199C6.65698 33.1787 8.22036 33.2459 9.76684 33.3887C10.5443 33.4642 11.1021 34.0185 11.5415 34.6315C12.0316 35.3201 12.3612 36.0843 12.4795 36.9325C12.6232 37.9486 11.8964 38.8052 10.8485 38.822C10.0373 38.8472 9.226 38.8388 8.40628 38.8388ZM5.36403 34.6903C5.36403 35.2194 5.36403 35.6812 5.36403 36.1431C5.36403 36.8821 5.71051 37.2432 6.46262 37.2516C7.89924 37.2684 9.32741 37.26 10.764 37.26C10.8147 37.26 10.8654 37.2348 10.9668 37.2096C10.7556 36.7142 10.5781 36.2355 10.3668 35.7736C10.1471 35.2949 9.78374 34.9926 9.2429 34.9506C7.97529 34.8667 6.69924 34.7827 5.36403 34.6903Z" fill="rgb(255,255,255)" fill-rule="nonzero" />
	</g>
</svg>
