<svg viewBox="0 0 68.9961 67.0117" xmlns="http://www.w3.org/2000/svg" xmlns:xlink="http://www.w3.org/1999/xlink" width="68.996094" height="67.011719" fill="none" customFrame="#000000">
	<g id="Group">
		<path id="Vector" d="M61.7665 58.7404C64.1437 58.4795 66.118 57.0544 66.4807 54.6056C66.6116 53.6823 66.521 52.7088 66.4706 51.7654C66.4102 50.5109 66.2893 49.2665 66.2087 48.022C66.0777 46.1754 65.9569 44.3288 65.836 42.4721C65.7554 41.2377 65.6849 40.0033 65.6043 38.7689C65.4331 36.1294 65.282 33.49 64.1941 31.0111C62.4918 27.1171 59.4094 24.9895 55.3802 24.016C55.0075 23.9257 54.7154 23.996 54.4031 24.1967C52.3986 25.4712 50.1826 26.1035 47.8255 26.2039C45.4583 26.3042 43.1818 25.8727 41.137 24.6383C39.9686 23.9357 38.7497 23.5544 37.3999 23.5343C35.4156 23.5042 33.4413 23.464 31.4569 23.4239C31.3763 23.4239 31.3058 23.4339 31.195 23.444C31.8497 24.0261 32.4944 24.5379 33.0887 25.12C35.6069 27.5587 36.9668 30.5996 37.7021 33.9717C38.0446 35.5473 38.1353 37.133 38.1151 38.7388C38.0849 42.8836 38.105 47.0385 38.0849 51.1833C38.0849 51.6751 37.9741 52.1769 37.9237 52.6687C37.8734 53.0801 37.7928 53.4916 37.7928 53.9031C37.7827 57.8171 37.7928 61.7311 37.7928 65.6451C37.7928 66.4581 37.3798 66.9599 36.6948 66.9799C35.9394 67 35.4458 66.5283 35.4357 65.6753C35.4156 62.805 35.4256 59.9247 35.4256 56.9641C34.2068 58.0981 32.7664 58.5899 31.2353 58.9813C31.2353 59.182 31.2353 59.3827 31.2353 59.5834C31.2353 61.6408 31.2353 63.6982 31.2353 65.7555C31.2353 66.428 30.7215 66.9699 30.1071 66.9799C29.4322 66.99 28.8278 66.448 28.8178 65.7756C28.7976 64.22 28.7976 62.6645 28.7976 61.1089C28.7976 53.4816 28.7976 45.8543 28.8077 38.2269C28.8077 37.8757 28.8681 37.4843 29.0192 37.1732C29.2509 36.6814 29.7948 36.4706 30.2884 36.581C30.7518 36.6914 31.195 37.2133 31.2353 37.695C31.2453 37.8255 31.2353 37.966 31.2353 38.0965C31.2353 43.9976 31.2353 49.9088 31.2353 55.8099C31.2353 56.0106 31.2353 56.2114 31.2353 56.4121C33.1391 56.1311 35.0026 54.3748 35.4559 52.4278C35.5868 51.8457 35.6573 51.2436 35.6573 50.6514C35.6775 46.1052 35.8286 41.5488 35.617 37.0025C35.4256 32.7975 33.9852 28.9838 30.6611 26.1336C29.1401 24.8289 27.3773 23.9257 25.5037 23.2232C24.8691 22.9823 24.2446 22.5407 23.5999 22.5006C22.9653 22.4605 22.3106 22.8418 21.6458 22.9823C19.2686 23.4641 16.9316 23.3336 14.6753 22.3701C14.3227 22.2196 14.081 22.2597 13.7586 22.4404C13.1442 22.8017 12.4894 23.0927 11.8045 23.444C12.157 24.8992 11.7541 26.2641 10.918 27.5386C9.8906 29.1143 8.56096 30.3587 6.83848 31.1416C6.01249 31.5129 5.116 31.6132 4.23965 31.4426C3.8468 31.3623 3.69571 31.5028 3.53454 31.7839C3.01074 32.6771 2.70855 33.6505 2.64811 34.6642C2.52724 36.7416 2.45673 38.8291 2.43658 40.9166C2.40636 44.3288 2.45673 47.741 2.41644 51.1532C2.38622 53.7325 4.41089 55.9805 6.73775 56.5425C6.73775 56.3519 6.73775 56.1813 6.73775 56.0006C6.73775 50.1296 6.73775 44.2585 6.74782 38.3875C6.74782 38.0563 6.73775 37.7051 6.81833 37.394C6.98957 36.7717 7.51337 36.4706 8.11775 36.561C8.7322 36.6513 9.16534 37.1631 9.16534 37.8355C9.16534 38.9194 9.16534 40.0133 9.15527 41.0972C9.1452 49.2263 9.12505 57.3555 9.11498 65.4846C9.11498 65.7656 9.09483 66.0566 8.9941 66.3075C8.79264 66.8394 8.25877 67.0903 7.68461 66.99C7.18096 66.8996 6.74782 66.448 6.73775 65.9061C6.7176 64.3003 6.72768 62.6946 6.72768 61.0888C6.72768 60.4867 6.92914 59.7641 6.65717 59.3225C6.41541 58.9311 5.64987 58.8809 5.12607 58.6601C2.16461 57.3856 0.482421 55.1275 0.0190638 51.9661C-0.00108222 51.8357 0.00899077 51.6952 0.00899077 51.5647C0.00899077 46.6973 -0.0212282 41.8298 0.0291368 36.9624C0.0492827 34.8247 0.31118 32.6971 1.36884 30.7803C1.76169 30.0677 1.9833 29.4756 1.78184 28.6025C1.46957 27.2476 2.03366 25.9931 2.85965 24.8791C4.24972 23.0225 6.21395 22.0791 8.36957 21.4468C9.46753 21.1257 10.5856 20.8948 11.6634 20.6339C5.87147 15.907 6.62695 7.537 11.2605 3.34197C15.8639 -0.822949 23.0963 -0.582086 27.2766 3.99431C31.5576 8.6811 31.5979 16.459 25.9167 20.9952C26.1081 21.0153 26.2391 21.0354 26.3801 21.0354C27.7601 21.0454 29.13 21.0353 30.51 21.0655C33.2096 21.1156 35.9091 21.1558 38.6087 21.2461C39.5959 21.2762 40.5427 21.5271 41.409 22.059C42.648 22.8217 43.9575 23.4139 45.418 23.6547C48.3594 24.1465 51.0589 23.5042 53.5268 21.8884C53.9902 21.5873 54.4233 21.4669 54.9269 21.5371C57.3445 21.8583 59.5907 22.6511 61.565 24.0963C64.6977 26.3945 66.6015 29.4957 67.3671 33.2591C67.7398 35.0957 67.8304 36.9925 67.9916 38.8592C68.1528 40.6255 68.2535 42.3919 68.3744 44.1481C68.455 45.4127 68.5154 46.6772 68.596 47.9518C68.7169 49.7683 68.868 51.5747 68.9788 53.3913C69.0896 55.278 68.5557 56.9841 67.3369 58.4393C66.0072 60.015 64.2545 60.848 62.2399 61.1691C61.968 61.2093 61.8269 61.2996 61.8471 61.6107C61.9075 62.7448 61.9579 63.8788 61.9982 65.0129C62.0083 65.3742 62.0284 65.7555 61.9277 66.0968C61.7665 66.6788 61.1923 66.9799 60.588 66.8796C60.034 66.7892 59.6613 66.3577 59.631 65.7656C59.5303 63.3469 59.4296 60.9283 59.3288 58.4996C59.1878 55.2579 59.0569 52.0264 58.9158 48.7848C58.8151 46.4966 58.7245 44.2084 58.6237 41.9202C58.5532 40.3847 58.4827 38.8492 58.4323 37.3137C58.4122 36.5409 58.9259 35.9789 59.6008 35.9688C60.3059 35.9688 60.8196 36.5309 60.8499 37.3137C60.9808 40.9065 61.1118 44.4894 61.2528 48.0822C61.3434 50.4407 61.4542 52.7891 61.555 55.1375C61.6255 56.3318 61.696 57.516 61.7665 58.7404ZM19.0973 20.8246C24.1036 20.8948 27.891 16.6195 27.891 11.9829C27.881 7.09542 24.2446 2.85021 19.1678 2.78999C13.8795 2.72978 10.1827 6.98502 9.99133 11.6818C9.77979 16.8905 14.4134 20.9651 19.0973 20.8246ZM5.26709 28.9035C5.53906 28.8232 5.82111 28.7731 6.07293 28.6727C7.19103 28.2211 8.04724 27.4283 8.7322 26.4648C9.08476 25.963 9.35673 25.3608 9.52797 24.7687C9.69921 24.1967 9.33658 23.8856 8.75235 24.0261C8.36958 24.1164 7.97673 24.2067 7.60403 24.3472C6.11322 24.9293 4.86417 25.7924 4.27994 27.368C3.97775 28.1609 4.45118 28.8634 5.26709 28.9035Z" fill="rgb(0,0,0)" fill-rule="nonzero" />
		<path id="Vector" d="M35.8288 11.4611C35.7583 5.34917 40.9661 -0.0100219 47.1609 1.40729e-05C53.6681 0.01005 58.201 4.94774 58.4326 10.9593C58.6845 17.5429 53.7588 22.5207 47.8963 22.8418C41.0668 23.2232 35.7986 17.7436 35.8288 11.4611ZM56.0655 11.4611C56.1561 6.54345 52.2176 2.3685 47.3725 2.31832C42.6785 2.2581 38.3572 6.14201 38.1859 11.3507C38.0449 15.9371 41.8323 20.363 46.8588 20.5135C51.9758 20.6741 56.0755 16.4188 56.0655 11.4611Z" fill="rgb(0,0,0)" fill-rule="nonzero" />
		<path id="Vector" d="M17.8463 60.9583C17.8463 59.4429 17.8463 57.9174 17.8463 56.402C17.8463 55.6593 18.3701 55.0572 19.0248 55.0371C19.6997 55.017 20.2638 55.6192 20.2638 56.392C20.2638 59.483 20.2638 62.5741 20.2638 65.6551C20.2638 66.4078 19.7702 66.9598 19.1255 66.9799C18.4204 66.9899 17.8563 66.4279 17.8563 65.6652C17.8362 64.0996 17.8463 62.534 17.8463 60.9583Z" fill="rgb(0,0,0)" fill-rule="nonzero" />
		<path id="Vector" d="M49.4878 62.1126C49.4878 63.2968 49.4878 64.481 49.4878 65.6753C49.4878 66.4481 49.0849 66.9499 48.4201 66.99C47.6948 67.0302 47.2214 66.6287 47.1307 65.8359C47.0804 65.4244 47.0905 65.0029 47.0905 64.5814C47.0804 62.514 47.0703 60.4366 47.0703 58.3691C47.0703 57.6365 47.5538 57.1347 48.269 57.1147C48.964 57.1046 49.4778 57.6064 49.4878 58.3491C49.4979 59.6036 49.4878 60.8581 49.4878 62.1126Z" fill="rgb(0,0,0)" fill-rule="nonzero" />
	</g>
</svg>
