<svg viewBox="0 0 71.0195 66.0187" xmlns="http://www.w3.org/2000/svg" xmlns:xlink="http://www.w3.org/1999/xlink" width="71.019531" height="66.018677" fill="none" customFrame="#000000">
	<g id="Group">
		<g id="Group">
			<path id="Vector" d="M10.9835 58.2243C11.0402 58.215 11.1064 58.215 11.1726 58.2429C11.2388 58.2708 11.3049 58.308 11.3711 58.3545C11.4279 58.401 11.4846 58.4475 11.5319 58.5033C11.6075 58.5871 11.6737 58.6987 11.7304 58.8475C11.7493 58.894 11.7683 58.9405 11.7683 58.9777C11.7683 59.0614 11.7304 59.1358 11.6453 59.1916C11.3995 59.3869 11.1537 59.573 10.8984 59.7497C10.6336 59.9264 10.3689 60.0845 10.0852 60.224C9.83937 60.3542 9.57462 60.4659 9.29096 60.5403C9.10186 60.5868 8.91275 60.6147 8.7331 60.6147C8.63855 60.6147 8.54399 60.6054 8.43998 60.5961C8.17523 60.5589 7.91994 60.4752 7.6741 60.3542C7.43772 60.2333 7.22025 60.0752 7.03114 59.8799C6.84203 59.6567 6.7002 59.4148 6.62456 59.1544C6.54892 58.8847 6.50164 58.6057 6.49219 58.3266C6.49219 57.8523 6.56783 57.3872 6.72857 56.9315C6.88931 56.4757 7.09733 56.0572 7.36208 55.6665C7.50391 55.4619 7.65519 55.2666 7.81593 55.0806C7.96722 54.8946 8.13741 54.7085 8.30761 54.5411C8.48726 54.3644 8.67637 54.197 8.87493 54.0389C9.07349 53.8807 9.29096 53.7598 9.52735 53.6761C9.68809 53.6203 9.83937 53.5924 10.0001 53.5924C10.1609 53.5924 10.3121 53.6203 10.4729 53.6761C10.7849 53.797 11.0024 54.011 11.1253 54.3365C11.2198 54.6062 11.2671 54.8852 11.2577 55.1829C11.2388 55.4805 11.1915 55.7595 11.1253 56.0293C11.0875 56.1688 10.9835 56.2153 10.8227 56.1595C10.662 56.113 10.5485 56.0572 10.4918 56.0014C10.3878 55.9084 10.2932 55.806 10.2176 55.6758C10.1514 55.5456 10.1325 55.4061 10.1798 55.2759C10.2081 55.1736 10.227 55.0713 10.2459 54.969C10.2554 54.8666 10.2649 54.755 10.2649 54.662C10.0947 54.7085 9.93392 54.7922 9.78264 54.9038C9.63135 55.0155 9.48952 55.1364 9.3666 55.248C8.90329 55.6572 8.49672 56.1409 8.15632 56.6803C7.81593 57.2198 7.59846 57.7965 7.51336 58.4196C7.485 58.6057 7.46609 58.801 7.46609 59.0242C7.46609 59.2381 7.56064 59.3962 7.76866 59.4893C7.8443 59.5358 7.9294 59.5637 8.02395 59.573C8.10905 59.5823 8.19415 59.5823 8.2887 59.5823C8.52508 59.5637 8.75201 59.5172 8.97894 59.4334C9.19641 59.3497 9.41388 59.2474 9.6219 59.1358C9.811 59.0335 9.99066 58.9126 10.1703 58.7824C10.35 58.6522 10.5202 58.5126 10.6903 58.3731C10.7093 58.3545 10.7376 58.3359 10.7565 58.3266C10.7754 58.308 10.8038 58.2987 10.8322 58.2894C10.8795 58.2522 10.9267 58.2336 10.9835 58.2243Z" fill="rgb(0,0,0)" fill-rule="nonzero" />
			<path id="Vector" d="M17.6026 58.9126C17.612 58.9405 17.612 58.9684 17.612 58.987C17.612 59.0986 17.5553 59.1637 17.4418 59.1916C17.092 59.2382 16.7516 59.294 16.4207 59.3777C16.0897 59.4521 15.7683 59.5823 15.4562 59.7497C15.1347 59.9357 14.8227 60.131 14.5107 60.3357C14.1987 60.5403 13.8866 60.7356 13.5746 60.9402C13.5084 60.9867 13.4422 61.0053 13.3761 61.0053C13.3193 61.0053 13.2626 60.9867 13.1964 60.9588C13.064 60.8937 12.96 60.8193 12.8749 60.7356C12.8277 60.6891 12.7898 60.624 12.7426 60.5496C12.7047 60.4752 12.6764 60.4008 12.6669 60.3357C12.6669 59.8055 12.648 59.2754 12.6102 58.7359C12.5724 58.2057 12.544 57.6756 12.5345 57.1361C12.5251 56.7269 12.5251 56.3083 12.5156 55.8898C12.5156 55.8433 12.5156 55.7968 12.5156 55.7503C12.5156 55.3782 12.544 55.0155 12.6007 54.662C12.5062 54.4667 12.5156 54.3179 12.6291 54.2249C12.7331 54.1319 12.8749 54.0575 13.0357 53.9924C13.2248 53.9087 13.4233 53.8343 13.6219 53.7598C13.811 53.6854 14.0096 53.6203 14.2176 53.5552C14.6053 53.425 15.0118 53.3134 15.4184 53.2204C15.825 53.1274 16.2316 53.053 16.6381 53.0065C16.6665 53.0065 16.6949 53.0065 16.7138 53.0065C16.8367 53.0065 16.9502 53.0437 17.0447 53.1088C17.1676 53.1925 17.2717 53.2948 17.3473 53.4064C17.3851 53.4622 17.4135 53.5273 17.4418 53.5924C17.4608 53.6668 17.4702 53.7319 17.4702 53.7971C17.4608 53.8436 17.4513 53.8901 17.4229 53.9459C17.3851 53.9924 17.3473 54.0203 17.2906 54.0296C16.6571 54.104 16.0425 54.2342 15.4279 54.4016C14.8133 54.5783 14.2176 54.7923 13.6314 55.0434C13.5841 55.2294 13.5557 55.4247 13.5368 55.6108C13.5179 55.8061 13.5084 56.0014 13.5084 56.1967C13.9528 55.9921 14.4067 55.8247 14.87 55.6852C15.3333 55.5456 15.8061 55.4247 16.2788 55.3131C16.4301 55.2759 16.5625 55.3038 16.6854 55.4061C16.8083 55.4991 16.9123 55.6015 16.988 55.7038C17.0447 55.7782 17.0825 55.8991 17.1109 56.0479C17.1298 56.1967 17.0731 56.2897 16.9313 56.3176C16.345 56.4571 15.7683 56.6153 15.182 56.792C14.6053 56.9687 14.0568 57.2105 13.5273 57.5175C13.5273 57.8523 13.5273 58.1871 13.5368 58.5127C13.5463 58.8382 13.5652 59.173 13.5746 59.4986C13.7543 59.387 13.9434 59.2754 14.1325 59.1544C14.3216 59.0335 14.5107 58.9219 14.6903 58.8103C14.8511 58.7173 15.0118 58.6429 15.1631 58.5685C15.3239 58.4941 15.4941 58.4383 15.6737 58.3825C15.8534 58.3359 16.033 58.2894 16.2221 58.2615C16.4112 58.2336 16.6003 58.2057 16.78 58.1871C16.9313 58.1685 17.0636 58.1964 17.1771 58.2801C17.3 58.3639 17.3946 58.4662 17.4797 58.5778C17.5364 58.6336 17.5742 58.7452 17.6026 58.9126Z" fill="rgb(0,0,0)" fill-rule="nonzero" />
			<path id="Vector" d="M23.5603 54.9132C23.5982 55.0434 23.6171 55.1829 23.6171 55.3224C23.6171 55.434 23.5982 55.555 23.5793 55.6759C23.532 55.8619 23.4658 56.0479 23.3618 56.2246C23.2672 56.4013 23.1538 56.5595 23.0214 56.7083C22.6054 57.2012 22.0853 57.5733 21.4424 57.8058C20.8088 58.0383 20.1848 58.2337 19.5702 58.3918C19.5607 58.7545 19.5418 59.1172 19.5229 59.4707C19.504 59.8241 19.4757 60.1869 19.4567 60.531C19.4378 60.6798 19.3716 60.7542 19.2487 60.7635C19.2298 60.7635 19.2109 60.7635 19.2014 60.7635C19.0974 60.7635 19.0029 60.7449 18.9178 60.6984C18.7949 60.6333 18.6909 60.531 18.5869 60.4008C18.4923 60.2706 18.445 60.1311 18.4545 59.9822C18.5207 59.1638 18.5585 58.3453 18.5869 57.5268C18.6058 56.7083 18.6058 55.8898 18.5869 55.0713C18.4356 55.0155 18.2937 54.9039 18.1708 54.7365C18.0668 54.5877 18.0195 54.4574 18.0195 54.3365C18.0195 54.3179 18.0195 54.29 18.0195 54.2807C18.029 54.2342 18.0479 54.197 18.0763 54.1505C18.1046 54.1133 18.1425 54.0854 18.1992 54.0668C18.6719 53.8901 19.1636 53.7413 19.6553 53.611C20.1281 53.4901 20.6197 53.4343 21.1114 53.4343C21.1303 53.4343 21.1492 53.4343 21.1587 53.4436C21.5369 53.4436 21.9057 53.4994 22.265 53.6203C22.6243 53.732 22.9268 53.9366 23.1821 54.2342C23.3712 54.4481 23.4942 54.6714 23.5603 54.9132ZM22.6243 54.9876C22.6337 54.8946 22.6337 54.8016 22.6148 54.7086C22.4541 54.6249 22.2744 54.5691 22.0948 54.5411C21.9057 54.5039 21.7166 54.4946 21.5369 54.4946C21.206 54.4946 20.875 54.5318 20.5536 54.597C20.2226 54.6621 19.9011 54.7458 19.5797 54.8481C19.5797 54.8574 19.5797 54.8574 19.5797 54.8667L19.5797 54.876C19.5986 55.2666 19.608 55.6573 19.6175 56.0479C19.6269 56.4293 19.6269 56.8199 19.6175 57.2105C19.7971 57.164 19.9768 57.1082 20.1564 57.0431C20.3361 56.978 20.5063 56.9222 20.6859 56.8478C20.9601 56.7362 21.2154 56.606 21.4707 56.4479C21.726 56.2897 21.9529 56.1037 22.1515 55.8898C22.2366 55.7968 22.3122 55.7038 22.3784 55.5922C22.4541 55.4806 22.5108 55.3689 22.5581 55.2573C22.577 55.1643 22.6054 55.0713 22.6243 54.9876Z" fill="rgb(0,0,0)" fill-rule="nonzero" />
			<path id="Vector" d="M28.3914 53.5646C28.4671 53.5646 28.5333 53.5832 28.6089 53.6204C28.6846 53.6669 28.7602 53.7227 28.8264 53.7971C28.9304 53.8994 29.006 54.0203 29.0533 54.1505C29.0722 54.2249 29.0911 54.2808 29.0911 54.3366C29.0911 54.3924 29.0817 54.4389 29.0533 54.4761C29.0344 54.5133 29.006 54.5412 28.9682 54.5598C28.9304 54.5784 28.8737 54.597 28.8169 54.6063C28.4954 54.6249 28.174 54.6435 27.8525 54.6714C27.531 54.6993 27.219 54.7365 26.8975 54.7737C26.8691 54.783 26.8502 54.7923 26.8408 54.8202C26.8313 54.8481 26.8313 54.8667 26.8408 54.8853C26.8786 54.9411 26.907 55.0062 26.9259 55.0713C26.9448 55.1364 26.9448 55.2016 26.9448 55.2667C26.907 56.1224 26.8786 56.9873 26.8408 57.8523C26.8029 58.7173 26.7651 59.5823 26.7273 60.4473C26.7178 60.5961 26.6517 60.6705 26.5287 60.6705C26.5098 60.6798 26.4909 60.6799 26.4815 60.6799C26.3775 60.6799 26.2829 60.6612 26.1978 60.6147C26.0749 60.5496 25.9614 60.4473 25.8669 60.3171C25.7723 60.1869 25.7345 60.0567 25.7345 59.9079C25.7723 59.0801 25.8007 58.243 25.8385 57.4152C25.8669 56.5874 25.9047 55.7503 25.9425 54.9318C25.7156 54.969 25.4981 55.0062 25.2806 55.0434C25.0632 55.0806 24.8362 55.1271 24.6188 55.1736C24.4769 55.2109 24.3446 55.1736 24.2216 55.0806C24.0987 54.9876 23.9947 54.8946 23.9191 54.783C23.8718 54.7086 23.8245 54.5877 23.7962 54.4389C23.7867 54.4203 23.7867 54.3924 23.7962 54.3738C23.7962 54.2622 23.8529 54.1877 23.9663 54.1598C24.6944 54.011 25.4225 53.8901 26.16 53.7878C26.8975 53.6948 27.635 53.6297 28.3725 53.5832C28.382 53.5646 28.382 53.5646 28.3914 53.5646Z" fill="rgb(0,0,0)" fill-rule="nonzero" />
			<path id="Vector" d="M34.2337 53.3972C34.2715 53.3786 34.3187 53.3693 34.366 53.3693C34.3755 53.3693 34.3849 53.3693 34.3944 53.3693C34.5646 53.3879 34.7253 53.4902 34.8861 53.6669C35.0184 53.8157 35.0846 53.9552 35.0846 54.0854C35.0846 54.104 35.0846 54.1319 35.0752 54.1598C35.0184 54.4017 34.9901 54.6528 34.9901 54.9132C34.9901 55.1737 34.9901 55.4248 34.9901 55.6759C34.9901 55.9363 34.9901 56.2061 34.9901 56.4758C34.9901 56.7455 34.9901 57.006 34.9901 57.2757C34.9901 57.7872 34.9901 58.3081 34.9995 58.829C34.9995 59.3498 34.9901 59.8614 34.9712 60.3822C34.9712 60.531 34.905 60.6055 34.7821 60.6055C34.7631 60.6055 34.7442 60.6055 34.7348 60.6055C34.6308 60.6055 34.5362 60.5869 34.4511 60.5403C34.3282 60.4752 34.2147 60.3729 34.1202 60.2427C34.0256 60.1125 33.9878 59.973 33.9878 59.8242C33.9973 59.3033 34.0067 58.7825 34.0067 58.2616C34.0162 57.7407 34.0162 57.2106 34.0162 56.699C34.0162 56.5502 34.0162 56.4014 34.0162 56.2619C34.0067 56.1131 34.0067 55.9735 34.0067 55.8247C33.8176 56.1131 33.6191 56.4107 33.4299 56.7083C33.2408 56.9967 33.0423 57.285 32.8626 57.5826C32.683 57.8431 32.5128 58.1035 32.3331 58.3732C32.1535 58.6429 31.9738 58.8941 31.7753 59.1452C31.5956 59.3777 31.4065 59.6009 31.2079 59.8149C31.0094 60.0288 30.8108 60.2427 30.6217 60.4659C30.5461 60.5404 30.4515 60.559 30.3286 60.5124C30.2057 60.4659 30.1111 60.4194 30.0449 60.3729C29.9409 60.2892 29.8653 60.1962 29.8086 60.0846C29.7518 59.9823 29.7235 59.8614 29.714 59.7312C29.6573 58.736 29.6289 57.7407 29.6289 56.7455C29.6289 56.6711 29.6289 56.5874 29.6289 56.513C29.6289 55.6015 29.6384 54.6807 29.6667 53.7599C29.6762 53.6111 29.7424 53.5367 29.8653 53.5274C29.9882 53.5181 30.1017 53.546 30.1962 53.5925C30.3286 53.6576 30.4326 53.7599 30.5272 53.8901C30.6217 54.0203 30.6595 54.1598 30.6595 54.2994C30.6406 55.0155 30.6217 55.741 30.6217 56.4572C30.6123 57.1734 30.6217 57.8989 30.6406 58.6057C30.6879 58.5499 30.7446 58.4941 30.7919 58.429C30.8392 58.3639 30.8865 58.3081 30.9337 58.243C31.1228 58.0105 31.293 57.7686 31.4632 57.5175C31.624 57.2664 31.7942 57.0153 31.9549 56.7734C32.3142 56.234 32.6735 55.6945 33.0234 55.1458C33.3732 54.6063 33.7325 54.0668 34.0918 53.5274C34.1391 53.4623 34.1864 53.4251 34.2337 53.3972Z" fill="rgb(0,0,0)" fill-rule="nonzero" />
			<path id="Vector" d="M43.5936 56.4571C43.7165 56.7175 43.7732 56.978 43.7732 57.2477C43.7732 57.3593 43.7638 57.4709 43.7449 57.5918C43.6503 58.0569 43.4423 58.4475 43.1019 58.7545C42.771 59.0707 42.3833 59.3218 41.9578 59.5078C41.7214 59.6101 41.485 59.6939 41.2487 59.759C41.0123 59.8241 40.7759 59.8799 40.549 59.9171C40.4544 59.9264 40.3693 59.9357 40.2937 59.9543C40.2086 59.9636 40.1235 59.9822 40.0289 60.0008C40.0384 60.0752 40.0384 60.1403 40.0478 60.2147C40.0573 60.2891 40.0573 60.3635 40.0573 60.4286C40.0762 60.5589 40.0478 60.6612 39.9722 60.7263C39.9344 60.7728 39.8776 60.7914 39.8114 60.7914C39.7642 60.7914 39.7169 60.7821 39.6696 60.7635C39.5372 60.7263 39.4143 60.6426 39.2914 60.5124C39.1685 60.3914 39.1023 60.2612 39.0834 60.1217C39.0834 60.1124 39.0834 60.1031 39.0834 60.0845C39.0834 60.0752 39.0834 60.0752 39.0834 60.0566C38.9699 60.0566 38.8565 60.0566 38.743 60.0566C38.6295 60.0473 38.5161 60.0473 38.4026 60.038C38.0906 60.0194 37.7691 59.9636 37.4476 59.8892C37.1261 59.8148 36.833 59.6846 36.5588 59.5171C36.2562 59.3311 36.0104 59.0986 35.8308 58.8103C35.6795 58.587 35.6133 58.3452 35.6133 58.0755C35.6133 58.0011 35.6227 57.9174 35.6322 57.8337C35.6795 57.4895 35.7835 57.1547 35.9442 56.8385C36.105 56.5222 36.3035 56.2432 36.5399 55.9735C36.8803 55.5828 37.2869 55.248 37.7502 54.9782C38.2135 54.7085 38.6957 54.5225 39.2158 54.4202C39.2063 54.3179 39.1968 54.2156 39.1874 54.1226C39.1779 54.0202 39.1685 53.9179 39.159 53.8156C39.1401 53.6854 39.1685 53.5924 39.2441 53.518C39.2914 53.4715 39.3481 53.4529 39.4238 53.4529C39.4616 53.4529 39.5089 53.4622 39.5561 53.4808C39.6885 53.518 39.8209 53.6017 39.9438 53.7319C40.0667 53.8528 40.1329 53.983 40.1518 54.1226C40.1518 54.1598 40.1518 54.197 40.1613 54.2342C40.1613 54.2714 40.1613 54.2993 40.1707 54.3365C40.6908 54.3458 41.1919 54.4388 41.6836 54.6341C42.1753 54.8294 42.6008 55.1178 42.9506 55.4991C43.2154 55.7688 43.4328 56.0944 43.5936 56.4571ZM39.0267 59.3218L39.0456 59.3218C39.055 59.3218 39.055 59.3218 39.0739 59.3218C39.055 58.6335 39.0834 57.9453 39.1496 57.2663C39.2158 56.578 39.2441 55.8804 39.2536 55.2015C39.159 55.2387 39.0645 55.2759 38.9699 55.3131C38.8754 55.3503 38.7903 55.3968 38.7052 55.4433C38.4404 55.5921 38.1851 55.7781 37.9582 55.9921C37.7218 56.1967 37.5233 56.4292 37.3531 56.6896C37.2112 56.9036 37.0883 57.1454 36.9748 57.4151C36.8708 57.6941 36.833 57.9639 36.8803 58.2243C36.9181 58.5126 37.0694 58.7359 37.3247 58.9033C37.5705 59.0707 37.8258 59.1823 38.0811 59.2474C38.2324 59.2846 38.3931 59.3125 38.5539 59.3218C38.7052 59.3218 38.8659 59.3218 39.0267 59.3218ZM42.3927 57.8802C42.4968 57.6662 42.544 57.4337 42.5251 57.1826C42.5062 56.9129 42.4211 56.6617 42.2698 56.4106C42.1185 56.1688 41.9483 55.9456 41.7592 55.7688C41.5418 55.5549 41.3054 55.3968 41.0312 55.2852C40.7664 55.1643 40.4922 55.0992 40.2086 55.0713C40.2275 55.7688 40.1991 56.4664 40.1329 57.164C40.0667 57.8616 40.0289 58.5591 40.0195 59.2567C40.3788 59.2102 40.7381 59.1172 41.0785 58.9963C41.4283 58.8754 41.7214 58.6894 41.9767 58.4475C42.1469 58.2894 42.2887 58.0941 42.3927 57.8802Z" fill="rgb(0,0,0)" fill-rule="nonzero" />
			<path id="Vector" d="M48.9641 53.3972C49.0019 53.3786 49.0492 53.3693 49.087 53.3693C49.0965 53.3693 49.1059 53.3693 49.1154 53.3693C49.2856 53.3879 49.4463 53.4902 49.6071 53.6669C49.7394 53.8157 49.8056 53.9552 49.8056 54.0854C49.8056 54.104 49.8056 54.1319 49.7962 54.1598C49.7394 54.4017 49.7111 54.6528 49.7111 54.9132C49.7111 55.1737 49.7111 55.4248 49.7111 55.6759C49.7111 55.9363 49.7111 56.2061 49.7111 56.4758C49.7111 56.7455 49.7111 57.006 49.7111 57.2757C49.7111 57.7872 49.7111 58.3081 49.7205 58.829C49.7205 59.3498 49.7111 59.8614 49.6922 60.3822C49.6922 60.531 49.626 60.6055 49.5031 60.6055C49.4842 60.6055 49.4652 60.6055 49.4558 60.6055C49.3518 60.6055 49.2572 60.5869 49.1721 60.5403C49.0492 60.4752 48.9357 60.3729 48.8412 60.2427C48.7466 60.1125 48.7088 59.973 48.7183 59.8242C48.7277 59.3033 48.7372 58.7825 48.7372 58.2616C48.7466 57.7407 48.7466 57.2106 48.7466 56.699C48.7466 56.5502 48.7466 56.4014 48.7466 56.2619C48.7372 56.1131 48.7372 55.9735 48.7372 55.8247C48.5481 56.1131 48.3495 56.4107 48.1604 56.7083C47.9713 56.9967 47.7822 57.285 47.5931 57.5826C47.4134 57.8431 47.2432 58.1035 47.0636 58.3732C46.8839 58.6429 46.7043 58.8941 46.5057 59.1452C46.3261 59.3777 46.137 59.6009 45.9384 59.8149C45.7398 60.0288 45.5413 60.2427 45.3522 60.4659C45.2765 60.5404 45.182 60.559 45.0591 60.5124C44.9361 60.4659 44.8416 60.4194 44.7754 60.3729C44.6714 60.2892 44.5958 60.1962 44.539 60.0846C44.4823 59.9823 44.4539 59.8614 44.4445 59.7312C44.3877 58.736 44.3594 57.7407 44.3594 56.7455C44.3594 56.6711 44.3594 56.5874 44.3594 56.513C44.3594 55.6015 44.3688 54.6807 44.3972 53.7599C44.4067 53.6111 44.4728 53.5367 44.5958 53.5274C44.7187 53.5181 44.8321 53.546 44.9267 53.5925C45.0591 53.6576 45.1631 53.7599 45.2576 53.8901C45.3522 54.0203 45.39 54.1598 45.39 54.2994C45.3711 55.0155 45.3522 55.741 45.3522 56.4572C45.3427 57.1734 45.3522 57.8989 45.3711 58.6057C45.4184 58.5499 45.4751 58.4941 45.5224 58.429C45.5697 58.3639 45.6169 58.3081 45.6642 58.243C45.8533 58.0105 46.0235 57.7686 46.1937 57.5175C46.3544 57.2664 46.5246 57.0153 46.6854 56.7734C47.0447 56.234 47.404 55.6945 47.7538 55.1458C48.1037 54.6063 48.463 54.0668 48.8223 53.5274C48.8696 53.4623 48.9168 53.4251 48.9641 53.3972Z" fill="rgb(0,0,0)" fill-rule="nonzero" />
			<path id="Vector" d="M51.8109 57.7034C51.8014 58.1592 51.8014 58.6149 51.8014 59.0707C51.7919 59.5264 51.792 59.9822 51.792 60.4472C51.792 60.596 51.7258 60.6705 51.5934 60.6705C51.5745 60.6798 51.5556 60.6798 51.5461 60.6798C51.4326 60.6798 51.3381 60.6612 51.2624 60.6146C51.1301 60.5402 51.0166 60.4379 50.9315 60.317C50.8464 60.1868 50.8086 60.0566 50.8086 59.9078C50.8181 58.9126 50.8181 57.9081 50.8181 56.9128C50.8275 55.9083 50.8275 54.9038 50.8275 53.9086C50.837 53.7598 50.9031 53.6854 51.0261 53.6761C51.1584 53.6668 51.2624 53.6947 51.357 53.7412C51.4894 53.8156 51.5934 53.9179 51.6879 54.0388C51.7825 54.169 51.8203 54.3086 51.8203 54.4481C51.8203 54.8015 51.8203 55.1643 51.8109 55.5084C51.8109 55.8618 51.8109 56.2153 51.8109 56.5687C51.9811 56.4292 52.1512 56.2804 52.3214 56.1316C52.4822 55.9827 52.6524 55.8339 52.8037 55.6665C53.0968 55.3689 53.3804 55.0619 53.6357 54.7364C53.9005 54.4109 54.1558 54.076 54.4016 53.7412C54.4394 53.6854 54.5056 53.6389 54.5907 53.611C54.6758 53.5831 54.7704 53.5645 54.8649 53.5645C54.8838 53.5552 54.9122 53.5552 54.9311 53.5552C55.054 53.5552 55.1675 53.5738 55.2904 53.611C55.4228 53.6575 55.5079 53.7226 55.5457 53.8156C55.5646 53.8528 55.5646 53.89 55.5646 53.9365C55.5552 53.983 55.5268 54.0295 55.4984 54.076C55.2431 54.4202 54.9784 54.7643 54.7136 55.0898C54.4394 55.4154 54.1558 55.7409 53.8532 56.0479C53.7019 56.1967 53.5412 56.3455 53.3804 56.4943C53.2197 56.6431 53.0495 56.7826 52.8888 56.9221C53.4372 57.3035 53.9383 57.7499 54.3922 58.2429C54.846 58.7358 55.2242 59.2939 55.5363 59.8985C55.5552 59.945 55.5741 59.9822 55.5741 60.0287L55.5741 60.038C55.5646 60.0752 55.5552 60.1124 55.5268 60.1589C55.4701 60.2426 55.3661 60.3077 55.2242 60.3449C55.0729 60.3821 54.9311 60.3914 54.7893 60.3821C54.6947 60.3728 54.6002 60.3449 54.5245 60.3077C54.4489 60.2705 54.3922 60.2147 54.3543 60.1496C54.0896 59.638 53.7681 59.1544 53.3804 58.7172C52.9928 58.2708 52.5673 57.8802 52.0945 57.536C51.9716 57.6011 51.877 57.6662 51.8109 57.7034Z" fill="rgb(0,0,0)" fill-rule="nonzero" />
			<path id="Vector" d="M61.6845 60.4566C61.6751 60.5589 61.6467 60.6333 61.59 60.6891C61.5143 60.7635 61.4103 60.7821 61.2779 60.7356C61.1456 60.6984 61.0226 60.6147 60.8997 60.4845C60.7863 60.3636 60.7201 60.2333 60.7012 60.0938C60.6633 59.852 60.635 59.6009 60.6066 59.3683C60.5688 59.1265 60.531 58.8754 60.4931 58.6429C60.1811 58.6894 59.8691 58.7452 59.5476 58.801C59.2356 58.8661 58.9236 58.9219 58.6021 58.9684C58.4224 58.9963 58.2333 59.0242 58.0442 59.0428C57.8551 59.0614 57.6755 59.1079 57.5053 59.173L57.4958 59.173L57.4958 59.1823C57.4012 59.4149 57.3162 59.6567 57.2311 59.8985C57.1554 60.1403 57.0798 60.3915 57.0136 60.6426C56.9852 60.7449 56.9285 60.7914 56.8339 60.7914C56.7961 60.7914 56.7583 60.7821 56.711 60.7635C56.5503 60.717 56.4368 60.6612 56.3801 60.6147C56.2761 60.5217 56.1815 60.4194 56.1153 60.2891C56.0775 60.2054 56.0586 60.1217 56.0586 60.0287C56.0586 59.9822 56.0681 59.9357 56.0775 59.8892C56.3706 58.7359 56.8056 57.6384 57.3918 56.6152C57.9686 55.5921 58.5737 54.5876 59.2167 53.5831C59.2734 53.4901 59.349 53.4436 59.4341 53.4436C59.4531 53.4436 59.4814 53.4436 59.5098 53.4529C59.6327 53.4901 59.7462 53.5366 59.8313 53.611C59.8975 53.6575 59.9636 53.7319 60.0487 53.8342C60.1244 53.9366 60.1717 54.0296 60.1811 54.1319C60.4175 54.6992 60.6161 55.2666 60.7863 55.8526C60.9564 56.4292 61.0983 57.0152 61.2212 57.6012C61.3914 57.7221 61.5143 57.8988 61.59 58.122C61.6656 58.3452 61.5994 58.4754 61.3914 58.522C61.4387 58.8382 61.486 59.1451 61.5332 59.4614C61.571 59.7776 61.6089 60.0938 61.6561 60.4101C61.6845 60.4194 61.6845 60.438 61.6845 60.4566ZM59.5192 57.6942C59.784 57.6477 60.0582 57.6012 60.3324 57.564C60.2568 57.1547 60.1622 56.7362 60.0487 56.3269C59.9447 55.9177 59.8313 55.5084 59.6894 55.1085C59.3963 55.5735 59.1032 56.0479 58.829 56.5129C58.5548 56.9873 58.2995 57.4709 58.0537 57.9639C58.1577 57.9453 58.2711 57.9267 58.3846 57.9081C58.4886 57.8895 58.6021 57.8709 58.7061 57.8616C58.9803 57.7965 59.245 57.75 59.5192 57.6942Z" fill="rgb(0,0,0)" fill-rule="nonzero" />
			<path id="Vector" d="M65.8719 53.5646C65.9475 53.5646 66.0137 53.5832 66.0894 53.6204C66.165 53.6669 66.2407 53.7227 66.3069 53.7971C66.4109 53.8994 66.4865 54.0203 66.5338 54.1505C66.5527 54.2249 66.5716 54.2808 66.5716 54.3366C66.5716 54.3924 66.5621 54.4389 66.5338 54.4761C66.5149 54.5133 66.4865 54.5412 66.4487 54.5598C66.4109 54.5784 66.3541 54.597 66.2974 54.6063C65.9759 54.6249 65.6544 54.6435 65.333 54.6714C65.0115 54.6993 64.6994 54.7365 64.378 54.7737C64.3496 54.783 64.3307 54.7923 64.3212 54.8202C64.3118 54.8481 64.3118 54.8667 64.3212 54.8853C64.3591 54.9411 64.3874 55.0062 64.4063 55.0713C64.4252 55.1364 64.4252 55.2016 64.4252 55.2667C64.3874 56.1224 64.3591 56.9873 64.3212 57.8523C64.2834 58.7173 64.2456 59.5823 64.2078 60.4473C64.1983 60.5961 64.1321 60.6705 64.0092 60.6705C63.9903 60.6798 63.9714 60.6799 63.9619 60.6799C63.8579 60.6799 63.7634 60.6612 63.6783 60.6147C63.5554 60.5496 63.4419 60.4473 63.3473 60.3171C63.2528 60.1869 63.215 60.0567 63.215 59.9079C63.2528 59.0801 63.2811 58.243 63.319 57.4152C63.3473 56.5874 63.3852 55.7503 63.423 54.9318C63.1961 54.969 62.9786 55.0062 62.7611 55.0434C62.5436 55.0806 62.3167 55.1271 62.0992 55.1736C61.9574 55.2109 61.825 55.1736 61.7021 55.0806C61.5792 54.9876 61.4752 54.8946 61.3995 54.783C61.3523 54.7086 61.305 54.5877 61.2766 54.4389C61.2672 54.4203 61.2672 54.3924 61.2766 54.3738C61.2766 54.2622 61.3334 54.1877 61.4468 54.1598C62.1749 54.011 62.9029 53.8901 63.6405 53.7878C64.378 53.6948 65.1155 53.6297 65.853 53.5832C65.8625 53.5646 65.8624 53.5646 65.8719 53.5646Z" fill="rgb(0,0,0)" fill-rule="nonzero" />
		</g>
		<g id="Group">
			<path id="Vector" d="M58.7797 39.3805C59.0822 40.1618 59.3942 40.9338 59.6779 41.715C59.7914 42.022 60.0088 41.9755 60.2358 41.9755C61.5973 41.9848 62.7036 42.9149 62.9116 44.2356C63.0629 45.175 62.7603 45.5285 61.7959 45.5285C54.3073 45.5378 46.8281 45.5378 39.3395 45.5471C38.8384 45.5471 38.3278 45.5564 37.8267 45.5564C37.1932 45.5564 36.9095 45.2959 36.8717 44.6728C36.7866 43.2497 37.9779 41.9662 39.4246 41.9755C39.8596 41.9755 40.0581 41.8546 40.1999 41.4546C40.4174 40.8315 40.6822 40.2176 40.9564 39.613C41.0604 39.3805 41.032 39.2596 40.8051 39.1387C38.3467 37.8272 36.2476 36.0879 34.5078 33.8092C34.5078 34.3114 34.5078 34.7207 34.5078 35.1299C34.5078 37.5761 34.47 40.0316 34.5173 42.4777C34.5457 44.1054 33.2219 45.5285 31.5389 45.5192C27.7567 45.5006 23.9746 45.5285 20.1925 45.5285C15.966 45.5285 11.7489 45.5285 7.52236 45.5285C5.86768 45.5285 4.82759 44.8123 4.42101 43.3706C4.33591 43.0823 4.33591 42.7568 4.33591 42.4498C4.32646 35.8647 4.33591 29.2703 4.33591 22.6852C4.33591 22.4526 4.33591 22.2294 4.33591 21.9783C4.00498 21.9597 3.72132 21.9783 3.44711 21.9225C2.48267 21.7272 1.86808 21.011 1.84916 19.96C1.8208 18.4718 1.81134 16.9837 1.84916 15.4955C1.87753 14.2864 2.68123 13.5795 3.91988 13.5795C6.23643 13.5795 8.55299 13.5795 10.8695 13.5795C11.0397 13.5795 11.2099 13.5795 11.3423 13.5795C10.8317 13.0214 10.2455 12.5285 9.83891 11.9053C7.94785 9.06849 9.97128 6.15727 12.1838 5.63642C13.8007 5.25507 15.1055 5.88754 16.2591 6.91995C17.8287 8.31511 18.708 10.1381 19.3888 12.0634C19.4361 12.1843 19.4739 12.3052 19.5117 12.3983C20.0317 11.31 20.5045 10.1846 21.1002 9.1243C21.8188 7.83145 22.8305 6.77114 24.1637 6.04566C26.8396 4.5947 29.4682 6.3805 29.9787 8.81736C30.3664 10.6497 29.5249 12.0448 28.1728 13.2167C28.0499 13.3284 27.908 13.4214 27.7 13.5795C28.967 13.5795 30.1489 13.5795 31.3214 13.5795C31.9171 13.5795 32.6168 13.7655 33.0895 13.5237C33.5434 13.2911 33.7609 12.6029 34.1013 12.1378C36.1531 9.30101 38.6776 6.98506 41.9303 5.57131C43.0365 5.09696 44.2563 4.89233 45.4287 4.5668C45.5517 4.52959 45.6651 4.51099 45.8448 4.46449C45.3815 3.48788 44.9276 2.54848 44.4927 1.59977C44.3792 1.33935 44.2846 1.05101 44.2752 0.762683C44.2563 0.353439 44.5778 0.0465051 45.0033 0C45.1073 0.018602 45.2207 0.018602 45.3342 0.018602C48.3788 0.018602 51.414 0.018602 54.4586 0.018602C55.3947 0.018602 55.735 0.45575 55.4041 1.32074C54.9975 2.38106 54.4964 3.41347 54.052 4.40868C62.4956 6.65023 67.7622 11.8867 68.7739 20.5366C69.7478 28.8517 66.0602 35.0834 58.7797 39.3805ZM15.5972 43.9287C15.5972 36.5809 15.5972 29.2889 15.5972 22.0155C12.3446 22.0155 9.12031 22.0155 5.89604 22.0155C5.88659 22.1271 5.88659 22.2108 5.88659 22.2852C5.88659 29.0378 5.87713 35.7996 5.87713 42.5521C5.87713 43.3706 6.42554 43.9287 7.25761 43.9287C8.79882 43.9287 10.3495 43.9287 11.8907 43.9287C13.1105 43.9287 14.3396 43.9287 15.5972 43.9287ZM23.5775 21.9969C23.5775 29.3354 23.5775 36.6181 23.5775 43.9287C23.7666 43.9287 23.9273 43.9287 24.0786 43.9287C26.5086 43.9287 28.9292 43.9287 31.3592 43.9287C32.4466 43.9287 32.891 43.4822 32.891 42.394C32.891 38.7387 32.891 35.0834 32.8815 31.4281C32.8815 31.2514 32.8343 31.0654 32.7492 30.9073C31.6807 28.6657 31.0188 26.3312 30.9054 23.8478C30.877 23.2339 30.8297 22.6201 30.7919 21.9969C28.3808 21.9969 25.9981 21.9969 23.5775 21.9969ZM17.2802 21.9969C17.2802 29.3261 17.2802 36.6181 17.2802 43.9008C18.8404 43.9008 20.3816 43.9008 21.9134 43.9008C21.9134 36.5809 21.9134 29.2982 21.9134 21.9969C20.3627 21.9969 18.8309 21.9969 17.2802 21.9969ZM15.6067 15.2165C15.4932 15.2072 15.4081 15.1886 15.3135 15.1886C11.5787 15.1886 7.84384 15.1886 4.10899 15.1886C3.5984 15.1886 3.41875 15.3746 3.41875 15.9047C3.41875 17.1325 3.41875 18.3509 3.41875 19.5786C3.41875 20.2669 3.54167 20.3971 4.2319 20.3971C7.85329 20.3971 11.4841 20.3971 15.1055 20.3971C15.2757 20.3971 15.4365 20.3971 15.6067 20.3971C15.6067 18.6392 15.6067 16.9371 15.6067 15.2165ZM34.8577 13.9329C38.6776 16.0163 42.4598 18.0719 46.2419 20.1367C46.4121 19.9507 46.5256 19.7554 46.7052 19.6344C47.0551 19.3926 46.9794 19.1787 46.7903 18.8718C45.2491 16.3326 43.7173 13.7748 42.1856 11.2263C41.5993 10.2497 41.0131 9.26381 40.4174 8.2593C38.1103 9.74746 36.276 11.5984 34.8577 13.9329ZM59.4226 8.2779C57.2101 11.9797 55.0164 15.6536 52.8133 19.3461C53.0686 19.6158 53.305 19.8577 53.5414 20.1088C57.3614 18.044 61.1624 15.9884 64.9729 13.9329C63.5451 11.6077 61.7297 9.74746 59.4226 8.2779ZM64.9067 31.5025C61.0962 29.4563 57.3046 27.4194 53.5225 25.3825C53.2483 25.6708 53.0214 25.9219 52.7661 26.1917C54.9597 29.8284 57.1533 33.4744 59.347 37.1203C61.6257 35.6694 63.4695 33.8371 64.9067 31.5025ZM46.2514 25.3918C42.4598 27.4473 38.6871 29.4935 34.905 31.5397C36.3611 33.8092 38.1576 35.6508 40.4647 37.0831C42.6394 33.4371 44.7952 29.8191 46.9605 26.201C46.7241 25.9312 46.5066 25.6894 46.2514 25.3918ZM50.7237 27.2334C50.7237 31.4281 50.7237 35.6229 50.7237 39.8548C53.305 39.7618 55.6878 39.0922 57.9381 37.9481C57.9003 37.8644 57.8625 37.79 57.8247 37.7249C55.7729 34.33 53.7305 30.9352 51.6787 27.5403C51.3478 26.9915 51.3478 26.9915 50.7237 27.2334ZM41.8924 37.8365C43.9632 39.1015 47.802 40.013 49.069 39.7618C49.069 35.5857 49.069 31.4095 49.069 27.2055C48.8327 27.1311 48.6057 27.066 48.3693 26.9915C46.1946 30.6189 44.0483 34.2184 41.8924 37.8365ZM57.333 39.9758C52.3595 41.9569 47.4333 41.9569 42.526 39.9572C42.1572 40.8594 41.7412 41.7243 41.448 42.6265C41.2022 43.3613 40.7105 43.6125 40.0014 43.6311C39.7839 43.6404 39.557 43.6125 39.3395 43.6404C39.1599 43.6683 38.9897 43.752 38.81 43.8171C38.8195 43.845 38.8289 43.8729 38.8384 43.9008C46.1946 43.9008 53.5509 43.9008 60.9071 43.9008C60.9166 43.845 60.9166 43.7892 60.926 43.7427C60.5762 43.6962 60.2358 43.6218 59.8859 43.6218C58.9215 43.6218 58.6567 43.4543 58.3163 42.5614C58.0043 41.715 57.6734 40.8687 57.333 39.9758ZM32.4749 21.9318C36.8244 21.9318 41.1455 21.9318 45.4571 21.9318C45.4949 21.8853 45.5233 21.8388 45.5611 21.8016C45.4287 21.6621 45.3153 21.4667 45.1545 21.383C42.5165 19.9321 39.869 18.4904 37.231 17.0488C36.1909 16.4814 35.1603 15.914 34.0918 15.3374C33.0706 17.4301 32.5695 19.6065 32.4749 21.9318ZM54.2033 21.9411C58.6567 21.9411 62.9778 21.9411 67.3273 21.9411C67.2043 19.6251 66.7316 17.4394 65.6915 15.356C61.9188 17.4115 58.1934 19.4298 54.468 21.476C54.3546 21.5318 54.3167 21.7458 54.2033 21.9411ZM54.052 23.8664C58.0421 26.0149 61.8432 28.0705 65.6726 30.1353C66.7032 28.0054 67.2138 25.8382 67.3367 23.5502C67.2043 23.5409 67.1382 23.5316 67.072 23.5316C62.9305 23.5316 58.7891 23.5223 54.6477 23.5409C54.4775 23.5409 54.3073 23.7176 54.052 23.8664ZM45.6178 23.5502C41.1171 23.5502 36.8149 23.5502 32.5222 23.5502C32.5128 25.5406 33.4016 28.9727 34.2053 30.0609C34.2336 30.0516 34.2715 30.0423 34.2904 30.033C37.959 28.0519 41.6277 26.08 45.2869 24.0803C45.4193 24.0059 45.4666 23.7827 45.6178 23.5502ZM51.4329 18.5276C53.6265 14.8444 55.8107 11.1798 57.9949 7.53382C57.9476 7.47802 57.9381 7.44081 57.9098 7.43151C56.5387 6.74324 55.0826 6.28749 53.5698 6.00846C53.4374 5.98055 53.201 6.13867 53.1254 6.26888C52.5486 7.39431 52.0002 8.53833 51.4423 9.67305C51.3194 9.91488 51.1965 10.2404 50.979 10.352C50.6764 10.5101 50.6954 10.7148 50.6954 10.9566C50.6954 13.1981 50.6954 15.449 50.6954 17.6905C50.6859 18.3416 50.6859 18.3416 51.4329 18.5276ZM48.4544 18.5369C48.6814 18.3695 49.0879 18.5462 49.0879 18.0626C49.069 15.635 49.0785 13.1981 49.0785 10.7706C49.0785 10.6683 49.0312 10.538 48.965 10.4543C48.7286 10.1288 48.4261 9.84977 48.2559 9.50564C47.7169 8.44532 47.2347 7.3664 46.7052 6.29679C46.639 6.16657 46.4405 5.98985 46.327 6.00846C44.748 6.28749 43.2351 6.76184 41.8074 7.49662C44.0294 11.1798 46.2324 14.8537 48.4544 18.5369ZM23.568 20.3599C26.0737 20.3599 28.5321 20.3599 30.9905 20.3599C31.1701 18.5555 31.6712 16.8627 32.3709 15.2165C29.402 15.2165 26.4992 15.2165 23.568 15.2165C23.568 16.9371 23.568 18.6392 23.568 20.3599ZM20.8733 13.626C22.613 13.5144 24.2677 13.4307 25.8184 12.7703C26.745 12.3797 27.5298 11.7937 28.0593 10.9287C28.7023 9.86838 28.5226 8.63134 27.6055 7.76635C26.7923 6.99436 25.7049 6.91065 24.6459 7.63613C24.0881 8.01747 23.568 8.49183 23.1331 9.01268C22.0363 10.3427 21.469 11.9425 20.8733 13.626ZM18.1312 13.4214C17.7625 12.0727 17.2235 10.8357 16.486 9.69166C15.8714 8.73365 15.1528 7.85006 14.056 7.3757C13.2523 7.02227 12.4486 7.05017 11.7583 7.60823C11.0019 8.2221 10.567 8.99408 10.7655 10.0079C11.0303 11.3565 11.9758 12.1378 13.1672 12.6587C14.7273 13.347 16.4104 13.3656 18.1312 13.4214ZM46.327 1.67418C46.3837 1.8323 46.4121 1.93461 46.4594 2.02762C47.4711 4.10175 48.4828 6.18517 49.5134 8.2593C49.5796 8.39882 49.7687 8.57553 49.8916 8.56623C50.0429 8.54763 50.2415 8.38951 50.3171 8.25C50.8655 7.18038 51.3856 6.09216 51.9151 5.01325C52.454 3.90643 52.993 2.80891 53.5414 1.67418C51.1208 1.67418 48.7476 1.67418 46.327 1.67418ZM46.9983 22.7317C46.9983 24.3594 48.2464 25.6429 49.8727 25.6615C51.4234 25.6801 52.7661 24.3222 52.7661 22.7317C52.7661 21.1505 51.4801 19.8484 49.8916 19.8391C48.3504 19.8391 47.0078 21.1784 46.9983 22.7317ZM21.9228 15.2258C20.3532 15.2258 18.8215 15.2258 17.2708 15.2258C17.2708 16.9557 17.2708 18.6485 17.2708 20.3785C18.8309 20.3785 20.3627 20.3785 21.9228 20.3785C21.9228 18.6578 21.9228 16.9557 21.9228 15.2258Z" fill="rgb(0,0,0)" fill-rule="nonzero" />
			<path id="Vector" d="M32.8658 66C25.1597 66 13.6904 65.9907 5.98434 66.0093C4.20674 66.0093 2.82626 65.3861 2.07929 63.7398C1.87128 63.2934 1.77672 62.7539 1.77672 62.261C1.74836 58.6987 1.75781 55.1271 1.76727 51.5648C1.77672 49.3232 3.39358 47.7514 5.66286 47.7514C21.3114 47.7514 51.4833 47.7514 67.1224 47.7421C69.2688 47.7421 71.0464 49.4069 71.018 51.5741C70.9613 55.0434 70.9613 58.5219 71.018 61.9912C71.0559 64.1212 69.3255 66.0372 66.9239 66.0186C59.1516 65.9721 40.6286 66 32.8658 66ZM32.9698 49.3232C25.1219 49.3232 13.5108 49.3232 5.66286 49.3232C4.28238 49.3232 3.39358 50.1324 3.39358 51.4811C3.37467 55.0899 3.37467 58.6987 3.38413 62.3168C3.38413 63.2283 3.83798 63.8979 4.68896 64.2328C5.08609 64.3909 5.5494 64.4188 5.97488 64.4188C16.527 64.4281 30.8518 64.4281 41.404 64.4281C46.3018 64.4281 61.9598 64.4281 66.8577 64.4281C68.5029 64.4281 69.3823 63.5817 69.3823 61.9912C69.3823 58.5033 69.3823 55.0155 69.3823 51.5276C69.3823 50.1417 68.5407 49.3232 67.1224 49.3232C59.3218 49.3232 40.761 49.3232 32.9698 49.3232Z" fill="rgb(0,0,0)" fill-rule="nonzero" />
			<path id="Vector" d="M70.4763 36.7204C70.4479 37.0274 70.4385 37.3343 70.3912 37.6412C70.2588 38.469 69.7388 38.9899 68.954 39.1666C67.9801 39.3898 67.7815 39.9851 68.3961 40.7757C68.4718 40.878 68.5569 40.971 68.623 41.0733C68.9351 41.5011 68.8878 41.9569 68.5285 42.2266C68.1125 42.5429 67.6113 42.4871 67.2898 42.0592C66.7509 41.3616 66.2687 40.6175 66.401 39.6874C66.5523 38.6736 67.2047 38.0505 68.1597 37.7063C68.85 37.4552 68.85 37.4738 68.85 36.739C68.85 36.4879 68.8405 36.2461 68.85 35.9949C68.8689 35.5764 69.2187 35.2137 69.6159 35.1951C70.0035 35.1765 70.4101 35.5206 70.4479 35.9298C70.4763 36.1903 70.4479 36.46 70.4479 36.7204C70.4574 36.7204 70.4668 36.7204 70.4763 36.7204Z" fill="rgb(0,0,0)" fill-rule="nonzero" />
			<path id="Vector" d="M4.13915 9.50561C4.11078 9.49631 3.94059 9.4684 3.7893 9.394C2.72085 8.88244 1.6524 8.37088 0.593403 7.84073C-0.0211929 7.53379 -0.172478 7.00363 0.205735 6.56649C0.470484 6.26885 0.791965 6.15724 1.17018 6.34326C2.31427 6.89202 3.46782 7.45008 4.60246 8.00814C4.99013 8.20347 5.19814 8.5383 5.09414 8.95685C4.99958 9.34749 4.70647 9.54281 4.13915 9.50561Z" fill="rgb(0,0,0)" fill-rule="nonzero" />
			<path id="Vector" d="M7.56955 5.12491C7.58847 5.63646 7.42772 5.92479 7.08733 5.9806C6.83204 6.02711 6.44437 6.0085 6.28363 5.85969C5.49884 5.097 4.77078 4.28782 4.04272 3.47863C3.74961 3.14379 3.82525 2.67874 4.14673 2.39971C4.48712 2.12068 4.90315 2.14858 5.23409 2.49272C5.91487 3.1996 6.5862 3.91578 7.24807 4.64126C7.41827 4.80867 7.52228 5.0319 7.56955 5.12491Z" fill="rgb(0,0,0)" fill-rule="nonzero" />
			<path id="Vector" d="M62.915 5.51553C62.6881 5.32951 62.4139 5.18069 62.2531 4.95747C62.064 4.70634 62.1019 4.3901 62.3382 4.14828C62.8205 3.65532 63.2932 3.15307 63.7944 2.69732C64.1253 2.39969 64.5791 2.46479 64.8912 2.78103C65.2127 3.11586 65.2505 3.4879 64.9479 3.81344C64.4846 4.29709 64.0024 4.76214 63.5107 5.21789C63.3783 5.33881 63.1798 5.38531 62.915 5.51553Z" fill="rgb(0,0,0)" fill-rule="nonzero" />
			<path id="Vector" d="M67.7056 9.43122C67.299 9.43122 66.9964 9.2359 66.883 8.86386C66.7695 8.48252 66.8735 8.11978 67.2707 7.92446C67.7434 7.69193 68.2162 7.45011 68.7079 7.24549C69.0955 7.07807 69.4076 7.25479 69.6439 7.56172C69.8803 7.87795 69.8898 8.2779 69.6061 8.48252C69.0388 8.89177 68.3958 9.1894 67.7812 9.53354C67.7529 9.50563 67.7245 9.46843 67.7056 9.43122Z" fill="rgb(0,0,0)" fill-rule="nonzero" />
		</g>
	</g>
</svg>
