<svg viewBox="0 0 57.0117 78.9946" xmlns="http://www.w3.org/2000/svg" xmlns:xlink="http://www.w3.org/1999/xlink" width="57.011719" height="78.994629" fill="none" customFrame="#000000">
	<g id="Group">
		<path id="Vector" d="M13.0204 29.3171C12.9498 28.1115 12.8439 26.9322 12.8439 25.753C12.8439 24.9698 13.0116 24.1866 13.0822 23.4033C13.1087 23.1481 13.091 22.8929 13.091 22.6289C13.0822 20.5608 13.0734 18.4928 13.0822 16.4247C13.0822 16.0639 12.9763 15.8703 12.6409 15.7383C9.34868 14.4183 6.06531 13.0894 2.78194 11.7606C2.64954 11.7078 2.51715 11.6462 2.37593 11.5934C1.94344 11.4174 1.69631 11.1094 1.69631 10.6253C1.70513 10.1325 1.96992 9.83332 2.40241 9.66612C3.62926 9.1909 4.85611 8.73329 6.08296 8.27567C13.2322 5.58279 20.3815 2.89871 27.5308 0.197028C28.2457 -0.0757807 28.8988 -0.0581801 29.6138 0.205828C37.9193 3.33872 46.2336 6.45402 54.548 9.57811C55.2805 9.85092 55.6071 10.3437 55.36 10.9246C55.2541 11.1886 54.9716 11.435 54.7068 11.567C54.0978 11.8662 53.4359 12.0862 52.8092 12.3678C52.6945 12.4206 52.5532 12.579 52.5532 12.6934C52.5444 15.9055 52.5532 19.1176 52.5532 22.3297C52.5532 22.3385 52.5709 22.3561 52.6062 22.4177C52.7562 22.4177 52.9416 22.4177 53.1269 22.4177C53.7183 22.4265 54.1067 22.7873 54.1155 23.3681C54.1331 25.2426 54.1331 27.1258 54.1155 29.0003C54.1067 29.5987 53.7006 29.9771 53.1005 29.9771C52.1031 29.9859 51.0969 29.9859 50.0995 29.9771C49.4552 29.9683 49.0933 29.6515 49.0845 29.0179C49.0669 27.1434 49.058 25.2602 49.0669 23.3857C49.0757 22.7169 49.4199 22.4177 50.0907 22.4089C50.2407 22.4089 50.382 22.4089 50.5585 22.4089C50.5585 19.364 50.5585 16.3367 50.5585 13.2566C49.6935 13.6086 48.8374 13.9606 47.9724 14.3039C46.7544 14.7967 45.5364 15.2895 44.3183 15.7647C44.08 15.8615 43.9829 15.9759 43.9829 16.2399C43.9918 18.484 43.9565 20.7281 43.9829 22.9721C43.9918 23.6233 44.2301 24.2658 44.2212 24.917C44.2124 26.0962 44.0977 27.2754 44.0182 28.4547C44.0006 28.7275 43.9564 29.0003 43.93 29.2731C45.3422 29.5987 46.2689 30.8484 46.1542 32.8636C46.0836 34.1221 45.7835 35.3365 45.1392 36.4541C44.4949 37.5718 43.6211 38.4166 42.3854 38.8566C42.2706 38.9006 42.1382 39.0414 42.1029 39.1558C41.2909 41.8223 39.9935 44.216 37.9811 46.1872C37.8928 46.2664 37.8222 46.372 37.7251 46.4248C36.8866 46.8736 36.9484 47.5953 37.1426 48.3609C37.1779 48.5193 37.2132 48.6777 37.2573 48.8273C37.5309 49.7073 37.9899 50.3234 38.952 50.693C42.0765 51.881 45.1656 53.1482 48.2372 54.4595C50.8145 55.5595 52.9769 57.1964 54.3891 59.6868C55.3247 61.3325 55.8807 63.1101 56.1279 64.9582C56.4015 67.0439 56.5957 69.1383 56.7545 71.2328C56.8869 72.94 56.9664 74.6561 57.0105 76.3633C57.0458 77.789 55.8013 78.9946 54.3803 78.9946C37.1426 78.9946 19.8961 78.9946 2.65837 78.9946C1.16673 78.9946 -0.0512935 77.8066 0.00166406 76.3105C0.0722742 74.2161 0.178189 72.1216 0.345888 70.0359C0.495935 68.1703 0.690113 66.3134 0.972553 64.4654C1.41387 61.6493 2.50832 59.1148 4.60897 57.0996C6.06531 55.7003 7.82173 54.7587 9.68407 54.0107C12.6497 52.8138 15.6242 51.6522 18.5809 50.4466C18.8634 50.3322 19.137 50.0769 19.3047 49.8129C19.7901 49.0649 20.0108 48.2113 20.0108 47.3225C20.0108 47.1465 19.9137 46.9264 19.7813 46.812C17.4159 44.7528 15.8536 42.2007 14.9798 39.2174C14.9357 39.0678 14.821 38.883 14.6974 38.839C12.8086 38.1702 11.8112 36.7181 11.2375 34.9229C10.9374 33.9637 10.7609 32.9692 10.9109 31.9396C11.1404 30.646 11.7759 29.7219 13.0204 29.3171ZM45.148 76.953C45.148 76.8034 45.148 76.6889 45.148 76.5745C45.148 73.4505 45.148 70.3264 45.148 67.2023C45.148 67.0263 45.148 66.8503 45.1833 66.6742C45.2892 66.0846 45.6952 65.803 46.2866 65.8734C46.8162 65.9438 47.0809 66.287 47.0809 66.9383C47.0898 70.0888 47.0898 73.248 47.0898 76.3985C47.0898 76.5834 47.0898 76.7682 47.0898 76.9706C49.4464 76.9706 51.7412 76.953 54.036 76.9794C54.8481 76.9882 55.1658 76.6714 55.1128 75.8881C54.954 73.6441 54.8128 71.3912 54.6627 69.1383C54.5391 67.2727 54.3273 65.4158 53.8595 63.603C53.1799 60.9541 51.8471 58.7364 49.4111 57.3636C48.0342 56.5891 46.5602 55.9643 45.095 55.3395C43.7623 54.7587 42.3942 54.2659 41.0173 53.7203C40.8673 53.9579 40.726 54.1779 40.5848 54.3979C38.2194 57.9884 36.0216 61.6845 33.3296 65.055C32.1028 66.595 30.7612 68.0295 29.2784 69.3319C28.7311 69.8159 28.3163 69.7895 27.7691 69.3143C25.6861 67.5015 23.8767 65.4422 22.3233 63.1805C20.3374 60.2853 18.4397 57.3372 16.5068 54.4067C16.0213 53.6763 16.0213 53.6763 15.2181 54.0107C13.091 54.8819 10.9462 55.7267 8.83675 56.6507C7.47751 57.2404 6.30362 58.1204 5.34155 59.2556C3.744 61.1477 3.09968 63.4181 2.77311 65.7942C2.56128 67.2991 2.43771 68.8127 2.32297 70.3264C2.17292 72.236 2.07584 74.1545 1.96992 76.0641C1.93462 76.7066 2.1994 76.9618 2.86137 76.9618C5.09442 76.9618 7.33629 76.9618 9.56933 76.9618C9.71055 76.9618 9.84295 76.9618 10.0018 76.9618C10.0018 76.7594 10.0018 76.6273 10.0018 76.4953C10.0018 73.2656 10.0018 70.0448 10.0106 66.8151C10.0106 66.2166 10.346 65.8734 10.9109 65.8382C11.414 65.8118 11.8377 66.155 11.9171 66.6742C11.9524 66.8767 11.9436 67.0791 11.9436 67.2903C11.9436 70.2999 11.9436 73.3008 11.9436 76.3105C11.9436 76.5129 11.9436 76.7154 11.9436 76.9354C23.0117 76.953 34.0534 76.953 45.148 76.953ZM17.107 32.3972C16.7804 32.3796 16.392 32.274 16.0655 32.3708C15.4653 32.5556 15.0946 32.4412 14.8916 31.8604C14.715 31.3412 14.3708 31.0948 13.8942 31.13C13.4529 31.1652 12.9674 31.6052 12.9233 32.0716C12.7821 33.6732 13.1969 35.1253 14.309 36.3133C14.5826 36.6125 15.0328 36.8589 15.43 36.9205C16.3302 37.0613 16.4803 37.1405 16.7186 38.047C17.5836 41.3559 19.287 44.1104 22.1379 46.0816C25.0682 48.1145 28.281 48.6865 31.6968 47.6569C34.5212 46.8032 36.7013 45.0344 38.3606 42.6231C39.3844 41.1447 40.0023 39.4814 40.4524 37.7566C40.576 37.2638 40.9026 36.9381 41.3527 36.9469C42.1118 36.9645 42.6149 36.5773 43.0473 36.0141C43.93 34.8701 44.2654 33.5588 44.133 32.1508C44.1065 31.834 43.8417 31.4732 43.5857 31.262C43.1621 30.91 42.3766 31.1828 42.2265 31.6668C41.9529 32.5116 41.7764 32.5732 40.9467 32.3268C40.6731 32.2476 40.3112 32.362 40.0288 32.4764C39.9317 32.5116 39.9317 32.8284 39.9228 33.022C39.9052 33.286 39.914 33.55 39.914 33.814C39.914 35.8469 38.1223 37.2285 36.5071 37.1493C35.2891 37.0877 34.071 37.1405 32.8442 37.1229C31.7321 37.1053 30.8936 36.5685 30.2316 35.7237C29.6049 34.9141 29.5167 33.9549 29.5079 32.978C29.5079 32.67 29.3755 32.5468 29.1107 32.5468C28.7047 32.538 28.2898 32.538 27.875 32.5468C27.6367 32.5468 27.5043 32.6436 27.5131 32.9252C27.5219 33.3036 27.4866 33.682 27.469 34.0693C27.3719 35.6709 25.8891 37.1053 24.2915 37.1229C22.9411 37.1405 21.5819 37.1493 20.2315 37.1229C18.7928 37.0965 17.3982 35.8293 17.2305 34.3949C17.1687 33.77 17.1511 33.1364 17.107 32.3972ZM5.61517 10.6605C8.15713 11.6902 10.5844 12.6758 13.0469 13.6702C13.5147 12.7814 14.3532 12.4294 15.2093 12.1214C18.3779 10.9598 21.679 10.4317 25.0241 10.1941C27.9103 9.99173 30.8053 10.0181 33.6915 10.3437C36.0481 10.6077 38.3871 10.9774 40.6466 11.7078C41.8999 12.1126 43.2768 12.3942 44.0359 13.6614C46.5161 12.667 48.9874 11.6726 51.5029 10.6605C51.3793 10.5989 51.3176 10.5637 51.2469 10.5373C43.8329 7.75646 36.4277 4.98437 29.0048 2.22109C28.7223 2.11549 28.334 2.11549 28.0515 2.22109C22.0408 4.46516 16.039 6.72683 10.0371 8.98849C8.59844 9.54291 7.15094 10.0797 5.61517 10.6605ZM42.0323 21.2561C42.0412 21.0449 42.0588 20.8425 42.0588 20.6488C42.0588 18.7832 42.0412 16.9263 42.0765 15.0607C42.0853 14.5239 41.8911 14.3039 41.4145 14.1279C37.9281 12.7814 34.274 12.3414 30.5847 12.227C27.4425 12.1214 24.3004 12.2182 21.1847 12.7374C19.2076 13.063 17.2658 13.4942 15.4123 14.2687C15.1034 14.4007 14.9622 14.5591 14.9622 14.9111C14.9798 16.8471 14.971 18.7832 14.971 20.7192C14.971 20.8689 14.9975 21.0273 15.0151 21.1945C24.0532 18.2992 33.0295 18.5192 42.0323 21.2561ZM40.2847 30.2851C39.914 29.2731 39.3138 28.4547 38.6342 27.6803C37.5133 26.4306 36.7013 25.0138 36.3835 23.3505C36.2953 22.8577 36.1893 22.3737 36.0923 21.8809C36.0481 21.8721 36.0128 21.8633 35.9687 21.8545C35.8981 21.9601 35.8186 22.0745 35.748 22.1801C35.0772 23.2625 34.274 24.2306 33.2149 24.9434C30.77 26.6066 28.0074 27.0994 25.1124 27.0202C23.4972 26.9762 21.882 26.8794 20.2756 26.809C19.7019 26.7826 19.1811 26.9674 18.7133 27.3019C17.8925 27.8739 17.4953 28.7363 17.1511 29.6251C17.0628 29.8539 17.0099 30.1091 16.9393 30.3555C17.2923 30.4699 17.4865 30.4347 17.663 30.1443C18.2102 29.2467 19.0399 28.8331 20.0902 28.8331C21.573 28.8331 23.0647 28.8331 24.5475 28.8331C25.7126 28.8331 26.5952 29.3259 27.1954 30.3379C27.266 30.4611 27.469 30.5756 27.619 30.5756C28.2192 30.602 28.8106 30.5667 29.4108 30.5932C29.6491 30.602 29.7638 30.5492 29.8786 30.3291C30.417 29.3259 31.2731 28.8243 32.4205 28.8243C33.9386 28.8243 35.4479 28.8243 36.966 28.8243C37.9546 28.8243 38.749 29.2379 39.2785 30.0299C39.5786 30.4963 39.8611 30.4875 40.2847 30.2851ZM15.0857 29.2555C15.1122 29.2555 15.1387 29.2643 15.1652 29.2643C15.2093 29.1323 15.2623 29.0091 15.3064 28.8771C15.6595 27.8739 16.1361 26.9498 16.904 26.1842C18.0161 25.0754 19.3841 24.7234 20.9199 24.7674C23.047 24.829 25.1742 24.9082 27.3013 24.8554C29.0489 24.8114 30.6729 24.213 32.1381 23.2361C32.8001 22.7961 33.3473 22.2417 33.7621 21.5113C33.6474 21.4849 33.5768 21.4585 33.5062 21.4497C32.0145 21.3617 30.5141 21.2385 29.0224 21.2121C26.0656 21.1417 23.1265 21.3353 20.2226 21.8985C18.5809 22.2153 16.9481 22.6025 15.4211 23.3505C15.1122 23.5001 14.9887 23.6937 14.9445 24.0105C14.7503 25.2602 14.715 26.5098 14.8739 27.7683C14.9269 28.2699 15.0063 28.7627 15.0857 29.2555ZM21.9791 48.4137C21.8378 48.8889 21.7584 49.3729 21.5466 49.8041C21.3524 50.209 21.4318 50.4378 21.7584 50.7194C23.1971 51.9778 24.6005 53.2626 26.0215 54.5299C26.8512 55.2691 27.7073 55.9819 28.5988 56.7563C31.0172 54.6179 33.4179 52.5058 35.7569 50.4378C35.5185 49.7073 35.3155 49.0649 35.1214 48.4489C30.7171 50.7106 26.3392 50.7634 21.9791 48.4137ZM32.9324 62.4765C31.5997 61.1829 30.3375 59.9772 29.0665 58.7452C28.74 59.0708 28.3958 59.1412 28.0339 58.754C26.7452 59.986 25.4831 61.1917 24.2033 62.4149C25.5272 64.1926 26.9394 65.8382 28.6252 67.4047C30.0816 65.7326 31.5026 64.1134 32.9324 62.4765ZM26.4628 57.5396C25.8097 56.9764 25.1742 56.4571 24.574 55.9115C23.2236 54.6971 21.8731 53.4738 20.5315 52.2506C20.2844 52.0218 20.0814 51.969 19.7637 52.1362C19.1811 52.4266 18.5721 52.6642 17.8925 52.9546C19.6313 55.5859 21.3524 58.1908 23.0823 60.8133C24.2298 59.6868 25.3419 58.622 26.4628 57.5396ZM39.1903 52.937C38.5195 52.6378 37.9193 52.3914 37.3279 52.101C37.0455 51.9602 36.869 52.0042 36.6395 52.2154C35.2008 53.5266 33.7445 54.8203 32.2881 56.1227C31.7586 56.5979 31.2113 57.0644 30.7965 57.434C31.8733 58.5604 32.9236 59.6692 34.0269 60.8221C35.7569 58.182 37.4691 55.5683 39.1903 52.937ZM22.3321 30.866C21.5819 30.866 20.8316 30.866 20.0814 30.866C19.4989 30.866 19.0929 31.2708 19.0929 31.8516C19.084 32.45 19.137 33.0572 19.084 33.6556C18.9958 34.5885 19.746 35.1517 20.5757 35.1693C21.7231 35.1957 22.8705 35.1957 24.0091 35.1693C24.8123 35.1517 25.4301 34.6765 25.536 33.8756C25.6331 33.154 25.6331 32.4148 25.5802 31.6932C25.5449 31.1476 25.13 30.866 24.574 30.866C23.8326 30.866 23.0823 30.866 22.3321 30.866ZM34.6889 30.866C33.9828 30.866 33.2767 30.866 32.5706 30.866C31.8645 30.866 31.4849 31.218 31.4585 31.922C31.4408 32.4324 31.4408 32.9516 31.4673 33.462C31.5202 34.4917 32.1381 35.1517 33.1001 35.1693C34.274 35.1957 35.4568 35.1869 36.6307 35.1693C37.3985 35.1605 37.9899 34.5181 37.9899 33.7436C37.9899 33.154 37.9987 32.5732 37.9899 31.9836C37.9811 31.2972 37.5398 30.866 36.8513 30.8572C36.1276 30.8572 35.4038 30.866 34.6889 30.866ZM41.9352 28.6571C42.2265 27.3547 42.2618 25.929 42.2177 24.5034C42.2 23.8609 41.997 23.3681 41.2733 23.1921C40.6996 23.0513 40.1435 22.8049 39.5698 22.6377C39.1461 22.5057 38.7137 22.4265 38.237 22.3033C38.4312 23.4825 38.7401 24.5474 39.4198 25.445C40.2494 26.5538 41.1232 27.6187 41.9352 28.6571ZM52.1649 27.9707C52.1649 26.7386 52.1649 25.577 52.1649 24.389C51.7765 24.389 51.4235 24.389 51.0528 24.389C51.0528 25.5858 51.0528 26.7738 51.0528 27.9707C51.4411 27.9707 51.7942 27.9707 52.1649 27.9707Z" fill="rgb(0,0,0)" fill-rule="nonzero" />
	</g>
</svg>
