<svg viewBox="0 0 76.0127 64.0033" xmlns="http://www.w3.org/2000/svg" xmlns:xlink="http://www.w3.org/1999/xlink" width="76.012695" height="64.003296" fill="none" customFrame="#000000">
	<g id="Group">
		<path id="Vector" d="M12.8953 24.5285C12.8953 36.9512 12.8953 49.3246 12.8953 61.7474C13.4636 61.7474 13.9633 61.7474 14.4629 61.7474C15.1978 61.7474 15.6093 62.1227 15.6484 62.8238C15.6876 63.4064 15.1488 63.9397 14.4923 63.9792C14.4139 63.9792 14.3258 63.9792 14.2474 63.9792C10.0344 63.9792 5.82145 63.9693 1.60848 63.9693C1.39294 63.9693 1.18719 63.9495 0.971639 63.9298C0.158438 63.8212 -0.0962993 63.357 0.0310695 62.4781C0.10945 61.9251 0.452366 61.7178 1.20678 61.7178C2.3629 61.7079 3.52881 61.7178 4.68493 61.7178C4.76331 61.7178 4.84169 61.7079 4.94947 61.698C4.94947 44.0711 4.94947 26.4738 4.94947 8.78767C4.7927 8.78767 4.61635 8.78767 4.44979 8.78767C3.44064 8.75805 2.41189 8.74817 1.38314 8.68892C0.775687 8.64942 0.393581 8.22479 0.383783 7.59279C0.373986 5.42029 0.373986 3.24778 0.383783 1.07528C0.393581 0.492654 0.834473 0.0581529 1.44192 0.00877779C1.61828 -0.0109722 1.80444 0.00877779 1.98079 0.00877779C26.0633 0.00877779 50.1556 0.00877779 74.2381 0.00877779C75.2375 0.00877779 75.6294 0.393903 75.6294 1.39128C75.6294 3.36628 75.6294 5.34129 75.6294 7.31629C75.6294 8.35317 75.2473 8.73829 74.2185 8.73829C73.18 8.73829 72.1316 8.73829 71.0539 8.73829C71.0539 26.4047 71.0539 44.0316 71.0539 61.7276C71.8279 61.7276 72.6117 61.7276 73.3857 61.7276C73.8266 61.7276 74.2675 61.7276 74.7084 61.7276C75.4824 61.7276 76.0017 62.1325 76.0115 62.7546C76.0311 63.4755 75.4824 63.989 74.6692 63.989C72.3178 63.989 69.9664 63.9989 67.6149 63.9989C65.6064 63.9989 63.5979 64.0088 61.5894 63.9989C60.6292 63.989 60.0904 63.2286 60.4333 62.3893C60.5998 61.9844 60.9036 61.7671 61.3445 61.7671C61.9323 61.7671 62.5202 61.7671 63.1472 61.7671C63.1472 49.3444 63.1472 36.971 63.1472 24.5482C46.4129 24.5285 29.6786 24.5285 12.8953 24.5285ZM10.7692 61.698C10.7692 61.4511 10.7692 61.2438 10.7692 61.0265C10.7692 45.3252 10.7692 29.624 10.7692 13.9227C10.7692 12.9549 11.2493 12.4612 12.1899 12.4612C29.3553 12.4612 46.5109 12.4612 63.6763 12.4612C64.852 12.4612 65.2439 12.8661 65.2439 14.0609C65.2439 29.7326 65.2439 45.3944 65.2439 61.066C65.2439 61.2734 65.2439 61.4808 65.2439 61.6783C66.4882 61.6783 67.6541 61.6783 68.8396 61.6783C68.8396 44.002 68.8396 26.3553 68.8396 8.70867C48.2647 8.70867 27.7191 8.70867 7.17352 8.70867C7.17352 26.385 7.17352 44.0217 7.17352 61.6783C8.35903 61.698 9.52495 61.698 10.7692 61.698ZM2.57845 2.19116C2.57845 3.65266 2.57845 5.11416 2.57845 6.58554C26.2103 6.58554 49.8127 6.58554 73.4249 6.58554C73.4249 5.10429 73.4249 3.66253 73.4249 2.19116C49.7931 2.19116 26.2103 2.19116 2.57845 2.19116ZM12.8757 17.4777C29.6492 17.4777 46.4031 17.4777 63.157 17.4777C63.157 16.5099 63.157 15.5817 63.157 14.6534C46.3737 14.6534 29.6198 14.6534 12.8757 14.6534C12.8757 15.6212 12.8757 16.5396 12.8757 17.4777ZM12.8757 22.3856C29.6492 22.3856 46.4031 22.3856 63.1472 22.3856C63.1472 21.4277 63.1472 20.4994 63.1472 19.5909C46.3639 19.5909 29.6296 19.5909 12.8757 19.5909C12.8757 20.5389 12.8757 21.4573 12.8757 22.3856Z" fill="rgb(0,0,0)" fill-rule="nonzero" />
		<path id="Vector" d="M49.0782 58.2418C41.6712 58.2418 34.2936 58.2418 26.8964 58.2418C26.8572 58.7948 26.8278 59.3083 26.7984 59.8317C26.72 61.2537 25.4072 62.4683 23.9375 62.4189C22.948 62.3893 21.9584 62.3696 20.9786 62.4189C19.1171 62.5078 17.7748 60.8389 17.8826 59.3182C17.9414 58.4591 17.912 57.5999 17.912 56.7408C17.912 56.6519 17.9022 56.5532 17.863 56.4939C17.0302 55.3879 16.7951 54.0943 16.7559 52.7612C16.7069 51.2503 16.6971 49.7394 16.7461 48.2384C16.7951 47.0337 16.7461 45.7993 17.2458 44.6538C17.5201 44.0218 17.8336 43.4095 18.1471 42.7578C17.8728 42.5603 17.5789 42.343 17.2751 42.1357C16.7069 41.7505 16.5109 41.1679 16.4521 40.526C16.4228 40.1903 16.4326 39.8348 16.5011 39.499C16.7069 38.4523 17.814 38.1659 18.6958 38.1461C19.3326 38.1363 19.9695 38.1066 20.5965 38.0375C20.7239 38.0276 20.8611 37.8203 20.9199 37.682C21.4979 36.418 22.0564 35.1441 22.6344 33.8801C23.1929 32.6655 23.9375 31.5891 25.0936 30.8485C26.1714 30.1573 27.3471 29.7326 28.6306 29.7326C34.1956 29.7228 39.7704 29.7228 45.3355 29.7326C46.374 29.7326 47.4322 29.6931 48.4511 29.8314C50.5576 30.1276 52.1252 31.3028 53.0952 33.1889C53.8202 34.5911 54.4179 36.0625 55.0253 37.524C55.2115 37.9684 55.4858 38.1363 55.9071 38.1461C56.397 38.156 56.8966 38.1264 57.3865 38.156C58.4349 38.2153 59.2285 38.5214 59.4832 39.4891C59.7282 40.4273 59.6498 41.5333 58.719 42.1554C58.4153 42.3529 57.9744 42.5504 57.9058 42.8269C57.847 43.0837 58.2193 43.4293 58.3761 43.7552C58.8268 44.634 59.1501 45.5623 59.1795 46.5399C59.2481 48.6729 59.2873 50.8158 59.2775 52.9587C59.2677 54.2227 59.0423 55.4373 58.1507 56.4248C58.0528 56.5334 58.0332 56.7309 58.0332 56.8889C58.0234 57.7678 58.0528 58.6368 58.0234 59.5157C57.9548 61.0957 56.8379 62.3696 55.1625 62.4189C54.2219 62.4486 53.2813 62.4288 52.331 62.4189C50.4106 62.4091 49.1663 61.2241 49.1369 59.3182C49.1369 58.9528 49.0978 58.5973 49.0782 58.2418ZM36.2335 56.3261C36.2335 56.3458 36.2335 56.3754 36.2335 56.3952C41.1813 56.3162 46.1389 56.2471 51.0867 56.1681C52.1154 56.1582 53.154 56.1681 54.1827 56.1582C56.25 56.1483 57.3571 54.8843 57.3865 52.9685C57.4159 51.2305 57.4159 49.5024 57.3865 47.7644C57.3669 46.4609 57.1024 45.2068 56.397 44.081C55.9267 43.3305 55.3584 42.6393 54.9861 41.8493C53.928 39.6076 52.958 37.3265 51.9195 35.075C51.5961 34.3739 51.2042 33.6826 50.7242 33.0901C49.813 31.9841 48.4707 31.6978 47.1578 31.6484C44.3459 31.5398 41.534 31.5595 38.7221 31.5595C35.8808 31.5595 33.0395 31.5891 30.1982 31.6385C29.385 31.6484 28.562 31.678 27.7586 31.8261C26.4555 32.073 25.3092 32.705 24.7213 33.9394C23.7906 35.8749 23.0165 37.8894 22.1054 39.8348C21.5273 41.0593 20.9199 42.3134 20.1262 43.3997C19.2347 44.6044 18.7448 45.8783 18.7056 47.3398C18.6664 49.1469 18.686 50.9639 18.6958 52.771C18.6958 53.1265 18.735 53.4919 18.7938 53.8375C18.9603 54.8251 19.411 55.6447 20.4104 55.9706C21.008 56.1681 21.6547 56.3063 22.2719 56.3063C26.9258 56.3359 31.5796 56.3261 36.2335 56.3261ZM50.8711 58.2122C50.9005 58.6467 50.9005 59.0614 50.9593 59.4762C51.0475 60.1279 51.3806 60.4933 51.9391 60.5032C53.0168 60.5229 54.0847 60.5229 55.1625 60.4933C55.7209 60.4834 56.103 60.1378 56.1324 59.6342C56.1716 59.0713 56.1422 58.4986 56.1422 58.0344C54.3885 58.0937 52.6543 58.1529 50.8711 58.2122ZM19.7735 57.8468C19.7735 58.4097 19.8127 58.9232 19.7637 59.4268C19.705 60.1181 20.2536 60.4834 20.7729 60.5032C21.88 60.5229 22.9871 60.5229 24.0943 60.4933C24.6233 60.4834 24.8879 60.2464 24.9761 59.7132C25.0642 59.2491 25.0642 58.7751 25.1132 58.2714C23.2811 58.1924 21.5175 58.4196 19.7735 57.8468ZM19.9793 39.9928C19.411 39.9928 18.9407 39.9928 18.4705 39.9928C18.4509 39.9928 18.4411 39.9829 18.4313 39.9928C18.3431 40.0421 18.1961 40.0816 18.1765 40.1508C18.0981 40.4668 18.5194 40.9506 18.9897 41.158C19.4012 41.3358 19.411 40.9309 19.5482 40.763C19.705 40.5556 19.8029 40.2989 19.9793 39.9928ZM56.0737 40.0125C56.299 40.3878 56.4558 40.7038 56.6713 40.9803C56.7497 41.079 56.9554 41.1481 57.0926 41.1284C57.5237 41.0593 57.8568 40.4865 57.798 40.0125C57.2592 40.0125 56.7203 40.0125 56.0737 40.0125Z" fill="rgb(0,0,0)" fill-rule="nonzero" />
		<path id="Vector" d="M38.1049 42.7677C33.9409 42.7677 29.7867 42.7677 25.6228 42.7677C24.545 42.7677 24.0551 42.4615 23.869 41.553C23.8004 41.2074 23.8396 40.7927 23.9768 40.4668C24.7214 38.6695 25.4562 36.8624 26.2988 35.1145C26.7593 34.1567 27.6215 33.6234 28.7188 33.6234C34.7639 33.6135 40.809 33.6333 46.8542 33.6135C48.3532 33.6135 49.3819 34.2752 49.9894 35.6083C50.7046 37.1883 51.4198 38.7584 52.0861 40.3582C52.3506 41 52.282 41.6814 51.8705 42.2838C51.5668 42.7183 51.0965 42.7578 50.6262 42.7578C47.0011 42.7578 43.3858 42.7578 39.7607 42.7578C39.212 42.7677 38.6536 42.7677 38.1049 42.7677ZM50.3519 40.921C50.1853 40.5162 50.0286 40.1409 49.8718 39.7755C49.3526 38.5708 48.8431 37.3562 48.2944 36.1613C48.0495 35.6182 47.5988 35.312 46.9815 35.3417C46.4623 35.3614 45.943 35.4207 45.4237 35.4207C39.9469 35.4305 34.47 35.4404 28.9931 35.4108C28.3073 35.4108 27.9448 35.707 27.6901 36.2798C27.2786 37.208 26.8671 38.1363 26.4654 39.0744C26.2008 39.6867 25.9559 40.2989 25.6913 40.9309C33.9311 40.921 42.1121 40.921 50.3519 40.921Z" fill="rgb(0,0,0)" fill-rule="nonzero" />
		<path id="Vector" d="M38.0462 47.478C39.8979 47.478 41.7595 47.5274 43.6112 47.4681C45.2964 47.4089 45.7961 48.505 45.4336 49.8875C45.169 50.8849 44.6106 51.7341 43.7092 52.2575C43.3271 52.4748 42.847 52.6229 42.4061 52.6327C39.506 52.6624 36.5961 52.6031 33.696 52.6722C32.1676 52.7019 30.7862 50.9935 30.6392 49.8677C30.5608 49.2752 30.4432 48.6926 30.8253 48.1396C31.1487 47.6755 31.5798 47.4879 32.1088 47.4879C34.0879 47.4681 36.0671 47.478 38.0462 47.478ZM32.3734 49.3049C32.5889 50.3319 33.1768 50.8256 34.1467 50.8256C36.7529 50.8256 39.3493 50.7861 41.9554 50.8454C42.8274 50.8651 43.3565 50.3812 43.621 49.3049C39.8783 49.3049 36.1258 49.3049 32.3734 49.3049Z" fill="rgb(0,0,0)" fill-rule="nonzero" />
		<path id="Vector" d="M51.184 52.4945C50.361 52.3267 49.4597 52.3168 48.7346 51.9514C47.1474 51.1614 46.7555 49.5913 47.461 47.8236C47.941 46.6386 48.9208 46.1449 50.1259 46.0165C50.8803 45.9375 51.6347 45.8881 52.3989 45.8388C53.7902 45.7598 55.2696 47.1028 55.446 48.5149C55.5244 49.1469 55.4754 49.7394 55.3088 50.3319C54.9757 51.5564 54.0841 52.1094 52.8986 52.2477C52.3402 52.3168 51.7719 52.3365 51.2134 52.376C51.2036 52.4254 51.1938 52.455 51.184 52.4945ZM51.3702 50.4603C51.7131 50.4603 52.056 50.4603 52.3989 50.4603C53.2905 50.4504 53.4571 50.3122 53.6236 49.453C53.7804 48.6433 53.3885 47.8138 52.7321 47.7841C51.7523 47.7545 50.7627 47.8138 49.7928 47.9422C49.1559 48.031 48.862 48.7124 48.9796 49.5222C49.058 50.0653 49.5087 50.4504 50.1161 50.4603C50.5374 50.4702 50.9489 50.4603 51.3702 50.4603Z" fill="rgb(0,0,0)" fill-rule="nonzero" />
		<path id="Vector" d="M24.5935 52.3958C24.0938 52.3563 23.555 52.3464 23.0259 52.2674C21.5269 52.0403 20.7137 50.8948 20.5863 49.3938C20.4981 48.4063 20.8018 47.5373 21.4191 46.767C21.9286 46.1251 22.683 45.9375 23.3982 45.8783C24.5445 45.7795 25.7006 45.7993 26.8372 46.1943C28.9534 46.9349 29.4727 49.7987 28.248 51.27C27.7777 51.8329 27.1899 52.1884 26.4648 52.2674C25.8378 52.3267 25.2303 52.3563 24.5935 52.3958ZM24.7209 50.5097L24.7209 50.4998C25.1814 50.4998 25.6418 50.4998 26.1121 50.4998C26.1905 50.4998 26.2591 50.48 26.3375 50.4702C26.7294 50.4208 26.9351 50.1542 27.0429 49.8085C27.1017 49.611 27.0527 49.3938 27.0527 49.1765C27.0527 48.426 26.651 47.9224 25.9064 47.8434C25.2303 47.7743 24.5347 47.7545 23.8587 47.7447C22.8887 47.7249 22.6242 47.9323 22.4184 48.8902C22.2323 49.7592 22.7026 50.5887 23.6627 50.5097C23.9958 50.4899 24.3584 50.5097 24.7209 50.5097Z" fill="rgb(0,0,0)" fill-rule="nonzero" />
	</g>
</svg>
